<?xml version="1.0" encoding="UTF-8" standalone="no"?>
<!-- Created with Inkscape (http://www.inkscape.org/) -->

<svg
   xmlns:dc="http://purl.org/dc/elements/1.1/"
   xmlns:cc="http://creativecommons.org/ns#"
   xmlns:rdf="http://www.w3.org/1999/02/22-rdf-syntax-ns#"
   xmlns:svg="http://www.w3.org/2000/svg"
   xmlns="http://www.w3.org/2000/svg"
   xmlns:sodipodi="http://sodipodi.sourceforge.net/DTD/sodipodi-0.dtd"
   xmlns:inkscape="http://www.inkscape.org/namespaces/inkscape"
   id="svg2"
   version="1.1"
   inkscape:version="0.48.4 r9939"
   width="100%"
   height="100%"
   sodipodi:docname="New document 1">
  <metadata
     id="metadata8">
    <rdf:RDF>
      <cc:Work
         rdf:about="">
        <dc:format>image/svg+xml</dc:format>
        <dc:type
           rdf:resource="http://purl.org/dc/dcmitype/StillImage" />
        <dc:title></dc:title>
      </cc:Work>
    </rdf:RDF>
  </metadata>
  <defs
     id="defs6" />
  <sodipodi:namedview
     pagecolor="#ffffff"
     bordercolor="#666666"
     borderopacity="1"
     objecttolerance="10"
     gridtolerance="10"
     guidetolerance="10"
     inkscape:pageopacity="0"
     inkscape:pageshadow="2"
     inkscape:window-width="1633"
     inkscape:window-height="885"
     id="namedview4"
     showgrid="false"
     inkscape:zoom="1.2685914"
     inkscape:cx="485.17271"
     inkscape:cy="797.14089"
     inkscape:window-x="320"
     inkscape:window-y="240"
     inkscape:window-maximized="0"
     inkscape:current-layer="svg2" />
  <path
     style="fill:#ffffff;fill-opacity:1;fill-rule:evenodd;stroke:#000000;stroke-width:10;stroke-miterlimit:4;stroke-opacity:1;stroke-dasharray:none"
     id="path114"
     d="m 61.993528,24.678715 c -2.783559,-0.01177 -5.583312,-0.06105 -8.340383,0.40678 -2.730306,0.463293 -4.794229,1.116194 -7.479806,1.861298 -4.733579,1.563347 -9.49272,3.432394 -13.506214,6.457499 -2.277667,1.716755 -2.383987,1.940397 -4.33853,3.862182 -2.756866,2.763989 -3.895798,6.226769 -4.318768,10.004996 -0.316826,3.416263 -0.1803,6.781342 0.675904,10.102689 0.93011,2.490775 2.123008,5.008646 3.931839,6.999178 1.103855,1.214739 2.011289,1.811799 3.309496,2.800997 4.357241,2.916392 9.445735,3.904602 14.54933,4.562803 5.654706,0.526251 11.35219,0.798731 17.015592,0.296869 3.125305,-0.548369 5.991986,-1.188473 7.847559,-3.96556 0.343593,-0.514227 0.576851,-1.094159 0.865276,-1.641239 1.696508,-5.015867 1.546064,-10.427205 1.621453,-15.660249 0.316082,-5.491565 -0.866259,-10.787718 -3.592064,-15.575725 -0.579377,-1.017704 -1.27467,-1.964895 -1.912005,-2.947343 -3.513023,-5.085224 -8.248906,-9.114635 -13.413743,-12.435824 -2.475703,-1.351213 -1.265379,-0.752908 -3.619182,-1.818569 0,0 0.633425,-0.420089 0.633425,-0.420089 l 0,0 c 2.351751,1.076351 1.142496,0.472896 3.615994,1.833763 5.163145,3.33821 9.904402,7.375131 13.417796,12.470083 0.639579,0.984531 1.337494,1.933534 1.918736,2.953593 2.732084,4.794707 3.926983,10.103619 3.611523,15.60475 -0.07201,5.240144 0.08195,10.653437 -1.589019,15.683616 -0.285994,0.55184 -0.516732,1.136032 -0.857981,1.655522 -2.014292,3.066394 -5.757138,4.112344 -9.151307,4.709836 -5.665573,0.485634 -11.364083,0.218335 -17.019524,-0.313905 -5.116483,-0.663263 -10.215185,-1.659708 -14.580178,-4.589329 -1.304055,-0.995874 -2.212352,-1.595071 -3.321862,-2.81691 -1.814831,-1.998568 -3.010532,-4.526275 -3.949069,-7.024337 -0.866461,-3.327985 -1.006431,-6.700172 -0.69213,-10.125477 0.414913,-3.793848 1.550763,-7.279306 4.312936,-10.058961 1.666772,-1.644087 2.390504,-2.477564 4.343853,-3.879527 4.4767,-3.21303 9.522926,-5.522419 14.766418,-7.167765 2.707429,-0.75025 4.750174,-1.39713 7.501468,-1.862937 2.767542,-0.468557 5.577525,-0.41816 8.371591,-0.419284 0,0 -0.628424,0.456576 -0.628424,0.456576 z"
     inkscape:connector-curvature="0" />
  <path
     style="fill:#ffffff;fill-opacity:1;fill-rule:evenodd;stroke:#000000;stroke-width:10;stroke-miterlimit:4;stroke-opacity:1;stroke-dasharray:none"
     id="path116"
     d="m 59.13796,58.020839 c 2.189743,2.92182 3.735588,6.25759 5.549924,9.414068 3.089944,4.785735 5.632346,9.872779 8.353009,14.866437 0.303409,0.57096 0.606818,1.141919 0.910227,1.712878 0,0 -0.658443,0.376942 -0.658443,0.376942 l 0,0 C 72.991075,83.81948 72.689473,83.247796 72.38787,82.676111 69.679479,77.676197 67.140933,72.587804 64.037285,67.810479 c -1.821411,-3.149575 -3.363181,-6.48674 -5.5675,-9.39521 0,0 0.668175,-0.39443 0.668175,-0.39443 z"
     inkscape:connector-curvature="0" />
  <path
     style="fill:#ffffff;fill-opacity:1;fill-rule:evenodd;stroke:#000000;stroke-width:10;stroke-miterlimit:4;stroke-opacity:1;stroke-dasharray:none"
     id="path118"
     d="m 121.02051,29.407948 c -2.32879,-0.0232 -4.83114,0.265331 -6.93507,1.356526 -0.98604,0.511412 -2.40412,2.060328 -3.06373,2.707958 -3.9392,4.645372 -5.36417,10.584166 -6.49152,16.422528 -0.79033,4.461376 -0.92274,8.994579 -0.97447,13.513185 0.01,4.061677 -0.14882,8.125871 0.34584,12.16427 0.50172,2.984599 1.6209,5.720303 3.94379,7.707832 2.4099,1.412224 5.19622,1.556082 7.91651,1.667966 3.16465,0.244166 5.88161,-1.295399 8.35152,-3.07859 3.12402,-2.449349 5.08309,-5.824248 6.97103,-9.231972 2.0845,-3.59972 2.8962,-7.70202 3.52133,-11.764691 0.57745,-4.621067 0.61372,-9.286525 0.65627,-13.936524 -0.0538,-3.340178 -0.35325,-6.699254 -1.3274,-9.909883 -0.52059,-1.715791 -1.29832,-3.522436 -1.97147,-5.180091 -1.88144,-3.960564 -4.39226,-7.600283 -8.19769,-9.874717 -1.79671,-0.772542 -3.45848,-1.582715 -5.28607,-0.518671 0,0 0.60387,-0.487439 0.60387,-0.487439 l 0,0 c 1.83485,-0.975748 3.55215,-0.204306 5.32387,0.591005 3.80516,2.299879 6.31961,5.952777 8.20712,9.925779 0.67584,1.663577 1.45234,3.467592 1.97717,5.188715 0.98049,3.215433 1.28644,6.577839 1.34034,9.924798 -0.0394,4.65253 -0.0779,9.320206 -0.64798,13.94444 -0.62082,4.068837 -1.42572,8.181941 -3.50922,11.788522 -1.88737,3.412159 -3.83523,6.797028 -6.95325,9.260554 -2.85345,2.07433 -6.02015,4.034164 -9.68178,3.806943 -2.7348,-0.117024 -5.53287,-0.271537 -7.94669,-1.709478 -2.32761,-2.009921 -3.46197,-4.755893 -3.96352,-7.761582 -0.4955,-4.042107 -0.33865,-8.108843 -0.34838,-12.174328 0.0504,-4.524658 0.18686,-9.063814 0.97966,-13.530805 1.12912,-5.845095 2.54652,-11.793921 6.4679,-16.461156 0.59231,-0.587697 1.12376,-1.243861 1.77692,-1.76309 2.75408,-2.189371 6.05259,-3.156493 9.54236,-3.043735 0,0 -0.62726,0.455731 -0.62726,0.455731 z"
     inkscape:connector-curvature="0" />
  <path
     style="fill:#ffffff;fill-opacity:1;fill-rule:evenodd;stroke:#000000;stroke-width:10;stroke-miterlimit:4;stroke-opacity:1;stroke-dasharray:none"
     id="path120"
     d="m 122.52882,60.500849 c -0.14405,3.157315 0.0762,6.268245 0.57241,9.383911 0.95487,4.496678 2.84726,8.706097 4.62199,12.923281 1.53121,3.846788 3.34383,7.560737 5.21653,11.248696 0,0 -0.65892,0.375611 -0.65892,0.375611 l 0,0 c -1.86396,-3.69441 -3.67112,-7.412994 -5.21099,-11.257892 -1.77847,-4.22121 -3.67465,-8.43412 -4.6427,-12.932724 -0.49531,-3.117394 -0.72208,-6.228975 -0.59043,-9.388235 0,0 0.69211,-0.352648 0.69211,-0.352648 z"
     inkscape:connector-curvature="0" />
  <path
     style="fill:#ffffff;fill-opacity:1;fill-rule:evenodd;stroke:#000000;stroke-width:10;stroke-miterlimit:4;stroke-opacity:1;stroke-dasharray:none"
     id="path122"
     d="m 155.91916,88.314906 c 1.41126,-4.895694 1.97751,-9.94803 2.53967,-14.993859 0.93176,-8.267493 0.86849,-16.595304 1.35167,-24.889826 0.36622,-4.006185 0.69606,-8.040632 1.4192,-12.003877 0.0501,-0.274469 0.38036,-2.836854 1.20262,-3.247933 0.43003,-0.214991 0.95992,-0.05619 1.43988,-0.08429 0.24152,0.489319 0.53737,0.955388 0.72456,1.467955 0.65768,1.800881 0.98017,3.846971 1.39172,5.693349 0.89476,4.01417 1.80212,8.023173 2.666,12.044477 0.80928,3.732696 1.30246,7.519193 1.85482,11.294376 0.33677,2.301765 0.6558,4.430093 1.50167,6.593827 0.23196,0.245973 0.37423,0.633776 0.69588,0.73792 0.87666,0.283843 1.05065,-0.740202 1.27956,-1.185659 0.39397,-0.766649 0.85433,-1.500266 1.20836,-2.286155 1.03389,-2.295033 1.57187,-4.210072 2.35023,-6.620485 2.2913,-6.829703 3.8463,-13.868484 5.01793,-20.96717 0.0237,-0.0083 0.50596,-4.392296 0.65161,-4.462285 0.23708,-0.113929 0.66178,-0.09309 0.77588,0.143909 0.2237,0.464653 0.0318,1.030966 0.038,1.546627 0.0105,0.878183 0.008,1.756473 0.0119,2.634709 0.0268,8.94916 -0.11811,17.89899 0.0564,26.846865 0.16472,5.281467 0.076,2.746836 0.26169,7.604048 0,0 -0.65372,0.336137 -0.65372,0.336137 l 0,0 c -0.17397,-4.863454 -0.0903,-2.325865 -0.24728,-7.612894 -0.16975,-8.943637 -0.0206,-17.889176 -0.0835,-26.834014 -0.009,-0.875249 -0.0106,-1.750591 -0.026,-2.625747 -0.009,-0.510253 -0.16607,-1.033944 -0.0473,-1.530266 0.0812,-0.339571 0.31297,-0.673917 0.61616,-0.847081 0.17229,-0.0984 -0.1123,0.381674 -0.14417,0.577508 -0.21051,1.293634 -0.28471,2.607373 -0.53947,3.894769 -1.18664,7.101601 -2.73939,14.146599 -5.02655,20.983323 -0.80496,2.511239 -1.9277,6.765123 -3.51888,8.920384 -0.45194,0.612143 -1.83113,2.189536 -2.64112,1.884716 -0.32459,-0.122151 -0.46802,-0.511933 -0.70204,-0.7679 -0.83905,-2.174819 -1.15423,-4.311462 -1.48661,-6.621825 -0.51043,-3.54794 -0.4359,-3.537073 -1.07872,-7.231442 -0.23627,-1.357834 -0.50884,-2.709099 -0.76327,-4.063649 -0.86356,-4.020685 -1.77142,-8.027516 -2.67721,-12.038488 -0.42205,-1.86887 -0.73748,-3.850011 -1.40583,-5.664183 -0.18186,-0.49364 -0.46952,-0.941574 -0.70428,-1.412361 -0.0299,-0.218554 0.11687,-0.733106 -0.0897,-0.655662 -0.84888,0.318284 -1.22145,3.082753 -1.24912,3.230472 -0.31045,1.657046 -0.87514,6.08736 -1.03547,7.584203 -0.15758,1.471158 -0.26692,2.947084 -0.40038,4.420626 -0.48426,8.292967 -0.41373,16.618983 -1.3353,24.88588 -0.55307,5.041067 -1.11199,10.088631 -2.50344,14.983432 0,0 -0.69609,0.33754 -0.69609,0.33754 z"
     inkscape:connector-curvature="0" />
  <path
     style="fill:#ffffff;fill-opacity:1;fill-rule:evenodd;stroke:#000000;stroke-width:10;stroke-miterlimit:4;stroke-opacity:1;stroke-dasharray:none"
     id="path124"
     d="m 248.55909,37.045269 c -0.57049,5.683806 -1.49529,11.327301 -2.12181,17.007874 -0.6896,5.404764 -1.2656,10.821336 -1.56762,16.261989 -0.1218,2.340023 -0.15031,4.683174 -0.17192,7.025769 0,0 -0.68096,0.346128 -0.68096,0.346128 l 0,0 c 0.0241,-2.344853 0.0511,-4.690452 0.17759,-7.032563 0.30703,-5.44516 0.89234,-10.86543 1.58406,-16.274669 0.62327,-5.673296 1.54825,-11.311013 2.08771,-16.990108 0,0 0.69295,-0.34442 0.69295,-0.34442 z"
     inkscape:connector-curvature="0" />
  <path
     style="fill:#ffffff;fill-opacity:1;fill-rule:evenodd;stroke:#000000;stroke-width:10;stroke-miterlimit:4;stroke-opacity:1;stroke-dasharray:none"
     id="path126"
     d="m 267.57158,36.064296 c -0.0177,5.431588 -0.0175,10.863217 -0.0184,16.294828 -4.8e-4,6.13698 0.002,12.273959 0.006,18.410938 0.004,4.132194 0.002,8.264391 0.005,12.396585 -0.0133,2.195795 -0.24498,4.377123 0.80341,6.372307 0,0 -0.67309,0.384831 -0.67309,0.384831 l 0,0 c -1.04575,-2.01373 -0.83257,-4.197972 -0.80833,-6.411678 0.003,-4.133965 0.001,-8.267933 0.005,-12.401899 0.004,-6.13905 0.007,-12.278102 0.006,-18.417154 -8.7e-4,-5.425372 -6e-4,-10.850761 -0.0184,-16.27611 0,0 0.69211,-0.352648 0.69211,-0.352648 z"
     inkscape:connector-curvature="0" />
  <path
     style="fill:#ffffff;fill-opacity:1;fill-rule:evenodd;stroke:#000000;stroke-width:10;stroke-miterlimit:4;stroke-opacity:1;stroke-dasharray:none"
     id="path130"
     d="m 288.85375,35.465256 c -0.0147,4.685858 -0.012,9.371752 -0.0101,14.057627 0.003,3.726695 0.004,7.453391 0.006,11.180086 -0.14671,2.870033 0.16991,5.696293 0.69745,8.509957 0.40739,2.382213 0.76087,4.769269 1.17479,7.151249 0.31742,1.973079 0.4241,3.969619 0.48049,5.964468 0.0357,0.251096 0.0715,0.502193 0.1072,0.75329 0,0 -0.68688,0.362374 -0.68688,0.362374 l 0,0 c -0.0366,-0.254001 -0.0731,-0.508001 -0.1097,-0.762002 -0.0539,-1.991886 -0.15652,-3.985764 -0.47256,-5.956066 -0.41091,-2.382517 -0.76753,-4.769202 -1.17083,-7.152158 -0.52765,-2.818515 -0.85138,-5.648822 -0.70109,-8.52406 0.002,-3.728683 0.003,-7.457367 0.006,-11.186049 0.002,-4.682457 0.005,-9.364933 -0.0101,-14.047373 0,0 0.68955,-0.351343 0.68955,-0.351343 z"
     inkscape:connector-curvature="0" />
  <path
     style="fill:#ffffff;fill-opacity:1;fill-rule:evenodd;stroke:#000000;stroke-width:10;stroke-miterlimit:4;stroke-opacity:1;stroke-dasharray:none"
     id="path132"
     d="m 317.9282,33.009661 c -0.4783,5.479644 -1.07195,10.948188 -1.55033,16.427793 -0.45955,5.235153 -0.62722,10.487827 -0.70906,15.740347 0.17567,3.970749 -0.20304,7.873331 -0.74209,11.798062 -0.31894,1.747223 -0.63571,3.494015 -0.92583,5.246239 0,0 -0.68472,0.334851 -0.68472,0.334851 l 0,0 c 0.29012,-1.752336 0.60672,-3.499239 0.92971,-5.245844 0.54216,-3.922445 0.92241,-7.823105 0.75046,-11.792028 0.0868,-5.256525 0.25548,-10.513197 0.72054,-15.752047 0.47716,-5.473716 1.07552,-10.936123 1.51671,-16.413079 0,0 0.69461,-0.344294 0.69461,-0.344294 z"
     inkscape:connector-curvature="0" />
  <path
     style="fill:#ffffff;fill-opacity:1;fill-rule:evenodd;stroke:#000000;stroke-width:10;stroke-miterlimit:4;stroke-opacity:1;stroke-dasharray:none"
     id="path138"
     d="m 232.04477,56.243088 c 3.73113,2.155364 7.82742,3.387581 12.01028,4.294664 6.16693,1.132544 12.45132,1.343734 18.70452,1.495429 8.26641,0.194031 16.52133,-0.633801 24.72874,-1.527869 11.86133,-1.567003 23.80192,-2.296584 35.7483,-2.794759 6.28595,-0.328709 3.2853,-0.161743 9.00221,-0.495706 0,0 -0.58498,0.430167 -0.58498,0.430167 l 0,0 c -5.70395,0.322762 -2.70949,0.160955 -8.98361,0.480635 -11.9489,0.491345 -23.8913,1.226841 -35.75356,2.804544 -8.21766,0.896699 -16.48283,1.729031 -24.75978,1.538597 -6.25612,-0.156375 -12.54333,-0.372745 -18.71293,-1.50668 -4.19615,-0.909132 -8.30219,-2.148291 -12.05039,-4.29936 0,0 0.6512,-0.419662 0.6512,-0.419662 z"
     inkscape:connector-curvature="0" />
  <path
     style="fill:#ffffff;fill-opacity:1;fill-rule:evenodd;stroke:#000000;stroke-width:10;stroke-miterlimit:4;stroke-opacity:1;stroke-dasharray:none"
     id="path140"
     d="m 380.29503,40.005676 c -0.0121,3.903302 -0.009,7.80663 -0.01,11.709945 5e-4,4.036925 0.002,8.073849 0.002,12.110774 -0.001,3.320765 0.001,6.641528 0.004,9.962291 3.3e-4,0.37396 6.6e-4,0.747919 9.8e-4,1.121878 0,0 -0.68711,0.3501 -0.68711,0.3501 l 0,0 c 3.3e-4,-0.374291 6.5e-4,-0.748582 9.8e-4,-1.122874 0.003,-3.322278 0.006,-6.644555 0.004,-9.966835 -2e-4,-4.037617 0.002,-8.075233 0.002,-12.112849 -5.1e-4,-3.899928 0.002,-7.799868 -0.01,-11.699782 0,0 0.69211,-0.352648 0.69211,-0.352648 z"
     inkscape:connector-curvature="0" />
  <path
     style="fill:#ffffff;fill-opacity:1;fill-rule:evenodd;stroke:#000000;stroke-width:10;stroke-miterlimit:4;stroke-opacity:1;stroke-dasharray:none"
     id="path142"
     d="m 403.15439,39.312018 c -0.0114,4.291404 -0.0103,8.582834 -0.0122,12.874251 0.016,5.163105 0.0634,10.321221 -0.22129,15.477748 -0.12641,3.001927 -0.60603,5.972207 -0.94357,8.954271 0,0 -0.6855,0.339583 -0.6855,0.339583 l 0,0 c 0.339,-2.982897 0.82518,-5.953137 0.95637,-8.95583 0.29398,-5.155804 0.24286,-10.313426 0.22761,-15.476234 -0.002,-4.287265 -7.6e-4,-8.574542 -0.0122,-12.861794 0,0 0.69083,-0.351995 0.69083,-0.351995 z"
     inkscape:connector-curvature="0" />
  <path
     style="fill:#ffffff;fill-opacity:1;fill-rule:evenodd;stroke:#000000;stroke-width:10;stroke-miterlimit:4;stroke-opacity:1;stroke-dasharray:none"
     id="path144"
     d="m 64.262177,116.0205 c -6.34193,-0.51904 -12.716184,-0.58142 -19.075748,-0.52285 -5.772494,0.26645 -11.444103,1.29122 -16.880431,3.26673 -3.053075,1.10946 -3.796639,1.58944 -6.611668,3.02032 -2.429958,1.56978 -4.969079,3.1707 -6.805609,5.45655 -0.428142,0.53288 -1.294045,1.92927 -1.679516,2.53655 -1.336632,2.2034 -1.648408,4.67395 -1.801381,7.18991 -0.325304,3.68735 0.66094,6.51028 2.327659,9.73784 3.453351,5.09076 7.893394,7.20854 13.586179,9.00204 6.529277,1.94177 13.253932,2.99664 20.018901,3.65505 4.605247,0.40794 9.229825,0.46725 13.849847,0.48356 3.768173,-0.0114 7.367167,-0.97317 10.724961,-2.6349 3.172099,-2.23566 4.553513,-5.1159 5.615475,-8.73103 0.700582,-3.0984 1.078754,-6.28648 0.910549,-9.46238 -0.781786,-3.73903 -3.637003,-6.48011 -6.276241,-9.04706 -3.003466,-3.11257 -6.436282,-5.75933 -10.232452,-7.82456 -1.616209,-0.83273 -3.335339,-1.40487 -5.06212,-1.95115 0,0 0.630963,-0.42938 0.630963,-0.42938 l 0,0 c 1.72806,0.55239 3.448407,1.1306 5.066663,1.96564 3.796144,2.07653 7.231023,4.72841 10.237736,7.84553 2.653773,2.5794 5.523801,5.33288 6.31794,9.0886 0.174292,3.18506 -0.213338,6.38161 -0.908538,9.49017 -1.280153,4.39963 -2.820852,7.16354 -6.895722,9.53151 -3.369109,1.64584 -6.97204,2.60208 -10.744025,2.60532 -4.616573,-0.0206 -9.237769,-0.0851 -13.838967,-0.50004 -6.767456,-0.66704 -13.494239,-1.73048 -20.027827,-3.66764 -5.706871,-1.80662 -10.163237,-3.94317 -13.630858,-9.04369 -1.639139,-3.16382 -2.695429,-6.1468 -2.356034,-9.76907 0.147704,-2.52634 0.451272,-5.00855 1.785787,-7.22545 0.353198,-0.5569 1.295456,-2.07063 1.678358,-2.55102 2.137767,-2.68208 5.213514,-4.45089 8.0826,-6.21084 2.819439,-1.42604 3.552531,-1.89848 6.609652,-3.00387 5.441663,-1.96759 11.116844,-2.98647 16.891985,-3.24827 6.375467,-0.0593 12.764836,6.5e-4 19.124082,0.49916 0,0 -0.6322,0.44872 -0.6322,0.44872 z"
     inkscape:connector-curvature="0" />
  <path
     style="fill:#ffffff;fill-opacity:1;fill-rule:evenodd;stroke:#000000;stroke-width:10;stroke-miterlimit:4;stroke-opacity:1;stroke-dasharray:none"
     id="path152"
     d="m 50.88736,142.57237 c 0.815714,4.09894 3.060419,7.64465 5.507035,10.9522 2.547155,3.35492 5.324442,6.53856 8.278286,9.54091 1.253152,1.2289 2.505956,2.45975 3.717332,3.73005 0,0 -0.657931,0.401 -0.657931,0.401 l 0,0 c -1.209643,-1.27068 -2.460526,-2.50209 -3.710638,-3.73278 -2.950556,-3.00935 -5.721517,-6.20123 -8.271385,-9.55731 -2.459335,-3.31491 -4.701529,-6.87127 -5.549521,-10.97449 0,0 0.686822,-0.35958 0.686822,-0.35958 z"
     inkscape:connector-curvature="0" />
  <path
     style="fill:#ffffff;fill-opacity:1;fill-rule:evenodd;stroke:#000000;stroke-width:10;stroke-miterlimit:4;stroke-opacity:1;stroke-dasharray:none"
     id="path156"
     d="m 94.524178,159.44318 c 3.019982,-6.2939 6.535832,-12.33141 9.921052,-18.43213 3.6937,-6.32047 6.82405,-12.90914 9.7517,-19.60675 1.086,-2.24632 1.75686,-4.63504 2.33482,-7.04979 0.0282,-0.47598 0.54824,-4.06316 1.75259,-2.52668 0.22318,0.28473 0.0997,0.71665 0.14949,1.07497 0.22561,3.0506 0.18624,6.11401 0.17983,9.17093 0.14093,1.86502 -0.47627,4.27449 0.74041,5.91073 0.18937,0.25467 0.46017,0.43719 0.69025,0.65578 2.8804,1.69388 5.42824,-0.94436 7.47026,-2.74982 2.83455,-2.84886 4.9526,-6.2381 6.96348,-9.68471 0.65016,-0.84848 1.33857,-3.86053 2.95188,-3.64274 0.34096,0.046 0.43879,1.37172 0.54987,2.12267 0.5419,5.99295 0.20566,11.99484 -0.2541,17.97779 -0.30686,4.96058 -0.90821,9.89324 -1.40457,14.83635 0.0474,2.36147 -0.68161,4.52724 -1.33757,6.75237 -0.26978,1.21161 -0.15159,0.60184 -0.35434,1.82936 0,0 -0.69526,0.34015 -0.69526,0.34015 l 0,0 c 0.20024,-1.23269 0.0837,-0.62014 0.34954,-1.83771 0.65458,-2.22433 1.40446,-4.38372 1.35654,-6.74577 0.50682,-4.94572 1.11302,-9.88151 1.42667,-14.84533 0.46029,-5.97367 0.80015,-11.96677 0.23588,-17.94945 -0.0718,-0.47949 -0.0992,-0.96778 -0.21549,-1.43845 -0.0509,-0.20591 -0.27423,-0.35886 -0.28111,-0.57085 -0.004,-0.13343 0.33389,-0.41669 0.25252,-0.31086 -0.75738,0.98513 -1.3177,2.06404 -1.88357,3.17259 -2.0158,3.45084 -4.13143,6.84776 -6.96115,9.70982 -1.74134,1.55208 -4.28591,3.92145 -6.7681,4.08388 -0.97254,0.0636 -1.25735,-0.2217 -2.06007,-0.64366 -0.23441,-0.2261 -0.50993,-0.41618 -0.70322,-0.6783 -1.21985,-1.65428 -0.61968,-4.06272 -0.75051,-5.94666 0.008,-3.05268 0.0493,-6.11206 -0.18088,-9.15822 -0.22808,-1.63722 -0.27038,-0.51439 0.32538,-2.04483 0.0447,-0.11472 -0.15786,0.1928 -0.20771,0.30535 -0.34797,0.7857 -0.46249,1.66446 -0.63929,2.49614 -0.57454,2.42435 -1.25589,4.81953 -2.34895,7.07156 -2.95038,6.69858 -6.07836,13.30043 -9.78123,19.62763 -3.37611,6.08524 -6.875758,12.11142 -9.871436,18.39738 0,0 -0.703606,0.32726 -0.703606,0.32726 z"
     inkscape:connector-curvature="0" />
  <path
     style="fill:#ffffff;fill-opacity:1;fill-rule:evenodd;stroke:#000000;stroke-width:10;stroke-miterlimit:4;stroke-opacity:1;stroke-dasharray:none"
     id="path158"
     d="m 155.49923,161.10143 c 4.39092,-5.08187 8.34989,-10.4984 12.23452,-15.97098 5.49804,-8.25078 11.31263,-16.28266 16.73353,-24.58476 0.90117,-1.38809 2.18917,-3.40833 3.17998,-4.81585 0.33563,-0.47677 1.11859,-1.64365 1.73869,-2.0463 1.15741,-0.75156 0.91468,-0.78657 1.4806,-0.18009 0.58283,2.75559 0.33429,5.68745 0.3125,8.49763 -0.041,4.38299 -0.0605,8.76613 -0.0719,13.14929 0.0258,4.31438 -0.25841,8.62703 -0.79956,12.90573 -0.2668,2.70842 -0.82433,5.37282 -1.19853,8.06556 -0.14168,1.06288 -0.21328,2.13247 -0.28114,3.20188 0,0 -0.69094,0.34655 -0.69094,0.34655 l 0,0 c 0.068,-1.07154 0.1399,-2.14326 0.28127,-3.20833 0.37192,-2.6946 0.9366,-5.35926 1.20701,-8.06882 0.5498,-4.27631 0.83844,-8.58739 0.81032,-12.9006 0.0105,-4.38266 0.0297,-8.76527 0.0682,-13.14778 0.0185,-2.79149 0.24724,-5.69203 -0.30442,-8.43417 -0.0936,-0.0946 -0.2563,-0.15302 -0.28093,-0.28384 -0.0184,-0.0979 0.26121,-0.29802 0.18299,-0.23632 -2.22091,1.75189 -3.2198,4.72904 -4.96739,6.86304 -5.43264,8.29987 -11.2529,16.33342 -16.74595,24.59314 -3.8686,5.46357 -7.81179,10.86977 -12.17507,15.95295 0,0 -0.71373,0.30207 -0.71373,0.30207 z"
     inkscape:connector-curvature="0" />
  <path
     style="fill:#ffffff;fill-opacity:1;fill-rule:evenodd;stroke:#000000;stroke-width:10;stroke-miterlimit:4;stroke-opacity:1;stroke-dasharray:none"
     id="path160"
     d="m 175.46262,140.00216 c 5.56728,-0.4996 11.07135,-1.48327 16.57778,-2.41771 3.10795,-0.53708 6.22806,-0.99839 9.36893,-1.28872 0,0 -0.61772,0.45755 -0.61772,0.45755 l 0,0 c -3.13259,0.28844 -6.24497,0.7446 -9.34504,1.27803 -5.51656,0.9337 -11.03061,1.91163 -16.60542,2.43191 0,0 0.62147,-0.46106 0.62147,-0.46106 z"
     inkscape:connector-curvature="0" />
  <path
     style="fill:#ffffff;fill-opacity:1;fill-rule:evenodd;stroke:#000000;stroke-width:10;stroke-miterlimit:4;stroke-opacity:1;stroke-dasharray:none"
     id="path174"
     d="m 244.71158,122.77465 c -0.0134,4.15497 -0.0101,8.30997 -0.0112,12.46496 -0.0805,3.94355 0.14781,7.89789 -0.0874,11.83665 -0.20098,2.13812 -0.40804,4.2747 -0.54824,6.41784 0,0 -0.68928,0.34553 -0.68928,0.34553 l 0,0 c 0.14155,-2.14406 0.34807,-4.28168 0.554,-6.42035 0.24741,-3.93866 0.0185,-7.89453 0.10123,-11.83847 -0.001,-4.15117 0.002,-8.30236 -0.0112,-12.45352 0,0 0.69211,-0.35264 0.69211,-0.35264 z"
     inkscape:connector-curvature="0" />
  <path
     style="fill:#ffffff;fill-opacity:1;fill-rule:evenodd;stroke:#000000;stroke-width:10;stroke-miterlimit:4;stroke-opacity:1;stroke-dasharray:none"
     id="path176"
     d="m 272.20737,123.75562 c -0.61208,3.86311 -1.11008,7.74222 -1.71044,11.60755 -0.66116,4.17206 -1.27423,8.35137 -1.91281,12.52683 -0.53933,3.18909 -1.15143,6.35668 -1.51086,9.57328 0,0 -0.68673,0.34031 -0.68673,0.34031 l 0,0 c 0.36145,-3.21839 0.96946,-6.38854 1.51486,-9.5787 0.64103,-4.17657 1.26175,-8.35625 1.91951,-12.53026 0.59714,-3.86075 1.09555,-7.73443 1.69351,-11.59459 0,0 0.69296,-0.34442 0.69296,-0.34442 z"
     inkscape:connector-curvature="0" />
  <path
     style="fill:#ffffff;fill-opacity:1;fill-rule:evenodd;stroke:#000000;stroke-width:10;stroke-miterlimit:4;stroke-opacity:1;stroke-dasharray:none"
     id="path178"
     d="m 291.21922,124.44582 c 0.0359,4.74811 -0.97838,9.43218 -1.75593,14.09714 -0.75403,3.93122 -0.93839,7.93431 -1.4199,11.89804 -0.24061,1.57797 -0.37983,3.16648 -0.66098,4.73755 0,0 -0.69358,0.33791 -0.69358,0.33791 l 0,0 c 0.28669,-1.56998 0.42249,-3.15849 0.66721,-4.73575 0.49188,-3.9672 0.68178,-7.97492 1.43759,-11.91035 0.77627,-4.65552 1.79332,-9.33334 1.73476,-14.07255 0,0 0.69083,-0.35199 0.69083,-0.35199 z"
     inkscape:connector-curvature="0" />
  <path
     style="fill:#ffffff;fill-opacity:1;fill-rule:evenodd;stroke:#000000;stroke-width:10;stroke-miterlimit:4;stroke-opacity:1;stroke-dasharray:none"
     id="path182"
     d="m 312.50203,125.32871 c -0.0127,4.68887 -0.0119,9.37777 -0.012,14.06665 -2.1e-4,4.01366 0.006,8.02732 0.008,12.04098 0.0228,2.41363 0.0637,4.81377 -0.2195,7.21263 -0.17883,1.44897 -0.0655,0.71792 -0.34371,2.19255 0,0 -0.69333,0.33705 -0.69333,0.33705 l 0,0 c 0.28024,-1.46961 0.16625,-0.74024 0.34562,-2.18752 0.28519,-2.39721 0.25133,-4.79496 0.22941,-7.20746 0.002,-4.01636 0.008,-8.03273 0.008,-12.04909 -1.1e-4,-4.68482 6.9e-4,-9.36965 -0.012,-14.05445 0,0 0.68955,-0.35134 0.68955,-0.35134 z"
     inkscape:connector-curvature="0" />
  <path
     style="fill:#ffffff;fill-opacity:1;fill-rule:evenodd;stroke:#000000;stroke-width:10;stroke-miterlimit:4;stroke-opacity:1;stroke-dasharray:none"
     id="path186"
     d="m 229.35053,140.19751 c 5.1363,0.38138 10.28654,0.51007 15.43457,0.61035 5.27242,0.0887 10.54576,0.0882 15.81875,0.0953 10.22649,0.31333 20.45505,0.51864 30.68534,0.65259 6.77995,0.0801 13.56029,0.11957 20.34068,0.12798 2.12916,0.002 4.25831,-0.003 6.38746,-0.006 2.09749,-0.002 4.19499,-1.9e-4 6.29248,-3.6e-4 0.39234,-1e-4 0.78469,-2e-4 1.17703,-3e-4 0,0 -0.62321,0.4528 -0.62321,0.4528 l 0,0 c -0.39214,-5e-5 -0.78428,-1e-4 -1.17642,-1.5e-4 -2.09925,2.7e-4 -4.1985,0.002 -6.29774,0.004 -2.12465,0.002 -4.24931,0.003 -6.37396,-0.004 -6.76573,-0.0245 -13.53135,-0.0769 -20.29661,-0.16093 -10.23931,-0.13886 -20.47706,-0.34088 -30.71326,-0.6312 -5.27512,6.9e-4 -10.55062,0.002 -15.8251,-0.0925 -5.15506,-0.10207 -10.31165,-0.23555 -15.45603,-0.60025 0,0 0.62602,-0.44753 0.62602,-0.44753 z"
     inkscape:connector-curvature="0" />
  <path
     style="fill:#ffffff;fill-opacity:1;fill-rule:evenodd;stroke:#000000;stroke-width:10;stroke-miterlimit:4;stroke-opacity:1;stroke-dasharray:none"
     id="path188"
     d="m 376.35173,128.57643 c -0.01,4.17575 -0.009,8.35152 -0.008,12.52728 -0.13705,3.47926 0.17588,6.93894 0.47929,10.39944 0.21347,2.30748 0.67098,4.57718 0.87484,6.88829 0.13251,1.69087 0.17193,3.38689 0.20869,5.0819 0,0 -0.68532,0.35102 -0.68532,0.35102 l 0,0 c -0.0347,-1.69367 -0.0731,-3.38828 -0.20536,-5.07781 -0.20537,-2.31119 -0.66331,-4.58114 -0.87365,-6.88905 -0.29777,-3.46486 -0.61186,-6.92837 -0.47035,-10.41146 6.2e-4,-4.17297 0.002,-8.34596 -0.008,-12.51892 0,0 0.68827,-0.35069 0.68827,-0.35069 z"
     inkscape:connector-curvature="0" />
  <path
     style="fill:#ffffff;fill-opacity:1;fill-rule:evenodd;stroke:#000000;stroke-width:10;stroke-miterlimit:4;stroke-opacity:1;stroke-dasharray:none"
     id="path190"
     d="m 398.42538,124.3512 c -0.006,3.20322 -0.007,6.40646 -0.009,9.60969 0.12534,5.09115 -0.0347,10.15256 -0.58166,15.21411 -0.32143,2.84459 -0.16792,1.46801 -0.46128,4.12965 0,0 -0.67977,0.33693 -0.67977,0.33693 l 0,0 c 0.29842,-2.66401 0.14262,-1.28639 0.46802,-4.13279 0.55439,-5.058 0.71565,-10.11638 0.58117,-15.20473 -0.002,-3.20007 -0.003,-6.40015 -0.009,-9.60021 0,0 0.69211,-0.35265 0.69211,-0.35265 z"
     inkscape:connector-curvature="0" />
  <path
     style="fill:#ffffff;fill-opacity:1;fill-rule:evenodd;stroke:#000000;stroke-width:10;stroke-miterlimit:4;stroke-opacity:1;stroke-dasharray:none"
     id="path192"
     d="m 421.88806,122.08865 c -0.86025,4.60596 -2.19467,9.11259 -3.51546,13.60385 -1.17087,4.20776 -2.20178,8.4641 -2.91483,12.77501 -0.45114,2.22526 -0.80805,4.46608 -1.05701,6.7225 0,0 -0.69078,0.34245 -0.69078,0.34245 l 0,0 c 0.25025,-2.25892 0.60733,-4.50263 1.06243,-6.72982 0.71815,-4.31593 1.75396,-8.577 2.92577,-12.79047 1.31923,-4.48355 2.65747,-8.98363 3.4918,-13.58685 0,0 0.69808,-0.33667 0.69808,-0.33667 z"
     inkscape:connector-curvature="0" />
  <path
     style="fill:#ffffff;fill-opacity:1;fill-rule:evenodd;stroke:#000000;stroke-width:10;stroke-miterlimit:4;stroke-opacity:1;stroke-dasharray:none"
     id="path198"
     d="m 440.53069,116.39611 c -2.43622,3.97163 -3.66897,8.51432 -4.98256,12.94214 -1.59708,5.78172 -2.71913,11.6858 -3.4865,17.63165 -0.27204,2.20106 -0.41813,4.41356 -0.51367,6.62821 0,0 -0.68659,0.34604 -0.68659,0.34604 l 0,0 c 0.0997,-2.21938 0.25096,-4.43642 0.52675,-6.64194 0.77393,-5.95049 1.90058,-11.85905 3.49244,-17.64765 1.30545,-4.42776 2.53343,-8.96385 4.93828,-12.94973 0,0 0.71185,-0.30872 0.71185,-0.30872 z"
     inkscape:connector-curvature="0" />
  <path
     style="fill:#ffffff;fill-opacity:1;fill-rule:evenodd;stroke:#000000;stroke-width:10;stroke-miterlimit:4;stroke-opacity:1;stroke-dasharray:none"
     id="path200"
     d="m 364.05389,145.81215 c 7.01249,1.2664 14.15054,1.56772 21.2557,1.86636 5.31975,0.0737 10.65641,0.50547 15.97384,0.11383 2.914,-0.21463 5.65282,-0.64208 8.54816,-1.0416 9.92599,-1.14849 19.85144,-2.34645 29.80095,-3.27915 8.14203,-0.69257 16.31486,-0.87546 24.48184,-0.98725 0,0 -0.5972,0.43508 -0.5972,0.43508 l 0,0 c -8.16024,0.10236 -16.32623,0.28445 -24.46126,0.97938 -9.94973,0.93154 -19.8766,2.12086 -29.80106,3.28317 -2.90969,0.40167 -5.63189,0.82777 -8.55981,1.04147 -5.31681,0.38805 -10.65263,-0.0475 -15.97145,-0.12293 -7.11985,-0.30042 -14.26915,-0.60679 -21.30068,-1.84566 0,0 0.63097,-0.4427 0.63097,-0.4427 z"
     inkscape:connector-curvature="0" />
  <path
     style="fill:#ffffff;fill-opacity:1;fill-rule:evenodd;stroke:#000000;stroke-width:10;stroke-miterlimit:4;stroke-opacity:1;stroke-dasharray:none"
     id="path202"
     d="m 495.38203,113.50457 c -0.0142,4.90409 -0.0126,9.80822 -0.0125,14.71232 0.002,4.49884 0.003,8.99768 0.007,13.49651 -6.3e-4,2.7805 0.004,5.56098 0.005,8.34148 4.3e-4,1.41264 1.9e-4,0.71611 7.3e-4,2.08959 0,0 -0.68856,0.35084 -0.68856,0.35084 l 0,0 c 5.4e-4,-1.374 2.9e-4,-0.67722 7.3e-4,-2.09034 3e-4,-2.78203 0.005,-5.56407 0.005,-8.3461 0.004,-4.50112 0.005,-9.00223 0.007,-13.50335 1.6e-4,-4.89987 0.002,-9.79976 -0.0125,-14.69961 0,0 0.68955,-0.35134 0.68955,-0.35134 z"
     inkscape:connector-curvature="0" />
  <path
     style="fill:#ffffff;fill-opacity:1;fill-rule:evenodd;stroke:#000000;stroke-width:10;stroke-miterlimit:4;stroke-opacity:1;stroke-dasharray:none"
     id="path206"
     d="m 519.03031,111.13974 c -0.26554,5.96032 -0.67625,11.91165 -1.01954,17.86765 -0.15921,6.30658 -0.50828,12.5729 -1.25653,18.83613 0,0 -0.67288,0.33276 -0.67288,0.33276 l 0,0 c 0.76063,-6.27484 1.12031,-12.51941 1.27416,-18.83974 0.33986,-5.94822 0.75435,-11.89141 0.98524,-17.84545 0,0 0.68955,-0.35135 0.68955,-0.35135 z"
     inkscape:connector-curvature="0" />
  <path
     style="fill:#ffffff;fill-opacity:1;fill-rule:evenodd;stroke:#000000;stroke-width:10;stroke-miterlimit:4;stroke-opacity:1;stroke-dasharray:none"
     id="path208"
     d="m 545.55148,111.33756 c -1.46752,5.99814 -2.68204,12.04468 -3.77227,18.12216 -0.95178,5.39801 -1.99945,10.7792 -2.92123,16.18241 0,0 -0.67367,0.32897 -0.67367,0.32897 l 0,0 c 0.9316,-5.40604 1.99087,-10.78952 2.94066,-16.19247 1.08157,-6.07157 2.2956,-12.11054 3.73163,-18.1082 0,0 0.69488,-0.33287 0.69488,-0.33287 z"
     inkscape:connector-curvature="0" />
  <path
     style="fill:#ffffff;fill-opacity:1;fill-rule:evenodd;stroke:#000000;stroke-width:10;stroke-miterlimit:4;stroke-opacity:1;stroke-dasharray:none"
     id="path210"
     d="m 563.17376,116.65767 c -0.0192,5.69804 -0.0163,11.39613 -0.015,17.09419 0.14312,4.94327 -0.16549,9.87306 -0.46536,14.80342 -0.12354,2.25503 -0.0679,1.16041 -0.16832,3.28378 0,0 -0.68302,0.34389 -0.68302,0.34389 l 0,0 c 0.10376,-2.12574 0.0466,-1.02998 0.17286,-3.28722 0.30874,-4.93151 0.62471,-9.86271 0.48428,-14.80781 10e-4,-5.69297 0.004,-11.38596 -0.015,-17.0789 0,0 0.68955,-0.35135 0.68955,-0.35135 z"
     inkscape:connector-curvature="0" />
  <path
     style="fill:#ffffff;fill-opacity:1;fill-rule:evenodd;stroke:#000000;stroke-width:10;stroke-miterlimit:4;stroke-opacity:1;stroke-dasharray:none"
     id="path214"
     d="m 486.83822,122.16408 c 6.54493,1.06731 13.09516,2.11359 19.64596,3.15208 10.54426,1.54555 21.04685,3.34964 31.57281,5.01871 9.03567,1.42976 18.07442,2.79511 27.15516,3.91021 4.50202,0.60636 8.98478,1.35099 13.51134,1.75428 1.68161,0.10637 0.86334,-0.006 2.45643,0.3246 0,0 -0.63201,0.43996 -0.63201,0.43996 l 0,0 c -1.58628,-0.32043 -0.77051,-0.20975 -2.44897,-0.31935 -4.51682,-0.41472 -8.98914,-1.16878 -13.48208,-1.77805 -9.07352,-1.12529 -18.10643,-2.49015 -27.13501,-3.92746 -10.53053,-1.67191 -21.03895,-3.47257 -31.58996,-5.00663 -6.56383,-1.0374 -13.12622,-2.08468 -19.68839,-3.12607 0,0 0.63472,-0.44228 0.63472,-0.44228 z"
     inkscape:connector-curvature="0" />
  <path
     style="fill:#ffffff;fill-opacity:1;fill-rule:evenodd;stroke:#000000;stroke-width:10;stroke-miterlimit:4;stroke-opacity:1;stroke-dasharray:none"
     id="path216"
     d="m 613.53082,114.29631 c -0.33213,3.30594 -0.29118,6.63636 -0.58667,9.94452 -0.14745,1.65074 -0.63316,5.33138 -0.84169,6.96535 -0.9019,6.44458 -1.87777,12.87768 -2.86406,19.30975 -0.44414,3.07848 -0.24116,1.60024 -0.61368,4.43405 0,0 -0.67896,0.33476 -0.67896,0.33476 l 0,0 c 0.37911,-2.83818 0.17293,-1.35782 0.62311,-4.44044 0.99314,-6.4327 1.97448,-12.86658 2.87503,-19.31303 0.21432,-1.6796 0.68816,-5.26118 0.83816,-6.95818 0.29204,-3.30392 0.24747,-6.62918 0.55581,-9.93236 0,0 0.69295,-0.34442 0.69295,-0.34442 z"
     inkscape:connector-curvature="0" />
  <path
     style="fill:#ffffff;fill-opacity:1;fill-rule:evenodd;stroke:#000000;stroke-width:10;stroke-miterlimit:4;stroke-opacity:1;stroke-dasharray:none"
     id="path218"
     d="m 634.62665,120.00859 c -1.23631,5.59824 -2.22556,11.24591 -3.10265,16.91026 -1.02014,5.41323 -1.9927,10.8351 -2.59555,16.31246 -0.42208,2.90921 -0.76199,5.82728 -1.2225,8.73031 -0.0621,0.41977 -0.12422,0.83955 -0.18633,1.25932 0,0 -0.69011,0.33894 -0.69011,0.33894 l 0,0 c 0.0623,-0.42016 0.1246,-0.84032 0.1869,-1.26048 0.46087,-2.90382 0.80378,-5.82212 1.23265,-8.7313 0.61086,-5.4812 1.5948,-10.90612 2.61254,-16.32445 0.87575,-5.65996 1.86536,-11.30205 3.07018,-16.90218 0,0 0.69487,-0.33288 0.69487,-0.33288 z"
     inkscape:connector-curvature="0" />
  <path
     style="fill:#ffffff;fill-opacity:1;fill-rule:evenodd;stroke:#000000;stroke-width:10;stroke-miterlimit:4;stroke-opacity:1;stroke-dasharray:none"
     id="path220"
     d="m 19.360842,243.01311 c -0.243939,-5.64601 1.025202,-11.18095 1.907714,-16.72276 1.190042,-7.79923 3.075024,-15.45055 5.313497,-23.00679 0.20612,-0.28563 1.204273,-4.76311 1.608097,-4.97574 1.203365,-0.63362 1.235809,0.85466 1.333444,1.37674 0.104433,0.55844 0.160445,1.12485 0.240668,1.68727 0.357938,4.7395 0.984813,9.44452 1.673321,14.14491 0.538625,4.01382 1.635972,7.89843 2.624549,11.81317 0.971634,2.58329 1.821863,5.17535 2.233889,7.90822 0.297352,2.74312 1.055819,5.40278 1.466944,8.13302 0.335246,1.10144 -0.213544,4.34135 1.385322,4.75129 0.212969,0.0546 0.426684,-0.10625 0.640026,-0.15938 0.390434,-0.74918 1.008258,-1.34793 1.443286,-2.06686 1.064357,-1.75897 1.968583,-3.9078 2.827993,-5.74643 2.781198,-5.95012 1.001402,-1.93379 3.744452,-8.36113 3.204151,-8.0598 5.919436,-16.31864 7.914246,-24.76062 1.012233,-3.77319 1.478046,-7.66086 2.386371,-11.45388 0.06866,-0.32679 0.137323,-0.65358 0.205985,-0.98037 0,0 0.695842,-0.33661 0.695842,-0.33661 l 0,0 c -0.06865,0.32765 -0.137302,0.6553 -0.205952,0.98294 -0.924239,3.79666 -1.401406,7.68994 -2.418669,11.46902 -2.004624,8.44766 -4.730309,16.71083 -7.928647,24.78103 -2.770819,6.5197 -0.923232,2.326 -3.725432,8.35472 -1.082837,2.32964 -2.062428,5.40585 -3.912571,7.30825 -0.484738,0.49843 -1.098175,0.85301 -1.647262,1.27951 -0.22578,0.0341 -0.459611,0.17107 -0.677339,0.10227 -1.626494,-0.51394 -1.067781,-3.61576 -1.406529,-4.80502 -0.407674,-2.73095 -1.167807,-5.39 -1.467592,-8.13265 -0.409152,-2.73111 -1.254551,-5.32274 -2.226041,-7.90396 -0.982189,-3.9202 -2.080308,-7.80882 -2.614574,-11.82716 -0.687939,-4.69879 -1.32233,-9.40104 -1.685875,-14.13851 -0.08107,-0.55903 -0.138454,-1.12201 -0.243198,-1.67709 -0.0757,-0.40115 -0.306548,-0.77989 -0.297455,-1.18802 0.007,-0.31402 0.62593,-1.01485 0.343474,-0.87746 -0.385236,0.18738 -1.468234,4.70383 -1.640007,4.98085 -2.256956,7.552 -4.148652,15.20281 -5.331496,23.00471 -0.874035,5.53012 -2.141536,11.05693 -1.868371,16.68987 0,0 -0.69211,0.35265 -0.69211,0.35265 z"
     inkscape:connector-curvature="0" />
  <path
     style="fill:#ffffff;fill-opacity:1;fill-rule:evenodd;stroke:#000000;stroke-width:10;stroke-miterlimit:4;stroke-opacity:1;stroke-dasharray:none"
     id="path226"
     d="m 81.53719,202.57974 c -0.01102,3.69973 -0.0062,7.39948 -0.0064,11.09922 0.0013,3.26617 0.0014,6.53234 0.003,9.79851 -4.98e-4,2.71346 0.0012,5.42691 0.0014,8.14037 -4.65e-4,2.39486 9e-5,4.78971 0.0013,7.18456 1.62e-4,0.32884 3.24e-4,0.65769 4.86e-4,0.98653 0,0 -0.688952,0.35104 -0.688952,0.35104 l 0,0 c 1.62e-4,-0.32901 3.24e-4,-0.65802 4.86e-4,-0.98703 0.0012,-2.39529 0.0018,-4.79059 0.0013,-7.18588 2.07e-4,-2.71392 0.0019,-5.42784 0.0014,-8.14176 0.0016,-3.26719 0.0016,-6.53437 0.003,-9.80156 -2.5e-4,-3.69755 0.0046,-7.39512 -0.0064,-11.09266 0,0 0.689548,-0.35134 0.689548,-0.35134 z"
     inkscape:connector-curvature="0" />
  <path
     style="fill:#ffffff;fill-opacity:1;fill-rule:evenodd;stroke:#000000;stroke-width:10;stroke-miterlimit:4;stroke-opacity:1;stroke-dasharray:none"
     id="path232"
     d="m 113.3502,239.8514 c 1.24643,-5.58126 1.83672,-11.27634 2.69531,-16.92365 1.14119,-7.03167 1.8552,-14.1531 3.66262,-21.05635 0.20423,-0.38657 1.13361,-6.20325 2.76481,-4.86078 0.2917,0.24007 0.1774,0.73446 0.2661,1.10169 1.04997,5.89157 3.02266,11.56265 4.68094,17.29902 1.90532,5.89439 4.04092,11.72433 6.37074,17.46548 0.64623,1.14296 1.25611,4.24127 3.16225,4.01218 0.15859,-0.0191 0.26883,-0.177 0.38079,-0.29094 0.48897,-0.49765 0.94523,-1.02642 1.41784,-1.53963 4.82776,-6.99953 7.69806,-15.0668 10.54705,-23.01034 1.60981,-4.89616 0.83831,-2.54746 2.31479,-7.04601 0,0 0.66652,-0.31331 0.66652,-0.31331 l 0,0 c -1.48851,4.50399 -0.71175,2.15225 -2.33006,7.05529 -2.85282,7.93902 -5.71526,15.99954 -10.50087,23.02163 -1.03157,1.14726 -1.57741,2.07222 -3.13151,2.56691 -1.53386,0.48825 -2.79164,-3.25864 -3.18531,-4.08773 -2.31622,-5.75071 -4.44227,-11.58708 -6.35449,-17.48319 -1.65724,-5.73474 -3.63534,-11.40044 -4.7175,-17.28308 -0.0842,-0.3527 -0.16847,-0.7054 -0.25271,-1.0581 0.12432,-0.22011 0.37366,-0.40755 0.37296,-0.66034 -0.001,-0.41991 -0.45261,0.41536 -0.74652,1.24605 -0.34903,0.9865 -0.78108,2.5945 -1.04836,3.54174 -1.83204,6.90074 -2.55415,14.02569 -3.69107,21.06131 -0.85046,5.64043 -1.43284,11.3266 -2.6441,16.90671 0,0 -0.70022,0.33544 -0.70022,0.33544 z"
     inkscape:connector-curvature="0" />
  <path
     style="fill:#ffffff;fill-opacity:1;fill-rule:evenodd;stroke:#000000;stroke-width:10;stroke-miterlimit:4;stroke-opacity:1;stroke-dasharray:none"
     id="path234"
     d="m 206.08542,204.84995 c -0.30536,4.87082 -1.05117,9.69842 -1.80862,14.51536 -0.48119,3.04112 -0.8078,6.10246 -1.08188,9.16803 0,0 -0.67994,0.33877 -0.67994,0.33877 l 0,0 c 0.28009,-3.06891 0.61106,-6.13365 1.09208,-9.17863 0.7587,-4.8079 1.50446,-9.62768 1.78753,-14.49154 0,0 0.69083,-0.35199 0.69083,-0.35199 z"
     inkscape:connector-curvature="0" />
  <path
     style="fill:#ffffff;fill-opacity:1;fill-rule:evenodd;stroke:#000000;stroke-width:10;stroke-miterlimit:4;stroke-opacity:1;stroke-dasharray:none"
     id="path236"
     d="m 226.58124,204.75533 c -0.0124,3.91651 -0.011,7.83306 -0.009,11.74958 0.003,2.73943 0.006,5.47885 0.006,8.21827 5.6e-4,1.90301 -1.3e-4,3.80602 1.6e-4,5.70903 0,0 -0.68685,0.34997 -0.68685,0.34997 l 0,0 c 2.8e-4,-1.90306 -4e-4,-3.80612 1.5e-4,-5.70919 -5e-5,-2.74138 0.003,-5.48277 0.006,-8.22415 0.002,-3.91362 0.004,-7.82726 -0.009,-11.74086 0,0 0.69211,-0.35265 0.69211,-0.35265 z"
     inkscape:connector-curvature="0" />
  <path
     style="fill:#ffffff;fill-opacity:1;fill-rule:evenodd;stroke:#000000;stroke-width:10;stroke-miterlimit:4;stroke-opacity:1;stroke-dasharray:none"
     id="path238"
     d="m 241.55592,196.46276 c -0.0163,5.86515 -0.016,11.73033 -0.0152,17.5955 -0.0166,5.62144 0.11879,11.24129 -0.2151,16.85516 0,0 -0.67524,0.33891 -0.67524,0.33891 l 0,0 c 0.34774,-5.61484 0.21722,-11.23643 0.23381,-16.85955 7.9e-4,-5.86 0.001,-11.72001 -0.0152,-17.57998 0,0 0.68699,-0.35004 0.68699,-0.35004 z"
     inkscape:connector-curvature="0" />
  <path
     style="fill:#ffffff;fill-opacity:1;fill-rule:evenodd;stroke:#000000;stroke-width:10;stroke-miterlimit:4;stroke-opacity:1;stroke-dasharray:none"
     id="path240"
     d="m 263.62828,191.63849 c 0.0111,6.58241 -0.21211,13.16766 -0.68431,19.73254 -0.37857,5.57028 -1.05535,11.10952 -1.73354,16.64883 0,0 -0.67264,0.33237 -0.67264,0.33237 l 0,0 c 0.69182,-5.54149 1.37991,-11.08345 1.75972,-16.65762 0.46815,-6.55538 0.69067,-13.13265 0.6425,-19.70543 0,0 0.68827,-0.35069 0.68827,-0.35069 z"
     inkscape:connector-curvature="0" />
  <path
     style="fill:#ffffff;fill-opacity:1;fill-rule:evenodd;stroke:#000000;stroke-width:10;stroke-miterlimit:4;stroke-opacity:1;stroke-dasharray:none"
     id="path242"
     d="m 194.28985,222.0798 c 5.17545,-0.0372 10.37125,0.16637 15.5346,-0.30575 1.44795,-0.13239 2.88507,-0.36429 4.32761,-0.54643 6.14002,-0.82183 12.11191,-2.4703 18.17113,-3.69915 4.71845,-0.95693 6.273,-1.17604 11.09934,-1.98913 11.53574,-2.16352 23.22871,-3.19799 34.9022,-4.27638 4.07001,-0.37865 8.1477,-0.66105 12.22901,-0.88129 0,0 -0.60873,0.44722 -0.60873,0.44722 l 0,0 c -4.07,0.21217 -8.13641,0.48735 -12.19522,0.85988 -11.66933,1.06427 -23.35662,2.10145 -34.88589,4.27089 -4.84578,0.82001 -6.37107,1.03514 -11.10762,1.99943 -6.062,1.23414 -12.03836,2.88129 -18.18274,3.70003 -1.44461,0.18156 -2.88388,0.41239 -4.33383,0.54468 -5.17756,0.47237 -10.38738,0.26929 -15.57712,0.33173 0,0 0.62726,-0.45573 0.62726,-0.45573 z"
     inkscape:connector-curvature="0" />
  <path
     style="fill:#ffffff;fill-opacity:1;fill-rule:evenodd;stroke:#000000;stroke-width:10;stroke-miterlimit:4;stroke-opacity:1;stroke-dasharray:none"
     id="path244"
     d="m 339.21002,188.48853 c -0.37966,5.63152 -0.52989,11.27358 -0.84568,16.90916 -0.38741,4.46162 -0.27373,8.96091 -0.6876,13.41818 -0.29101,1.99225 -0.53806,3.98477 -0.65564,5.99504 -0.0456,0.86931 -0.06,1.73968 -0.0748,2.6099 0,0 -0.69146,0.35084 -0.69146,0.35084 l 0,0 c 0.0147,-0.87135 0.0292,-1.74284 0.0745,-2.61329 0.11665,-2.01262 0.35899,-4.00777 0.66108,-6.00091 0.43298,-4.45927 0.32239,-8.9637 0.71449,-13.42837 0.3159,-5.63088 0.46909,-11.26719 0.81381,-16.89614 0,0 0.69136,-0.34441 0.69136,-0.34441 z"
     inkscape:connector-curvature="0" />
  <path
     style="fill:#ffffff;fill-opacity:1;fill-rule:evenodd;stroke:#000000;stroke-width:10;stroke-miterlimit:4;stroke-opacity:1;stroke-dasharray:none"
     id="path246"
     d="m 367.12617,190.58955 c -2.69516,4.70235 -4.94911,9.62132 -6.74466,14.73111 -1.23463,4.22601 -2.7741,8.36729 -3.83603,12.64221 -0.57222,2.3951 -0.66845,4.85783 -0.71327,7.30839 -0.01,1.47241 -0.008,0.74066 -0.007,2.19524 0,0 -0.68762,0.35038 -0.68762,0.35038 l 0,0 c -1.8e-4,-1.45545 -0.002,-0.72326 0.007,-2.19655 0.0457,-2.4566 0.13835,-4.92604 0.71224,-7.32715 1.06341,-4.28107 2.62046,-8.42348 3.85125,-12.65729 1.79408,-5.10851 4.04957,-10.01999 6.70798,-14.74007 0,0 0.71071,-0.30627 0.71071,-0.30627 z"
     inkscape:connector-curvature="0" />
  <path
     style="fill:#ffffff;fill-opacity:1;fill-rule:evenodd;stroke:#000000;stroke-width:10;stroke-miterlimit:4;stroke-opacity:1;stroke-dasharray:none"
     id="path248"
     d="m 383.44814,189.77809 c -0.0173,5.30502 -0.0165,10.61009 -0.0175,15.91514 -0.20141,5.76743 -0.94507,11.48824 -1.63894,17.21016 -0.41648,2.74287 -0.20981,1.39936 -0.6194,4.03064 0,0 -0.68104,0.33381 -0.68104,0.33381 l 0,0 c 0.41277,-2.63199 0.2041,-1.28841 0.62552,-4.03081 0.70097,-5.72123 1.45416,-11.44118 1.65667,-17.20895 -9.2e-4,-5.29911 -1.8e-4,-10.59825 -0.0175,-15.89735 0,0 0.69211,-0.35264 0.69211,-0.35264 z"
     inkscape:connector-curvature="0" />
  <path
     style="fill:#ffffff;fill-opacity:1;fill-rule:evenodd;stroke:#000000;stroke-width:10;stroke-miterlimit:4;stroke-opacity:1;stroke-dasharray:none"
     id="path252"
     d="m 401.57784,193.02581 c -0.0151,4.56758 -0.0126,9.1352 -0.0102,13.7028 0.003,3.39136 0.005,6.78273 0.007,10.17409 -4.8e-4,1.8159 -9e-5,3.6318 -3.7e-4,5.4477 0,0 -0.68363,0.34833 -0.68363,0.34833 l 0,0 c -2.8e-4,-1.81578 1.1e-4,-3.63155 -3.7e-4,-5.44733 0.002,-3.39375 0.004,-6.7875 0.007,-10.18124 0.002,-4.56412 0.005,-9.12826 -0.0103,-13.69236 0,0 0.69083,-0.35199 0.69083,-0.35199 z"
     inkscape:connector-curvature="0" />
  <path
     style="fill:#ffffff;fill-opacity:1;fill-rule:evenodd;stroke:#000000;stroke-width:10;stroke-miterlimit:4;stroke-opacity:1;stroke-dasharray:none"
     id="path254"
     d="m 321.99054,211.04394 c 6.4611,0.0137 12.92222,0.0131 19.38333,0.0166 11.55473,0.007 23.10946,0.007 34.66419,0.007 8.59486,5.6e-4 17.18973,-0.006 25.78458,-0.0158 1.96739,0.0278 3.93533,-0.0869 5.89631,0.0905 0,0 -0.62861,0.44825 -0.62861,0.44825 l 0,0 c -1.95378,-0.17093 -3.91441,-0.0666 -5.87416,-0.0981 -8.58039,-0.0103 -17.16078,-0.0163 -25.74118,-0.0158 -11.56089,-1.6e-4 -23.12179,-10e-6 -34.68268,0.007 -6.47635,0.004 -12.9527,0.003 -19.42904,0.0166 0,0 0.62726,-0.45573 0.62726,-0.45573 z"
     inkscape:connector-curvature="0" />
  <path
     style="fill:#ffffff;fill-opacity:1;fill-rule:evenodd;stroke:#000000;stroke-width:10;stroke-miterlimit:4;stroke-opacity:1;stroke-dasharray:none"
     id="path256"
     d="m 452.81578,189.8727 c -0.0188,5.36481 -0.016,10.72966 -0.0147,16.09449 5e-4,2.41702 0.003,4.83403 0.006,7.25105 0,0 -0.67446,0.34365 -0.67446,0.34365 l 0,0 c 0.003,-2.41921 0.006,-4.83841 0.006,-7.25763 10e-4,-5.35985 0.004,-10.71973 -0.0146,-16.07956 0,0 0.69083,-0.352 0.69083,-0.352 z"
     inkscape:connector-curvature="0" />
  <path
     style="fill:#ffffff;fill-opacity:1;fill-rule:evenodd;stroke:#000000;stroke-width:10;stroke-miterlimit:4;stroke-opacity:1;stroke-dasharray:none"
     id="path258"
     d="m 474.51562,186.03942 c -2.05305,5.88869 -3.1031,12.02804 -3.94522,18.18563 -0.57945,4.65834 -0.85139,9.34497 -1.06814,14.03138 0,0 -0.66339,0.3341 -0.66339,0.3341 l 0,0 c 0.2244,-4.69054 0.50275,-9.38115 1.07925,-14.04419 0.83715,-6.15397 1.87962,-12.28693 3.89609,-18.18253 0,0 0.70141,-0.32439 0.70141,-0.32439 z"
     inkscape:connector-curvature="0" />
  <path
     style="fill:#ffffff;fill-opacity:1;fill-rule:evenodd;stroke:#000000;stroke-width:10;stroke-miterlimit:4;stroke-opacity:1;stroke-dasharray:none"
     id="path260"
     d="m 489.8641,189.96732 c -0.14349,5.17781 -0.78415,10.33552 -1.15321,15.50444 -0.24949,3.82296 -0.37505,7.65235 -0.42312,11.48269 -0.0186,1.94969 -0.011,3.89948 -0.006,5.84921 0.002,1.03857 0.0359,0.53753 -0.0879,1.50391 0,0 -0.69742,0.34379 -0.69742,0.34379 l 0,0 c 0.1326,-0.9574 0.0963,-0.45927 0.0943,-1.49538 -0.004,-1.95133 -0.009,-3.90273 0.0128,-5.85398 0.054,-3.83488 0.18971,-7.66832 0.43936,-11.49582 0.37117,-5.16209 1.0187,-10.31542 1.13177,-15.48752 0,0 0.68955,-0.35134 0.68955,-0.35134 z"
     inkscape:connector-curvature="0" />
</svg>
