<?xml version="1.0" encoding="UTF-8" standalone="no"?>
<!-- Created with Inkscape (http://www.inkscape.org/) -->

<svg
   xmlns:dc="http://purl.org/dc/elements/1.1/"
   xmlns:cc="http://creativecommons.org/ns#"
   xmlns:rdf="http://www.w3.org/1999/02/22-rdf-syntax-ns#"
   xmlns:svg="http://www.w3.org/2000/svg"
   xmlns="http://www.w3.org/2000/svg"
   xmlns:sodipodi="http://sodipodi.sourceforge.net/DTD/sodipodi-0.dtd"
   xmlns:inkscape="http://www.inkscape.org/namespaces/inkscape"
   width="210mm"
   height="297mm"
   id="svg2"
   version="1.1"
   inkscape:version="0.48.4 r9939"
   sodipodi:docname="Balken.svg">
  <defs
     id="defs4" />
  <sodipodi:namedview
     id="base"
     pagecolor="#ffffff"
     bordercolor="#666666"
     borderopacity="1.0"
     inkscape:pageopacity="0.0"
     inkscape:pageshadow="2"
     inkscape:zoom="0.35"
     inkscape:cx="350"
     inkscape:cy="520"
     inkscape:document-units="px"
     inkscape:current-layer="layer1"
     showgrid="false"
     inkscape:window-width="1366"
     inkscape:window-height="741"
     inkscape:window-x="0"
     inkscape:window-y="0"
     inkscape:window-maximized="1" />
  <metadata
     id="metadata7">
    <rdf:RDF>
      <cc:Work
         rdf:about="">
        <dc:format>image/svg+xml</dc:format>
        <dc:type
           rdf:resource="http://purl.org/dc/dcmitype/StillImage" />
        <dc:title></dc:title>
      </cc:Work>
    </rdf:RDF>
  </metadata>
  <g
     inkscape:label="Ebene 1"
     inkscape:groupmode="layer"
     id="layer1">
    <g
       transform="matrix(0,1.25,1.25,0,-1.2651375,802.79022)"
       inkscape:label="ink_ext_XXXXXX"
       id="g2993">
      <g
         transform="scale(0.1,0.1)"
         id="g2995">
        <path
           id="path2997"
           style="fill:#000000;fill-opacity:1;fill-rule:evenodd;stroke:none"
           d="m 181.801,6231.23 421.558,0 c 98.481,0 177.77,-79.26 177.77,-177.78 l 0,-5861.559 c 0,-98.4808 -79.289,-177.7699 -177.77,-177.7699 l -421.558,0 C 83.2813,14.1211 3.98047,93.4102 3.98047,191.891 l 0,5861.559 c 0,98.52 79.30083,177.78 177.82053,177.78"
           inkscape:connector-curvature="0" />
        <path
           id="path2999"
           style="fill:none;stroke:#000000;stroke-width:8;stroke-linecap:butt;stroke-linejoin:miter;stroke-miterlimit:4;stroke-opacity:1;stroke-dasharray:none"
           d="m 181.801,6231.23 421.558,0 c 98.481,0 177.77,-79.26 177.77,-177.78 l 0,-5861.559 c 0,-98.4808 -79.289,-177.7699 -177.77,-177.7699 l -421.558,0 C 83.2813,14.1211 3.98047,93.4102 3.98047,191.891 l 0,5861.559 c 0,98.52 79.30083,177.78 177.82053,177.78 z"
           inkscape:connector-curvature="0" />
      </g>
    </g>
    <g
       transform="matrix(0,1.25,1.25,0,-1.2521262,954.22562)"
       inkscape:label="ink_ext_XXXXXX"
       id="g3013">
      <g
         transform="scale(0.1,0.1)"
         id="g3015">
        <path
           id="path3017"
           style="fill:#000000;fill-opacity:1;fill-rule:evenodd;stroke:none"
           d="m 180.781,1562.18 423.438,0 c 99.101,0 178.871,-79.77 178.871,-178.83 l 0,-1192.498 C 783.09,91.7891 703.32,12.0195 604.219,12.0195 l -423.438,0 C 81.6797,12.0195 1.91016,91.7891 1.91016,190.852 l 0,1192.498 c 0,99.06 79.76954,178.83 178.87084,178.83"
           inkscape:connector-curvature="0" />
        <path
           id="path3019"
           style="fill:none;stroke:#000000;stroke-width:4.00498009;stroke-linecap:butt;stroke-linejoin:miter;stroke-miterlimit:4;stroke-opacity:1;stroke-dasharray:none"
           d="m 180.781,1562.18 423.438,0 c 99.101,0 178.871,-79.77 178.871,-178.83 l 0,-1192.498 C 783.09,91.7891 703.32,12.0195 604.219,12.0195 l -423.438,0 C 81.6797,12.0195 1.91016,91.7891 1.91016,190.852 l 0,1192.498 c 0,99.06 79.76954,178.83 178.87084,178.83 z"
           inkscape:connector-curvature="0" />
      </g>
    </g>
  </g>
</svg>
