<?xml version="1.0" encoding="UTF-8" standalone="no"?>
<!-- Created with Inkscape (http://www.inkscape.org/) -->

<svg
   xmlns:dc="http://purl.org/dc/elements/1.1/"
   xmlns:cc="http://creativecommons.org/ns#"
   xmlns:rdf="http://www.w3.org/1999/02/22-rdf-syntax-ns#"
   xmlns:svg="http://www.w3.org/2000/svg"
   xmlns="http://www.w3.org/2000/svg"
   xmlns:sodipodi="http://sodipodi.sourceforge.net/DTD/sodipodi-0.dtd"
   xmlns:inkscape="http://www.inkscape.org/namespaces/inkscape"
   width="210mm"
   height="297mm"
   id="svg2"
   version="1.1"
   inkscape:version="0.48.4 r9939"
   sodipodi:docname="Balken.svg">
  <defs
     id="defs4" />
  <sodipodi:namedview
     id="base"
     pagecolor="#ffffff"
     bordercolor="#666666"
     borderopacity="1.0"
     inkscape:pageopacity="0.0"
     inkscape:pageshadow="2"
     inkscape:zoom="0.35"
     inkscape:cx="350"
     inkscape:cy="520"
     inkscape:document-units="px"
     inkscape:current-layer="layer1"
     showgrid="false"
     inkscape:window-width="1366"
     inkscape:window-height="741"
     inkscape:window-x="0"
     inkscape:window-y="0"
     inkscape:window-maximized="1" />
  <metadata
     id="metadata7">
    <rdf:RDF>
      <cc:Work
         rdf:about="">
        <dc:format>image/svg+xml</dc:format>
        <dc:type
           rdf:resource="http://purl.org/dc/dcmitype/StillImage" />
        <dc:title />
      </cc:Work>
    </rdf:RDF>
  </metadata>
  <g
     inkscape:label="Ebene 1"
     inkscape:groupmode="layer"
     id="layer1">
    <g
       transform="matrix(0,1.25,1.1259253,0,-1.5899304,802.79022)"
       inkscape:label="ink_ext_XXXXXX"
       id="g2993">
      <path
         inkscape:connector-curvature="0"
         d="m 18.1801,623.123 42.1558,0 c 9.8481,0 17.777,-7.926 17.777,-17.778 l 0,-586.1559 c 0,-9.84808 -7.9289,-17.77699 -17.777,-17.77699 l -42.1558,0 c -9.85197,0 -17.782053,7.92891 -17.782053,17.77699 l 0,586.1559 c 0,9.852 7.930083,17.778 17.782053,17.778"
         style="fill:#000000;fill-opacity:1;fill-rule:evenodd;stroke:none"
         id="path2997" />
    </g>
    <path
       id="path3017"
       style="fill:#000000;fill-opacity:1;fill-rule:evenodd;stroke:none"
       d="m 100,979.68037 0,52.92983 c 0,12.3876 -5.145919,22.3589 -11.536225,22.3589 l -76.927385,0 C 5.1458932,1054.9691 0,1044.9978 0,1032.6102 l 0,-52.92983 c 0,-12.3876 5.1458932,-22.3588 11.53639,-22.3588 l 76.927385,0 c 6.390306,0 11.536225,9.9712 11.536225,22.3588"
       inkscape:connector-curvature="0" />
  </g>
</svg>
