<?xml version="1.0" encoding="UTF-8" standalone="no"?>
<!-- Created with Inkscape (http://www.inkscape.org/) -->

<svg
   xmlns:dc="http://purl.org/dc/elements/1.1/"
   xmlns:cc="http://creativecommons.org/ns#"
   xmlns:rdf="http://www.w3.org/1999/02/22-rdf-syntax-ns#"
   xmlns:svg="http://www.w3.org/2000/svg"
   xmlns="http://www.w3.org/2000/svg"
   xmlns:sodipodi="http://sodipodi.sourceforge.net/DTD/sodipodi-0.dtd"
   xmlns:inkscape="http://www.inkscape.org/namespaces/inkscape"
   width="297mm"
   height="210mm"
   id="svg2985"
   version="1.1"
   inkscape:version="0.48.4 r9939"
   sodipodi:docname="MVP0.eps">
  <defs
     id="defs2987" />
  <sodipodi:namedview
     inkscape:document-units="mm"
     pagecolor="#ffffff"
     bordercolor="#666666"
     borderopacity="1.0"
     inkscape:pageopacity="0.0"
     inkscape:pageshadow="2"
     inkscape:zoom="0.5"
     inkscape:cx="967.66358"
     inkscape:cy="404.8764"
     inkscape:current-layer="layer1"
     id="namedview2989"
     showgrid="false"
     inkscape:window-width="1366"
     inkscape:window-height="741"
     inkscape:window-x="0"
     inkscape:window-y="0"
     inkscape:window-maximized="1" />
  <metadata
     id="metadata2991">
    <rdf:RDF>
      <cc:Work
         rdf:about="">
        <dc:format>image/svg+xml</dc:format>
        <dc:type
           rdf:resource="http://purl.org/dc/dcmitype/StillImage" />
        <dc:title></dc:title>
      </cc:Work>
    </rdf:RDF>
  </metadata>
  <g
     inkscape:label="Layer 1"
     inkscape:groupmode="layer"
     id="layer1">
    <path
       style="fill:#000000"
       d="m 349.5625,231.40625 c -56.04897,0.42396 -104.1875,20.95421 -104.1875,47.15625 0,15.2573 15.09871,28.69047 42.46875,37.78125 14.28834,4.74578 31.38783,7.96171 47.96875,9.03125 64.33313,4.14979 121.5625,-17.88544 121.5625,-46.8125 0,-7.10803 -2.81519,-12.89038 -9.46875,-19.5 -13.2825,-13.1948 -41.73103,-23.41589 -73.96875,-26.5625 -8.21255,-0.8016 -16.368,-1.15432 -24.375,-1.09375 z m -104.09375,66.53125 -0.0625,17.78125 c -0.0442,16.89573 0.0986,18.03974 2.40625,22.59375 8.97674,17.71474 42.4992,32.33437 82.5625,36 55.51982,5.07985 112.0215,-11.25162 124.5625,-36 2.30765,-4.55401 2.4192,-5.69802 2.375,-22.59375 l -0.0312,-17.78125 -2.40625,4.625 c -7.13256,13.69336 -30.3319,26.25701 -59.65625,32.28125 -26.09116,5.36002 -61.59634,5.36002 -87.6875,0 -29.40579,-6.04097 -52.50389,-18.54986 -59.65625,-32.28125 l -2.40625,-4.625 z m -0.125,49 0.25,19.125 0.28125,19.15625 3.875,5.625 c 9.78636,14.19988 33.3573,25.2991 64.75,30.5 6.80969,1.12817 14.625,2.23886 17.375,2.46875 12.66441,1.05869 44.20204,-0.29369 56.40625,-2.40625 31.86235,-5.51542 54.96614,-16.41159 64.71875,-30.5625 l 3.875,-5.625 0.28125,-19.15625 0.28125,-19.125 -2.3125,4.28125 c -9.04943,16.69443 -34.77152,29.20509 -71.75,34.875 -8.17235,1.25307 -17.43189,1.78125 -32,1.78125 -26.6306,0 -42.2227,-2.2348 -63.5,-9.09375 -18.33371,-5.91006 -34.9746,-17.26085 -40.28125,-27.46875 l -2.25,-4.375 z m 0.0312,49 0,17.78125 c -6.1e-4,13.65573 0.36303,18.64157 1.53125,21.4375 7.37659,17.65468 39.25768,32.76515 78.46875,37.1875 4.125,0.46523 14.92163,0.89745 24,0.96875 43.59106,0.34262 80.96617,-10.10422 98.75,-27.59375 8.52777,-8.38665 9.19395,-10.67022 9.21875,-31.78125 l 0.0312,-18 -2.1875,4.40625 c -10.60762,21.43027 -54.43136,37.09375 -103.8125,37.09375 -49.38114,0 -93.20488,-15.66348 -103.8125,-37.09375 l -2.1875,-4.40625 z"
       id="path4191"
       inkscape:connector-curvature="0" />
    <g
       id="layer1-7"
       inkscape:label="Layer 1"
       transform="matrix(0.27628362,0,0,0.27628362,37.905627,107.85209)">
      <path
         id="rect3797"
         d="m 68,143.375 0,364 409,0 0,-364 -409,0 z m 12,71 121,0 0,48 -121,0 0,-48 z m 131.5,0 121,0 0,48 -121,0 0,-48 z m 133,0 121,0 0,48 -121,0 0,-48 z m -264.25,58.5 121,0 0,48 -121,0 0,-48 z m 131.5,0 121,0 0,48 -121,0 0,-48 z m 133,0 121,0 0,48 -121,0 0,-48 z m -263.5,59 121,0 0,48 -121,0 0,-48 z m 131.5,0 121,0 0,48 -121,0 0,-48 z m 133,0 121,0 0,48 -121,0 0,-48 z m -265.5,60 121,0 0,48 -121,0 0,-48 z m 131.5,0 121,0 0,48 -121,0 0,-48 z m 133,0 121,0 0,48 -121,0 0,-48 z m -264.5,57 121,0 0,48 -121,0 0,-48 z m 131.5,0 121,0 0,48 -121,0 0,-48 z m 133,0 121,0 0,48 -121,0 0,-48 z"
         style="fill:#000000;fill-opacity:1"
         inkscape:connector-curvature="0" />
    </g>
    <g
       id="layer1-7-3"
       inkscape:label="Layer 1"
       transform="matrix(0.27628362,0,0,0.27628362,16.645785,285.01744)">
      <path
         id="rect3797-5"
         d="m 68,143.375 0,364 409,0 0,-364 -409,0 z m 12,71 121,0 0,48 -121,0 0,-48 z m 131.5,0 121,0 0,48 -121,0 0,-48 z m 133,0 121,0 0,48 -121,0 0,-48 z m -264.25,58.5 121,0 0,48 -121,0 0,-48 z m 131.5,0 121,0 0,48 -121,0 0,-48 z m 133,0 121,0 0,48 -121,0 0,-48 z m -263.5,59 121,0 0,48 -121,0 0,-48 z m 131.5,0 121,0 0,48 -121,0 0,-48 z m 133,0 121,0 0,48 -121,0 0,-48 z m -265.5,60 121,0 0,48 -121,0 0,-48 z m 131.5,0 121,0 0,48 -121,0 0,-48 z m 133,0 121,0 0,48 -121,0 0,-48 z m -264.5,57 121,0 0,48 -121,0 0,-48 z m 131.5,0 121,0 0,48 -121,0 0,-48 z m 133,0 121,0 0,48 -121,0 0,-48 z"
         style="fill:#000000;fill-opacity:1"
         inkscape:connector-curvature="0" />
    </g>
    <g
       id="layer1-7-9"
       inkscape:label="Layer 1"
       transform="matrix(0.27628362,0,0,0.27628362,37.905627,462.1828)">
      <path
         id="rect3797-6"
         d="m 68,143.375 0,364 409,0 0,-364 -409,0 z m 12,71 121,0 0,48 -121,0 0,-48 z m 131.5,0 121,0 0,48 -121,0 0,-48 z m 133,0 121,0 0,48 -121,0 0,-48 z m -264.25,58.5 121,0 0,48 -121,0 0,-48 z m 131.5,0 121,0 0,48 -121,0 0,-48 z m 133,0 121,0 0,48 -121,0 0,-48 z m -263.5,59 121,0 0,48 -121,0 0,-48 z m 131.5,0 121,0 0,48 -121,0 0,-48 z m 133,0 121,0 0,48 -121,0 0,-48 z m -265.5,60 121,0 0,48 -121,0 0,-48 z m 131.5,0 121,0 0,48 -121,0 0,-48 z m 133,0 121,0 0,48 -121,0 0,-48 z m -264.5,57 121,0 0,48 -121,0 0,-48 z m 131.5,0 121,0 0,48 -121,0 0,-48 z m 133,0 121,0 0,48 -121,0 0,-48 z"
         style="fill:#000000;fill-opacity:1"
         inkscape:connector-curvature="0" />
    </g>
    <path
       style="fill:none;stroke:#000000;stroke-width:9.50314961;stroke-linecap:butt;stroke-linejoin:miter;stroke-opacity:1;stroke-miterlimit:4;stroke-dasharray:none"
       d="m 192,516.09448 c 0,0 72,-15 81,-28"
       id="path4282"
       inkscape:connector-curvature="0" />
    <path
       style="fill:none;stroke:#000000;stroke-width:10.45543671;stroke-linecap:butt;stroke-linejoin:miter;stroke-miterlimit:4;stroke-opacity:1;stroke-dasharray:none"
       d="m 158,354.09448 72,0"
       id="path4284"
       inkscape:connector-curvature="0" />
    <path
       style="fill:none;stroke:#000000;stroke-width:9.50314961;stroke-linecap:butt;stroke-linejoin:miter;stroke-opacity:1;stroke-miterlimit:4;stroke-dasharray:none"
       d="m 184,193.09448 c 0,0 41,27 52,40 11,13 11,14 11,14"
       id="path4286"
       inkscape:connector-curvature="0" />
    <path
       sodipodi:type="star"
       style="stroke-width:9.50314999;stroke-linecap:butt;stroke-miterlimit:4;stroke-dasharray:none"
       id="path4796"
       sodipodi:sides="3"
       sodipodi:cx="258"
       sodipodi:cy="151.09448"
       sodipodi:r1="24.207438"
       sodipodi:r2="12.103718"
       sodipodi:arg1="0.78539816"
       sodipodi:arg2="1.8325957"
       inkscape:flatsided="false"
       inkscape:rounded="0"
       inkscape:randomized="0"
       d="m 275.11724,168.21173 -20.24991,-5.42595 -20.24992,-5.42595 14.82397,-14.82397 14.82397,-14.82397 5.42594,20.24992 z"
       inkscape:transform-center-x="5.0539201"
       inkscape:transform-center-y="-1.1222202"
       transform="matrix(0.98576202,0.16814648,-0.16814648,0.98576202,9.079404,43.769488)" />
    <path
       sodipodi:type="star"
       style="stroke-width:9.50314999;stroke-linecap:butt;stroke-miterlimit:4;stroke-dasharray:none"
       id="path4796-2"
       sodipodi:sides="3"
       sodipodi:cx="258"
       sodipodi:cy="151.09448"
       sodipodi:r1="24.207438"
       sodipodi:r2="12.103718"
       sodipodi:arg1="0.78539816"
       sodipodi:arg2="1.8325957"
       inkscape:flatsided="false"
       inkscape:rounded="0"
       inkscape:randomized="0"
       d="m 275.11724,168.21173 -20.24991,-5.42595 -20.24992,-5.42595 14.82397,-14.82397 14.82397,-14.82397 5.42594,20.24992 z"
       inkscape:transform-center-x="-10.547143"
       transform="matrix(0.67272217,-0.73989518,0.73989518,0.67272217,-68.302484,443.46505)" />
    <path
       sodipodi:type="star"
       style="stroke-width:9.50314999;stroke-linecap:butt;stroke-miterlimit:4;stroke-dasharray:none"
       id="path4796-3"
       sodipodi:sides="3"
       sodipodi:cx="258"
       sodipodi:cy="151.09448"
       sodipodi:r1="24.207438"
       sodipodi:r2="12.103718"
       sodipodi:arg1="0.78539816"
       sodipodi:arg2="1.8325957"
       inkscape:flatsided="false"
       inkscape:rounded="0"
       inkscape:randomized="0"
       d="m 275.11724,168.21173 -20.24991,-5.42595 -20.24992,-5.42595 14.82397,-14.82397 14.82397,-14.82397 5.42594,20.24992 z"
       inkscape:transform-center-x="1.7989694"
       inkscape:transform-center-y="4.426688"
       transform="matrix(0.1123793,-0.99366538,0.99366538,0.1123793,93.9227,729.60248)" />
    <path
       style="fill:#000000;fill-opacity:1"
       d="M 571.34375 239.78125 L 571.34375 356.6875 L 571.34375 473.5625 L 688.21875 473.5625 L 805.09375 473.5625 L 805.09375 356.6875 L 805.09375 239.78125 L 688.21875 239.78125 L 571.34375 239.78125 z M 639.9375 318.34375 C 642.22268 318.33835 644.54598 318.62309 646.875 319.21875 C 657.19934 321.85929 664.83096 330.59233 666.34375 341.46875 C 668.11292 354.18859 659.14862 367.28879 646.65625 370.28125 C 639.6302 371.96431 632.76192 370.97576 626.75 367.375 C 611.9291 358.49823 609.39272 338.26352 621.5625 326.09375 C 626.60423 321.05203 633.08196 318.35995 639.9375 318.34375 z M 739.34375 321.5 L 739.59375 322.53125 C 739.73464 323.09819 739.79145 326.04902 739.71875 329.0625 L 739.59375 334.53125 L 711.375 334.65625 C 688.45228 334.75184 683.1241 334.64251 682.9375 334.15625 C 682.81121 333.82714 682.77305 330.90757 682.84375 327.65625 L 682.96875 321.75 L 711.15625 321.625 L 739.34375 321.5 z M 743.25 321.75 L 753.28125 321.75 L 763.3125 321.75 L 763.3125 328.15625 L 763.3125 334.53125 L 753.15625 334.65625 L 742.96875 334.78125 L 743.125 328.25 L 743.25 321.75 z M 641.40625 323.125 L 638.21875 323.1875 C 630.41787 323.34877 622.68698 329.09522 619.71875 336.9375 C 618.4689 340.23969 618.03938 346.11831 618.8125 349.4375 C 620.71027 357.58505 627.95166 364.66462 635.9375 366.1875 C 640.76834 367.10872 644.90177 366.53914 649.65625 364.28125 C 655.653 361.43341 660.74354 354.81877 661.5625 348.8125 L 661.84375 346.65625 L 651.875 346.53125 L 641.875 346.40625 L 641.65625 334.75 L 641.40625 323.125 z M 726.125 347.53125 L 726.125 354.15625 L 726.125 360.78125 L 704.65625 360.78125 C 687.43342 360.78125 683.12058 360.66462 682.9375 360.1875 C 682.8119 359.86032 682.77305 356.93883 682.84375 353.6875 L 682.96875 347.78125 L 704.53125 347.65625 L 726.125 347.53125 z M 729.78125 347.53125 L 746.53125 347.65625 L 763.3125 347.78125 L 763.3125 354.15625 L 763.3125 360.5625 L 746.53125 360.6875 L 729.78125 360.8125 L 729.78125 354.15625 L 729.78125 347.53125 z M 757 373.09375 C 759.40991 373.08467 762.27362 373.31633 762.78125 373.6875 C 763.46935 374.19088 763.58094 375.04385 763.46875 380.4375 L 763.3125 386.59375 L 758.5 386.71875 C 755.85026 386.78954 753.55042 386.70665 753.375 386.53125 C 753.19953 386.35585 753.0625 383.38449 753.0625 379.9375 C 753.0625 374.64377 753.17121 373.64036 753.78125 373.40625 C 754.29154 373.21043 755.55406 373.0992 757 373.09375 z M 716.3125 373.125 C 737.35497 373.125 748.38423 373.28093 748.96875 373.59375 C 749.77111 374.02315 749.84375 374.58007 749.84375 379.875 C 749.84375 383.7993 749.68141 385.88108 749.3125 386.25 C 748.89654 386.66597 740.89241 386.8125 716.0625 386.8125 C 698.07372 386.8125 683.19865 386.66742 683.03125 386.5 C 682.86381 386.3326 682.75 383.46448 682.75 380.125 C 682.75 374.58931 682.81981 374.02466 683.625 373.59375 C 684.20953 373.2809 695.27004 373.125 716.3125 373.125 z M 617.9375 384.96875 C 619.15968 384.91844 620.28215 385.4384 621.375 386.53125 C 622.64766 387.80389 622.9375 388.42791 622.9375 390 C 622.9375 391.5721 622.64766 392.19611 621.375 393.46875 C 620.14336 394.70042 619.46714 395.03125 618.0625 395.03125 C 617.08878 395.03125 615.80957 394.70442 615.25 394.3125 C 614.04148 393.46601 612.875 391.34023 612.875 390 C 612.875 388.45315 614.15086 386.43364 615.59375 385.6875 C 616.43131 385.25438 617.20419 384.99893 617.9375 384.96875 z M 662.25 384.96875 C 663.47218 384.91844 664.5634 385.4384 665.65625 386.53125 C 666.92889 387.80389 667.21875 388.42791 667.21875 390 C 667.21875 391.5721 666.92889 392.19611 665.65625 393.46875 C 663.91509 395.20993 661.98948 395.49372 659.8125 394.3125 C 658.44141 393.56854 657.15625 391.50083 657.15625 390 C 657.15625 388.45315 658.46337 386.43364 659.90625 385.6875 C 660.74382 385.25438 661.51669 384.99893 662.25 384.96875 z M 639.4375 385 C 639.5829 384.9813 639.72868 384.99987 639.875 385 C 644.70659 385.0054 647.02366 390.83115 643.40625 393.875 C 641.30426 395.6437 638.81933 395.47559 636.8125 393.46875 C 635.53985 392.19611 635.25 391.5721 635.25 390 C 635.25 387.61976 637.25654 385.28053 639.4375 385 z M 617.59375 387.71875 C 617.04883 387.7391 616.5191 387.9184 616.15625 388.28125 C 615.44995 388.98755 615.44995 391.04372 616.15625 391.75 C 617.12384 392.71759 619.18508 392.39996 620 391.15625 C 620.69283 390.09885 620.69283 389.93241 620 388.875 C 619.49068 388.09768 618.50194 387.68483 617.59375 387.71875 z M 640.1875 387.71875 C 639.33889 387.71875 638.68808 388.11103 638.1875 388.875 C 637.49467 389.93241 637.49467 390.09885 638.1875 391.15625 C 638.68808 391.92022 639.33889 392.28125 640.1875 392.28125 C 641.77348 392.28125 642.5625 391.53177 642.5625 390 C 642.5625 388.46824 641.77348 387.71875 640.1875 387.71875 z M 662.1875 387.71875 C 660.42614 387.71875 659.48454 389.4077 660.28125 391.15625 C 660.66767 392.00437 661.17029 392.28125 662.1875 392.28125 C 663.14396 392.28125 663.75872 391.95373 664.28125 391.15625 C 664.97406 390.09885 664.97406 389.93241 664.28125 388.875 C 663.75872 388.07753 663.14396 387.71875 662.1875 387.71875 z "
       id="path4844" />
    <path
       style="fill:none;stroke:#000000;stroke-width:9.50314961;stroke-linecap:butt;stroke-linejoin:miter;stroke-opacity:1;stroke-miterlimit:4;stroke-dasharray:none"
       d="m 474,362.09448 72,0"
       id="path4984"
       inkscape:connector-curvature="0" />
    <path
       style="fill:none;stroke:#000000;stroke-width:9.50314999;stroke-linecap:butt;stroke-linejoin:miter;stroke-miterlimit:4;stroke-opacity:1;stroke-dasharray:none"
       d="m 844,374.09448 134,-2"
       id="path4988"
       inkscape:connector-curvature="0" />
    <path
       style="fill:none;stroke:#000000;stroke-width:9.50314999;stroke-linecap:butt;stroke-linejoin:miter;stroke-miterlimit:4;stroke-opacity:1;stroke-dasharray:none"
       d="m 832,446.09448 c 0,0 118,106 136,106"
       id="path4990"
       inkscape:connector-curvature="0" />
    <path
       style="fill:none;stroke:#000000;stroke-width:9.50314999;stroke-linecap:butt;stroke-linejoin:miter;stroke-miterlimit:4;stroke-opacity:1;stroke-dasharray:none"
       d="m 834,290.09448 c 0,0 116,-80 142,-84"
       id="path4992"
       inkscape:connector-curvature="0" />
    <path
       sodipodi:type="star"
       style="stroke-width:9.50314999;stroke-linecap:butt;stroke-miterlimit:4;stroke-dasharray:none"
       id="path4796-2-7"
       sodipodi:sides="3"
       sodipodi:cx="258"
       sodipodi:cy="151.09448"
       sodipodi:r1="24.207438"
       sodipodi:r2="12.103718"
       sodipodi:arg1="0.78539816"
       sodipodi:arg2="1.8325957"
       inkscape:flatsided="false"
       inkscape:rounded="0"
       inkscape:randomized="0"
       d="m 275.11724,168.21173 -20.24991,-5.42595 -20.24992,-5.42595 14.82397,-14.82397 14.82397,-14.82397 5.42594,20.24992 z"
       inkscape:transform-center-x="-10.547143"
       transform="matrix(0.67272217,-0.73989518,0.73989518,0.67272217,251.09646,450.76792)" />
    <path
       sodipodi:type="star"
       style="stroke-width:9.50314999;stroke-linecap:butt;stroke-miterlimit:4;stroke-dasharray:none"
       id="path4796-2-5"
       sodipodi:sides="3"
       sodipodi:cx="258"
       sodipodi:cy="151.09448"
       sodipodi:r1="24.207438"
       sodipodi:r2="12.103718"
       sodipodi:arg1="0.78539816"
       sodipodi:arg2="1.8325957"
       inkscape:flatsided="false"
       inkscape:rounded="0"
       inkscape:randomized="0"
       d="m 275.11724,168.21173 -20.24991,-5.42595 -20.24992,-5.42595 14.82397,-14.82397 14.82397,-14.82397 5.42594,20.24992 z"
       inkscape:transform-center-x="10.968449"
       transform="matrix(-0.7143532,0.69978533,-0.69978533,-0.7143532,1136.4648,299.76971)"
       inkscape:transform-center-y="0.4096989" />
    <path
       sodipodi:type="star"
       style="stroke-width:9.50314999;stroke-linecap:butt;stroke-miterlimit:4;stroke-dasharray:none"
       id="path4796-2-3"
       sodipodi:sides="3"
       sodipodi:cx="258"
       sodipodi:cy="151.09448"
       sodipodi:r1="24.207438"
       sodipodi:r2="12.103718"
       sodipodi:arg1="0.78539816"
       sodipodi:arg2="1.8325957"
       inkscape:flatsided="false"
       inkscape:rounded="0"
       inkscape:randomized="0"
       d="m 275.11724,168.21173 -20.24991,-5.42595 -20.24992,-5.42595 14.82397,-14.82397 14.82397,-14.82397 5.42594,20.24992 z"
       transform="matrix(0.00984391,0.99995154,-0.99995154,0.00984391,988.725,26.441031)"
       inkscape:transform-center-y="0.8039757"
       inkscape:transform-center-x="0.027681941" />
    <path
       sodipodi:type="star"
       style="stroke-width:9.50314999;stroke-linecap:butt;stroke-miterlimit:4;stroke-dasharray:none"
       id="path4796-2-30"
       sodipodi:sides="3"
       sodipodi:cx="258"
       sodipodi:cy="151.09448"
       sodipodi:r1="24.207438"
       sodipodi:r2="12.103718"
       sodipodi:arg1="0.78539816"
       sodipodi:arg2="1.8325957"
       inkscape:flatsided="false"
       inkscape:rounded="0"
       inkscape:randomized="0"
       d="m 275.11724,168.21173 -20.24991,-5.42595 -20.24992,-5.42595 14.82397,-14.82397 14.82397,-14.82397 5.42594,20.24992 z"
       inkscape:transform-center-x="1.427197"
       transform="matrix(-0.99867638,0.05143421,-0.05143421,-0.99867638,1098.9284,584.60549)"
       inkscape:transform-center-y="0.61640438" />
    <g
       id="g3019"
       transform="matrix(0.99999558,0,0,1,-461.89879,117.76509)">
      <path
         style="fill:#000000;fill-opacity:1;fill-rule:nonzero;stroke-width:9.50314999000000071;stroke-linecap:butt;stroke-miterlimit:4;opacity:1"
         d="m 1520.8605,184.12413 c -55.5238,-0.0106 -57.0085,0.001 -58.8594,0.94585 -2.9169,1.48809 -4.9326,3.38983 -6.5279,6.17123 l -1.442,2.54293 0,57.30877 0,57.3088 1.442,2.54292 c 1.6516,2.87943 3.8394,4.88479 6.7295,6.20225 1.8837,0.85869 4.8751,0.9148 58.7973,0.9148 53.9222,0 56.9136,-0.0562 58.7973,-0.9148 2.8901,-1.31746 5.0779,-3.32287 6.7295,-6.20225 l 1.442,-2.54292 0,-57.3088 0,-57.30877 -1.442,-2.54293 c -1.6516,-2.87944 -3.8394,-4.8848 -6.7295,-6.20224 -1.8834,-0.85855 -4.8887,-0.9045 -58.9368,-0.91484 z m -48.4861,28.26675 12.1564,0 12.1564,0 0,42.67147 0,42.67147 -12.1564,0 -12.1564,0 0,-42.67147 0,-42.67147 z m 72.9384,18.35865 12.1564,0 12.1564,0 0,33.49215 0,33.49214 -12.1564,0 -12.1564,0 0,-33.49214 0,-33.49215 z m -36.7173,25.80136 12.4045,0 12.4045,0 0,20.59146 0,20.59147 -12.4045,0 -12.4045,0 0,-20.59147 0,-20.59146 z"
         id="path3879"
         inkscape:connector-curvature="0" />
    </g>
    <g
       id="g3926"
       transform="matrix(0.50733715,0,0,0.50733715,70.80172,189.82537)">
      <path
         style="fill:#000000;fill-opacity:1"
         d="m 1360.2188,110.09375 -4.8438,3.25 c -2.6746,1.7875 -6.3375,5.45035 -8.125,8.125 l -3.25,4.84375 0,115.78125 0,115.78125 3.25,4.84375 c 1.7875,2.6746 5.4504,6.3375 8.125,8.125 l 4.8438,3.25 115.7812,0 115.7812,0 4.8438,-3.25 c 2.6746,-1.7875 6.3375,-5.4504 8.125,-8.125 l 3.25,-4.84375 0,-115.78125 0,-115.78125 -3.25,-4.84375 c -1.7875,-2.67465 -5.4504,-6.3375 -8.125,-8.125 l -4.8438,-3.25 -115.7812,0 -115.7812,0 z m 35.7812,52 80,0 80,0 0,8.5 0,8.5 -80,0 -80,0 0,-8.5 0,-8.5 z m 0.5,33.5 79.5,0 79.5,0 0,8.5 0,8.5 -79.2812,0.25 c -65.7974,0.21249 -79.3515,0.0263 -79.7813,-1.09375 -0.2849,-0.74228 -0.4133,-4.67648 -0.25,-8.75 l 0.3125,-7.40625 z m 0,33 79.5,0 79.5,0 0,8.5 0,8.5 -79.2812,0.25 c -65.7974,0.21249 -79.3515,0.0263 -79.7813,-1.09375 -0.2849,-0.74228 -0.4133,-4.67648 -0.25,-8.75 l 0.3125,-7.40625 z m 79.5,32.5 c 38.6924,0 77.3727,0.19716 78.4062,0.59375 1.2685,0.48678 1.5938,2.26916 1.5938,9 l 0,8.40625 -80,0 -80,0 0,-8.40625 c 0,-6.73084 0.3253,-8.51322 1.5938,-9 1.0335,-0.39659 39.7138,-0.59375 78.4062,-0.59375 z m -18.4688,33.96875 c 33.228,-0.0494 29.4688,0.35454 29.4688,9.59375 0,5.2872 -0.3352,6.54875 -1.9375,7.40625 -1.959,1.0484 -85.2617,1.4043 -87.8125,0.375 -0.861,-0.3474 -1.25,-3.1398 -1.25,-8.9375 l 0,-8.40625 44.9062,0 c 6.3747,0 11.8782,-0.0242 16.625,-0.0312 z"
         transform="translate(472,460)"
         id="path3963"
         inkscape:connector-curvature="0" />
    </g>
    <path
       style="fill:#1a0000;fill-opacity:1;fill-rule:nonzero;stroke-width:9.50314999;stroke-linecap:butt;stroke-miterlimit:4"
       d="M 1029 102.625 C 1005.0717 102.66808 1003.8882 102.85386 1002.5 103.5625 C 999.5831 105.05059 997.56405 106.9686 995.96875 109.75 L 994.53125 112.28125 L 994.53125 169.59375 L 994.53125 226.90625 L 995.96875 229.4375 C 997.62035 232.31693 999.7974 234.33879 1002.6875 235.65625 C 1004.5712 236.51494 1007.5781 236.5625 1061.5 236.5625 C 1115.422 236.5625 1118.4288 236.51485 1120.3125 235.65625 C 1123.2026 234.33879 1125.3797 232.31688 1127.0312 229.4375 L 1128.4688 226.90625 L 1128.4688 169.59375 L 1128.4688 112.28125 L 1127.0312 109.75 C 1125.3797 106.87056 1123.2026 104.84869 1120.3125 103.53125 C 1118.4291 102.6727 1115.4229 102.63534 1061.375 102.625 C 1047.4941 102.62235 1036.9761 102.61064 1029 102.625 z M 1004.5 119.8125 L 1117.5 119.8125 L 1117.5 220.375 L 1004.5 220.375 L 1004.5 119.8125 z M 1007.8125 139.4375 L 1008.3438 169.3125 L 1041.4375 169.125 L 1041.3438 153.125 L 1036.4688 145.25 L 1041.2812 145.25 L 1041.25 139.4375 L 1007.8125 139.4375 z M 1044.1562 139.4375 L 1044.2188 145.25 L 1077.5312 145.25 L 1077.5625 139.4375 L 1044.1562 139.4375 z M 1080.9062 139.4375 L 1080.9062 145.25 L 1083.9062 145.25 L 1084.875 160.90625 L 1082.375 160.90625 C 1081.9925 158.67875 1081.5242 156.86644 1080.9062 155.375 L 1080.9062 168.9375 L 1114.3125 168.78125 L 1114.3125 139.4375 L 1080.9062 139.4375 z M 1050.4062 149.1875 L 1062.4688 168.78125 L 1077.4062 168.78125 L 1077.5 151.125 C 1075.1662 149.67702 1071.7754 149.1875 1066.625 149.1875 L 1050.4062 149.1875 z M 1044.375 158.0625 L 1044.5 168.78125 L 1051 168.78125 L 1044.375 158.0625 z M 1008.1562 171.875 L 1007.9688 201.40625 L 1041.0625 201.40625 L 1041.25 201.15625 L 1041.5938 171.875 L 1008.1562 171.875 z M 1044.5 171.875 L 1044.5 196.71875 L 1057.4062 179.15625 L 1052.9062 171.875 L 1044.5 171.875 z M 1064.375 171.875 L 1065.9688 174.4375 L 1046.0625 201.375 L 1077.75 200.875 L 1077.9375 171.875 L 1064.375 171.875 z M 1081.25 171.875 L 1081.25 200.8125 C 1084.7784 199.60498 1086.5635 197.2009 1088.4062 192.59375 L 1090.9062 192.59375 L 1088.4062 200.875 L 1114.6562 200.875 L 1114.6562 171.875 L 1081.25 171.875 z M 1007.875 204.21875 L 1007.875 217.46875 L 1041.3125 217.46875 L 1041.3125 209.875 L 1034.8438 209.875 L 1039 204.21875 L 1007.875 204.21875 z M 1087.4062 204.21875 L 1085.7188 209.875 L 1080.9688 209.875 L 1080.9688 217.46875 L 1114.4062 217.46875 L 1114.4062 204.21875 L 1087.4062 204.21875 z M 1044.2188 209.875 L 1044.2188 217.46875 L 1077.6562 217.46875 L 1077.6562 209.875 L 1044.2188 209.875 z "
       id="path4026" />
  </g>
</svg>
