<?xml version="1.0" encoding="UTF-8" standalone="no"?>
<!-- Created with Inkscape (http://www.inkscape.org/) -->

<svg
   xmlns:dc="http://purl.org/dc/elements/1.1/"
   xmlns:cc="http://creativecommons.org/ns#"
   xmlns:rdf="http://www.w3.org/1999/02/22-rdf-syntax-ns#"
   xmlns:svg="http://www.w3.org/2000/svg"
   xmlns="http://www.w3.org/2000/svg"
   xmlns:sodipodi="http://sodipodi.sourceforge.net/DTD/sodipodi-0.dtd"
   xmlns:inkscape="http://www.inkscape.org/namespaces/inkscape"
   width="297mm"
   height="210mm"
   id="svg2985"
   version="1.1"
   inkscape:version="0.48.4 r9939"
   sodipodi:docname="MVP.svg">
  <defs
     id="defs2987" />
  <sodipodi:namedview
     inkscape:document-units="mm"
     pagecolor="#ffffff"
     bordercolor="#666666"
     borderopacity="1.0"
     inkscape:pageopacity="0.0"
     inkscape:pageshadow="2"
     inkscape:zoom="0.5"
     inkscape:cx="554.08747"
     inkscape:cy="372.04724"
     inkscape:current-layer="layer1"
     id="namedview2989"
     showgrid="false"
     inkscape:window-width="1366"
     inkscape:window-height="741"
     inkscape:window-x="0"
     inkscape:window-y="0"
     inkscape:window-maximized="1" />
  <metadata
     id="metadata2991">
    <rdf:RDF>
      <cc:Work
         rdf:about="">
        <dc:format>image/svg+xml</dc:format>
        <dc:type
           rdf:resource="http://purl.org/dc/dcmitype/StillImage" />
        <dc:title></dc:title>
      </cc:Work>
    </rdf:RDF>
  </metadata>
  <g
     inkscape:label="Layer 1"
     inkscape:groupmode="layer"
     id="layer1">
    <path
       style="fill:#000000"
       d="m 349.5625,231.40625 c -56.04897,0.42396 -104.1875,20.95421 -104.1875,47.15625 0,15.2573 15.09871,28.69047 42.46875,37.78125 14.28834,4.74578 31.38783,7.96171 47.96875,9.03125 64.33313,4.14979 121.5625,-17.88544 121.5625,-46.8125 0,-7.10803 -2.81519,-12.89038 -9.46875,-19.5 -13.2825,-13.1948 -41.73103,-23.41589 -73.96875,-26.5625 -8.21255,-0.8016 -16.368,-1.15432 -24.375,-1.09375 z m -104.09375,66.53125 -0.0625,17.78125 c -0.0442,16.89573 0.0986,18.03974 2.40625,22.59375 8.97674,17.71474 42.4992,32.33437 82.5625,36 55.51982,5.07985 112.0215,-11.25162 124.5625,-36 2.30765,-4.55401 2.4192,-5.69802 2.375,-22.59375 l -0.0312,-17.78125 -2.40625,4.625 c -7.13256,13.69336 -30.3319,26.25701 -59.65625,32.28125 -26.09116,5.36002 -61.59634,5.36002 -87.6875,0 -29.40579,-6.04097 -52.50389,-18.54986 -59.65625,-32.28125 l -2.40625,-4.625 z m -0.125,49 0.25,19.125 0.28125,19.15625 3.875,5.625 c 9.78636,14.19988 33.3573,25.2991 64.75,30.5 6.80969,1.12817 14.625,2.23886 17.375,2.46875 12.66441,1.05869 44.20204,-0.29369 56.40625,-2.40625 31.86235,-5.51542 54.96614,-16.41159 64.71875,-30.5625 l 3.875,-5.625 0.28125,-19.15625 0.28125,-19.125 -2.3125,4.28125 c -9.04943,16.69443 -34.77152,29.20509 -71.75,34.875 -8.17235,1.25307 -17.43189,1.78125 -32,1.78125 -26.6306,0 -42.2227,-2.2348 -63.5,-9.09375 -18.33371,-5.91006 -34.9746,-17.26085 -40.28125,-27.46875 l -2.25,-4.375 z m 0.0312,49 0,17.78125 c -6.1e-4,13.65573 0.36303,18.64157 1.53125,21.4375 7.37659,17.65468 39.25768,32.76515 78.46875,37.1875 4.125,0.46523 14.92163,0.89745 24,0.96875 43.59106,0.34262 80.96617,-10.10422 98.75,-27.59375 8.52777,-8.38665 9.19395,-10.67022 9.21875,-31.78125 l 0.0312,-18 -2.1875,4.40625 c -10.60762,21.43027 -54.43136,37.09375 -103.8125,37.09375 -49.38114,0 -93.20488,-15.66348 -103.8125,-37.09375 l -2.1875,-4.40625 z"
       id="path4191"
       inkscape:connector-curvature="0" />
    <g
       id="layer1-7"
       inkscape:label="Layer 1"
       transform="matrix(0.27628362,0,0,0.27628362,37.905627,107.85209)">
      <path
         id="rect3797"
         d="m 68,143.375 0,364 409,0 0,-364 -409,0 z m 12,71 121,0 0,48 -121,0 0,-48 z m 131.5,0 121,0 0,48 -121,0 0,-48 z m 133,0 121,0 0,48 -121,0 0,-48 z m -264.25,58.5 121,0 0,48 -121,0 0,-48 z m 131.5,0 121,0 0,48 -121,0 0,-48 z m 133,0 121,0 0,48 -121,0 0,-48 z m -263.5,59 121,0 0,48 -121,0 0,-48 z m 131.5,0 121,0 0,48 -121,0 0,-48 z m 133,0 121,0 0,48 -121,0 0,-48 z m -265.5,60 121,0 0,48 -121,0 0,-48 z m 131.5,0 121,0 0,48 -121,0 0,-48 z m 133,0 121,0 0,48 -121,0 0,-48 z m -264.5,57 121,0 0,48 -121,0 0,-48 z m 131.5,0 121,0 0,48 -121,0 0,-48 z m 133,0 121,0 0,48 -121,0 0,-48 z"
         style="fill:#000000;fill-opacity:1"
         inkscape:connector-curvature="0" />
    </g>
    <g
       id="layer1-7-3"
       inkscape:label="Layer 1"
       transform="matrix(0.27628362,0,0,0.27628362,16.645785,285.01744)">
      <path
         id="rect3797-5"
         d="m 68,143.375 0,364 409,0 0,-364 -409,0 z m 12,71 121,0 0,48 -121,0 0,-48 z m 131.5,0 121,0 0,48 -121,0 0,-48 z m 133,0 121,0 0,48 -121,0 0,-48 z m -264.25,58.5 121,0 0,48 -121,0 0,-48 z m 131.5,0 121,0 0,48 -121,0 0,-48 z m 133,0 121,0 0,48 -121,0 0,-48 z m -263.5,59 121,0 0,48 -121,0 0,-48 z m 131.5,0 121,0 0,48 -121,0 0,-48 z m 133,0 121,0 0,48 -121,0 0,-48 z m -265.5,60 121,0 0,48 -121,0 0,-48 z m 131.5,0 121,0 0,48 -121,0 0,-48 z m 133,0 121,0 0,48 -121,0 0,-48 z m -264.5,57 121,0 0,48 -121,0 0,-48 z m 131.5,0 121,0 0,48 -121,0 0,-48 z m 133,0 121,0 0,48 -121,0 0,-48 z"
         style="fill:#000000;fill-opacity:1"
         inkscape:connector-curvature="0" />
    </g>
    <g
       id="layer1-7-9"
       inkscape:label="Layer 1"
       transform="matrix(0.27628362,0,0,0.27628362,37.905627,462.1828)">
      <path
         id="rect3797-6"
         d="m 68,143.375 0,364 409,0 0,-364 -409,0 z m 12,71 121,0 0,48 -121,0 0,-48 z m 131.5,0 121,0 0,48 -121,0 0,-48 z m 133,0 121,0 0,48 -121,0 0,-48 z m -264.25,58.5 121,0 0,48 -121,0 0,-48 z m 131.5,0 121,0 0,48 -121,0 0,-48 z m 133,0 121,0 0,48 -121,0 0,-48 z m -263.5,59 121,0 0,48 -121,0 0,-48 z m 131.5,0 121,0 0,48 -121,0 0,-48 z m 133,0 121,0 0,48 -121,0 0,-48 z m -265.5,60 121,0 0,48 -121,0 0,-48 z m 131.5,0 121,0 0,48 -121,0 0,-48 z m 133,0 121,0 0,48 -121,0 0,-48 z m -264.5,57 121,0 0,48 -121,0 0,-48 z m 131.5,0 121,0 0,48 -121,0 0,-48 z m 133,0 121,0 0,48 -121,0 0,-48 z"
         style="fill:#000000;fill-opacity:1"
         inkscape:connector-curvature="0" />
    </g>
    <path
       style="fill:none;stroke:#000000;stroke-width:9.50314961;stroke-linecap:butt;stroke-linejoin:miter;stroke-opacity:1;stroke-miterlimit:4;stroke-dasharray:none"
       d="m 192,516.09448 c 0,0 72,-15 81,-28"
       id="path4282"
       inkscape:connector-curvature="0" />
    <path
       style="fill:none;stroke:#000000;stroke-width:10.45543671;stroke-linecap:butt;stroke-linejoin:miter;stroke-miterlimit:4;stroke-opacity:1;stroke-dasharray:none"
       d="m 158,354.09448 72,0"
       id="path4284"
       inkscape:connector-curvature="0" />
    <path
       style="fill:none;stroke:#000000;stroke-width:9.50314961;stroke-linecap:butt;stroke-linejoin:miter;stroke-opacity:1;stroke-miterlimit:4;stroke-dasharray:none"
       d="m 184,193.09448 c 0,0 41,27 52,40 11,13 11,14 11,14"
       id="path4286"
       inkscape:connector-curvature="0" />
    <path
       sodipodi:type="star"
       style="stroke-width:9.50314999;stroke-linecap:butt;stroke-miterlimit:4;stroke-dasharray:none"
       id="path4796"
       sodipodi:sides="3"
       sodipodi:cx="258"
       sodipodi:cy="151.09448"
       sodipodi:r1="24.207438"
       sodipodi:r2="12.103718"
       sodipodi:arg1="0.78539816"
       sodipodi:arg2="1.8325957"
       inkscape:flatsided="false"
       inkscape:rounded="0"
       inkscape:randomized="0"
       d="m 275.11724,168.21173 -20.24991,-5.42595 -20.24992,-5.42595 14.82397,-14.82397 14.82397,-14.82397 5.42594,20.24992 z"
       inkscape:transform-center-x="5.0539201"
       inkscape:transform-center-y="-1.1222202"
       transform="matrix(0.98576202,0.16814648,-0.16814648,0.98576202,9.079404,43.769488)" />
    <path
       sodipodi:type="star"
       style="stroke-width:9.50314999;stroke-linecap:butt;stroke-miterlimit:4;stroke-dasharray:none"
       id="path4796-2"
       sodipodi:sides="3"
       sodipodi:cx="258"
       sodipodi:cy="151.09448"
       sodipodi:r1="24.207438"
       sodipodi:r2="12.103718"
       sodipodi:arg1="0.78539816"
       sodipodi:arg2="1.8325957"
       inkscape:flatsided="false"
       inkscape:rounded="0"
       inkscape:randomized="0"
       d="m 275.11724,168.21173 -20.24991,-5.42595 -20.24992,-5.42595 14.82397,-14.82397 14.82397,-14.82397 5.42594,20.24992 z"
       inkscape:transform-center-x="-10.547143"
       transform="matrix(0.67272217,-0.73989518,0.73989518,0.67272217,-68.302484,443.46505)" />
    <path
       sodipodi:type="star"
       style="stroke-width:9.50314999;stroke-linecap:butt;stroke-miterlimit:4;stroke-dasharray:none"
       id="path4796-3"
       sodipodi:sides="3"
       sodipodi:cx="258"
       sodipodi:cy="151.09448"
       sodipodi:r1="24.207438"
       sodipodi:r2="12.103718"
       sodipodi:arg1="0.78539816"
       sodipodi:arg2="1.8325957"
       inkscape:flatsided="false"
       inkscape:rounded="0"
       inkscape:randomized="0"
       d="m 275.11724,168.21173 -20.24991,-5.42595 -20.24992,-5.42595 14.82397,-14.82397 14.82397,-14.82397 5.42594,20.24992 z"
       inkscape:transform-center-x="1.7989694"
       inkscape:transform-center-y="4.426688"
       transform="matrix(0.1123793,-0.99366538,0.99366538,0.1123793,93.9227,729.60248)" />
    <path
       inkscape:connector-curvature="0"
       id="path4844"
       d="m 571.33133,356.67689 0,-116.88635 116.88636,0 116.88635,0 0,116.88635 0,116.88636 -116.88635,0 -116.88636,0 0,-116.88636 z m 50.04196,36.80094 c 1.27266,-1.27264 1.55242,-1.89796 1.55242,-3.47006 0,-1.57209 -0.27976,-2.19743 -1.55242,-3.47007 -1.74856,-1.74856 -3.53445,-2.01477 -5.76793,-0.85978 -1.44289,0.74614 -2.72458,2.783 -2.72458,4.32985 0,1.34023 1.17339,3.46338 2.38191,4.30987 0.55957,0.39192 1.81408,0.7126 2.7878,0.7126 1.40464,0 2.09116,-0.32074 3.3228,-1.55241 z m -5.20509,-1.73504 c -0.7063,-0.70628 -0.7063,-2.76375 0,-3.47005 0.96759,-0.96759 3.01675,-0.65015 3.83167,0.59356 0.69283,1.05741 0.69283,1.22554 0,2.28294 -0.81492,1.24371 -2.86408,1.56114 -3.83167,0.59355 z m 27.25337,2.11845 c 3.61741,-3.04385 1.29794,-8.86883 -3.53365,-8.87423 -2.34111,-0.002 -4.63436,2.48184 -4.63436,5.02076 0,1.5721 0.27974,2.19742 1.55239,3.47006 2.00683,2.00684 4.51363,2.15211 6.61562,0.38341 z m -5.24219,-2.712 c -0.69283,-1.0574 -0.69283,-1.22553 0,-2.28294 0.50058,-0.76397 1.16723,-1.14147 2.01584,-1.14147 1.58598,0 2.36373,0.75118 2.36373,2.28294 0,1.53177 -0.77775,2.28294 -2.36373,2.28294 -0.84861,0 -1.51526,-0.3775 -2.01584,-1.14147 z m 27.48289,2.32859 c 1.27264,-1.27264 1.5524,-1.89796 1.5524,-3.47006 0,-1.57209 -0.27976,-2.19743 -1.5524,-3.47007 -1.74856,-1.74856 -3.53444,-2.01477 -5.76795,-0.85978 -1.44288,0.74614 -2.72458,2.783 -2.72458,4.32985 0,1.50083 1.26004,3.56377 2.63113,4.30773 2.17698,1.18122 4.12024,0.90351 5.8614,-0.83767 z m -5.37947,-2.32859 c -0.79671,-1.74855 0.12774,-3.42441 1.8891,-3.42441 0.95646,0 1.59442,0.344 2.11695,1.14147 0.69281,1.05741 0.69281,1.22554 0,2.28294 -0.52253,0.79748 -1.16049,1.14147 -2.11695,1.14147 -1.01721,0 -1.50268,-0.29335 -1.8891,-1.14147 z m 89.02629,-4.88549 c 0.36891,-0.36892 0.54789,-2.45185 0.54789,-6.37615 0,-5.29493 -0.0808,-5.87151 -0.88316,-6.30091 -0.58452,-0.31282 -11.63354,-0.47265 -32.67601,-0.47265 -21.04246,0 -32.09148,0.1598 -32.67601,0.47265 -0.80519,0.43091 -0.88316,1.00873 -0.88316,6.54442 0,3.33948 0.13696,6.20875 0.3044,6.37615 0.1674,0.16742 15.02248,0.30441 33.01126,0.30441 24.82991,0 32.83883,-0.13195 33.25479,-0.54792 z m 14.14539,-5.84019 c 0.11219,-5.39365 0.0301,-6.2313 -0.658,-6.73468 -0.81221,-0.59388 -7.66038,-0.81989 -9.02116,-0.2977 -0.61004,0.23411 -0.72222,1.25069 -0.72222,6.54442 0,3.44699 0.14344,6.4108 0.31891,6.5862 0.17542,0.1754 2.48688,0.26102 5.13662,0.19023 l 4.81769,-0.12871 0.12822,-6.15979 z M 646.66823,370.29228 c 12.49237,-2.99246 21.44298,-16.10749 19.67381,-28.82733 -1.51279,-10.87642 -9.14732,-19.59438 -19.47166,-22.23492 -9.31609,-2.38264 -18.59681,0.12855 -25.31911,6.85084 -12.16978,12.16977 -9.62086,32.40513 5.20004,41.2819 6.01192,3.60076 12.89087,4.61257 19.91692,2.92951 z m -10.72514,-4.10705 c -7.98584,-1.52288 -15.23361,-8.6143 -17.13138,-16.76185 -0.77312,-3.31919 -0.35113,-9.18017 0.89872,-12.48236 2.96823,-7.84228 10.71005,-13.59595 18.51093,-13.75722 l 3.19612,-0.066 0.2283,11.64297 0.22829,11.64297 9.99159,0.1232 9.99161,0.12321 -0.2945,2.15973 c -0.81896,6.00627 -5.90601,12.61472 -11.90276,15.46256 -4.75448,2.25789 -8.88608,2.83404 -13.71692,1.91282 z m 90.17135,-12.02405 0,-6.62498 -21.57375,0.11868 -21.57374,0.11867 -0.12839,5.91147 c -0.0707,3.25133 -0.0257,6.17919 0.0999,6.50637 0.18308,0.47712 4.47938,0.59489 21.70221,0.59489 l 21.47392,0 0,-6.625 z m 37.21188,0.005 0,-6.39222 -16.77959,-0.1198 -16.77959,-0.11981 0,6.63177 0,6.63176 16.77959,-0.11981 16.77959,-0.1198 0,-6.39223 z m -23.61031,-25.11229 c 0.0727,-3.01348 0.0172,-5.94292 -0.12369,-6.50986 l -0.25597,-1.03079 -28.18468,0.1177 -28.18469,0.11754 -0.12839,5.91149 c -0.0707,3.25132 -0.0251,6.18076 0.10119,6.50987 0.1866,0.48626 5.51416,0.57631 28.43688,0.48072 l 28.20725,-0.1177 0.13228,-5.47905 z m 23.61031,-0.91318 0,-6.39223 -10.04493,0 -10.04492,0 -0.12676,6.51514 -0.12677,6.51513 10.17166,-0.12288 10.17165,-0.12304 0,-6.39222 z"
       style="fill:#000000;fill-opacity:1" />
    <path
       style="fill:#000000;fill-opacity:1"
       d="m 1041.6316,259.46148 c -4.2079,-1.36312 -7.658,-4.67281 -9.4187,-9.03514 l -0.9158,-2.26918 -0.1018,-14.16974 c -0.095,-13.14692 -0.1394,-14.18985 -0.6226,-14.44847 -0.2865,-0.1533 -2.5013,-0.27256 -4.9218,-0.26502 l -4.4009,0.0137 -1.064,1.19189 c -4.2402,4.74979 -10.2965,7.00716 -16.5902,6.18375 -7.4851,-0.97928 -13.77201,-6.53377 -15.62341,-13.80311 -0.5884,-2.31039 -0.5844,-7.23517 0.01,-9.50824 1.4518,-5.57347 5.6636,-10.36634 11.11391,-12.64719 1.66,-0.69469 3.0171,-1.00955 5.3419,-1.23945 2.845,-0.28137 3.3505,-0.25035 5.805,0.35611 3.4825,0.8605 6.3069,2.439 9.0061,5.03315 l 2.1527,2.06899 4.1162,0.0224 c 2.2639,0.0123 4.4552,-0.10647 4.8696,-0.26403 l 0.7535,-0.28648 0.01,-12.84017 c 0.012,-14.24722 0.1882,-16.1999 1.7539,-19.38038 1.0624,-2.15804 4.4924,-5.59871 6.5972,-6.61756 2.8739,-1.39124 4.4852,-1.51886 19.2477,-1.52436 10.3412,-0.004 13.9015,-0.0946 14.1681,-0.36121 0.2476,-0.24763 0.356,-1.8196 0.356,-5.16175 l 0,-4.80567 -1.0904,-0.95735 c -3.0894,-2.71259 -5.3625,-6.67568 -6.1596,-10.73896 -0.4363,-2.22446 -0.4589,-2.98853 -0.1618,-5.47686 0.4247,-3.5568 1.1021,-5.42077 3.0022,-8.26178 4.3413,-6.49084 11.7983,-9.56614 19.3923,-7.99754 9.7191,2.00752 16.0448,11.0073 14.7335,20.96161 -0.5529,4.19731 -2.3473,7.65217 -5.6671,10.91113 l -1.6474,1.61721 0,4.61376 c 0,2.53757 0.098,4.84742 0.2132,5.133 0.1949,0.48448 1.1683,0.51926 14.5346,0.51929 14.1664,4e-5 14.3506,0.007 16.5681,0.69195 5.014,1.54709 8.8244,5.52714 10.2072,10.6616 0.23,0.85438 0.445,1.28638 0.4775,0.95999 0.033,-0.32638 0.1632,0.0742 0.2902,0.89015 0.3018,1.93734 0.3018,75.8014 0,77.73875 -0.127,0.81596 -0.2602,1.21652 -0.2959,0.89013 -0.036,-0.32638 -0.2322,0.0962 -0.4365,0.93899 -1.2773,5.26662 -6.2809,10.12323 -11.4128,11.07743 -0.9205,0.17116 -7.4313,0.29716 -15.3548,0.29716 l -13.7567,0 0,-3.73891 0,-3.73892 1.8544,-2.00688 c 3.0906,-3.3446 4.6631,-6.53745 5.567,-11.30394 0.6307,-3.32589 -0.6321,-9.65743 -2.4738,-12.40302 -0.398,-0.59326 -0.8405,-1.30463 -0.9834,-1.58083 -0.5175,-1.00045 -3.6636,-4.06254 -5.2681,-5.1276 -2.3449,-1.55637 -5.8436,-2.82105 -8.8256,-3.19014 -4.5401,-0.56195 -9.655,0.75341 -13.4443,3.45742 -5.8325,4.16199 -8.8005,10.40886 -8.3643,17.60457 0.2951,4.86856 2.0168,8.70383 5.5598,12.38509 1.6928,1.75885 1.7144,1.80348 1.7979,3.70891 0.047,1.06075 0.055,2.8299 0.019,3.93145 l -0.066,2.0028 -14.1681,-0.0132 c -13.9789,-0.0131 -14.1963,-0.0225 -16.2855,-0.69927 z"
       id="path4924"
       inkscape:connector-curvature="0" />
    <path
       style="fill:#000000;fill-opacity:1"
       d="m 1041.6315,436.62683 c -4.2078,-1.36312 -7.658,-4.67281 -9.4186,-9.03514 l -0.9159,-2.26918 -0.1018,-14.16974 c -0.095,-13.14692 -0.1394,-14.18985 -0.6226,-14.44847 -0.2865,-0.1533 -2.5012,-0.27256 -4.9217,-0.26502 l -4.4009,0.0137 -1.064,1.19189 c -4.2403,4.74979 -10.2966,7.00716 -16.5903,6.18375 -7.485,-0.97928 -13.77201,-6.53377 -15.62331,-13.80311 -0.5884,-2.31039 -0.5845,-7.23517 0.01,-9.50824 1.4518,-5.57347 5.6635,-10.36634 11.11381,-12.64719 1.6601,-0.69469 3.0171,-1.00955 5.3419,-1.23945 2.8451,-0.28137 3.3506,-0.25035 5.805,0.35611 3.4825,0.8605 6.3069,2.439 9.0062,5.03315 l 2.1527,2.06899 4.1161,0.0224 c 2.2639,0.0123 4.4552,-0.10647 4.8697,-0.26403 l 0.7535,-0.28648 0.01,-12.84017 c 0.012,-14.24722 0.1881,-16.1999 1.7538,-19.38038 1.0625,-2.15804 4.4925,-5.59871 6.5972,-6.61756 2.8739,-1.39124 4.4852,-1.51886 19.2477,-1.52436 10.3412,-0.004 13.9015,-0.0946 14.1681,-0.36121 0.2476,-0.24763 0.356,-1.8196 0.356,-5.16175 l 0,-4.80567 -1.0904,-0.95735 c -3.0894,-2.71259 -5.3625,-6.67568 -6.1596,-10.73896 -0.4363,-2.22446 -0.4589,-2.98853 -0.1618,-5.47686 0.4247,-3.5568 1.1021,-5.42077 3.0022,-8.26178 4.3413,-6.49084 11.7983,-9.56614 19.3923,-7.99754 9.7191,2.00752 16.0448,11.0073 14.7335,20.96161 -0.5529,4.19731 -2.3473,7.65217 -5.6671,10.91113 l -1.6474,1.61721 0,4.61376 c 0,2.53757 0.098,4.84742 0.2132,5.133 0.1949,0.48448 1.1683,0.51926 14.5346,0.51929 14.1664,4e-5 14.3506,0.007 16.5681,0.69195 5.014,1.54709 8.8244,5.52714 10.2072,10.6616 0.23,0.85438 0.445,1.28638 0.4775,0.95999 0.033,-0.32638 0.1632,0.0742 0.2902,0.89015 0.3018,1.93734 0.3018,75.8014 0,77.73875 -0.127,0.81596 -0.2602,1.21652 -0.2959,0.89013 -0.036,-0.32638 -0.2322,0.0962 -0.4365,0.93899 -1.2773,5.26662 -6.2809,10.12323 -11.4128,11.07743 -0.9205,0.17116 -7.4313,0.29716 -15.3548,0.29716 l -13.7567,0 0,-3.73891 0,-3.73892 1.8544,-2.00688 c 3.0906,-3.3446 4.6631,-6.53745 5.567,-11.30394 0.6307,-3.32589 -0.6321,-9.65743 -2.4738,-12.40302 -0.398,-0.59326 -0.8405,-1.30463 -0.9834,-1.58083 -0.5175,-1.00045 -3.6636,-4.06254 -5.2681,-5.1276 -2.3449,-1.55637 -5.8436,-2.82105 -8.8256,-3.19014 -4.5401,-0.56195 -9.655,0.75341 -13.4443,3.45742 -5.8325,4.16199 -8.8005,10.40886 -8.3643,17.60457 0.2951,4.86856 2.0168,8.70383 5.5598,12.38509 1.6928,1.75885 1.7144,1.80348 1.7979,3.70891 0.047,1.06075 0.055,2.8299 0.019,3.93145 l -0.066,2.0028 -14.1681,-0.0132 c -13.9788,-0.0131 -14.1962,-0.0225 -16.2855,-0.69927 z"
       id="path4924-2"
       inkscape:connector-curvature="0" />
    <path
       style="fill:#000000;fill-opacity:1"
       d="m 1041.6315,613.79219 c -4.2079,-1.36312 -7.6581,-4.67281 -9.4187,-9.03514 l -0.9159,-2.26918 -0.1017,-14.16974 c -0.094,-13.14692 -0.1395,-14.18985 -0.6226,-14.44847 -0.2865,-0.1533 -2.5013,-0.27256 -4.9218,-0.26502 l -4.4008,0.0137 -1.064,1.19189 c -4.2403,4.74979 -10.2965,7.00716 -16.5902,6.18375 -7.4851,-0.97928 -13.77201,-6.53377 -15.62341,-13.80311 -0.5884,-2.31038 -0.5845,-7.23516 0.01,-9.50823 1.4518,-5.57347 5.6636,-10.36634 11.11391,-12.64719 1.66,-0.69469 3.0171,-1.00955 5.3418,-1.23945 2.8451,-0.28137 3.3506,-0.25035 5.8051,0.35611 3.4824,0.8605 6.3069,2.439 9.0061,5.03315 l 2.1527,2.06899 4.1161,0.0224 c 2.2638,0.0123 4.4552,-0.10647 4.8696,-0.26403 l 0.7535,-0.28648 0.01,-12.84017 c 0.012,-14.24722 0.1882,-16.1999 1.7539,-19.38038 1.0624,-2.15804 4.4924,-5.59871 6.5971,-6.61756 2.8739,-1.39124 4.4852,-1.51886 19.2478,-1.52436 10.3412,-0.004 13.9015,-0.0946 14.1681,-0.36121 0.2476,-0.24763 0.356,-1.8196 0.356,-5.16175 l 0,-4.80567 -1.0904,-0.95735 c -3.0894,-2.71259 -5.3625,-6.67568 -6.1596,-10.73896 -0.4363,-2.22446 -0.4589,-2.98853 -0.1618,-5.47686 0.4247,-3.5568 1.1021,-5.42077 3.0022,-8.26178 4.3413,-6.49084 11.7983,-9.56614 19.3923,-7.99754 9.7191,2.00752 16.0448,11.0073 14.7335,20.96161 -0.5529,4.19731 -2.3473,7.65217 -5.6671,10.91113 l -1.6474,1.61721 0,4.61376 c 0,2.53757 0.098,4.84742 0.2132,5.133 0.1949,0.48448 1.1683,0.51926 14.5346,0.51929 14.1664,4e-5 14.3506,0.007 16.5681,0.69195 5.014,1.54709 8.8244,5.52714 10.2072,10.6616 0.23,0.85438 0.445,1.28638 0.4775,0.95999 0.033,-0.32638 0.1632,0.0742 0.2902,0.89015 0.3018,1.93734 0.3018,75.80139 0,77.73874 -0.127,0.81596 -0.2602,1.21652 -0.2959,0.89013 -0.036,-0.32638 -0.2322,0.0962 -0.4365,0.93899 -1.2773,5.26662 -6.2809,10.12323 -11.4128,11.07743 -0.9205,0.17116 -7.4313,0.29716 -15.3548,0.29716 l -13.7567,0 0,-3.73891 0,-3.73892 1.8544,-2.00688 c 3.0906,-3.3446 4.6631,-6.53745 5.567,-11.30394 0.6307,-3.32589 -0.6321,-9.65743 -2.4738,-12.40302 -0.398,-0.59326 -0.8405,-1.30463 -0.9834,-1.58083 -0.5175,-1.00045 -3.6636,-4.06254 -5.2681,-5.1276 -2.3449,-1.55637 -5.8436,-2.82105 -8.8256,-3.19014 -4.5401,-0.56195 -9.655,0.75341 -13.4443,3.45742 -5.8325,4.16199 -8.8005,10.40886 -8.3643,17.60457 0.2951,4.86856 2.0168,8.70383 5.5598,12.38509 1.6928,1.75885 1.7144,1.80348 1.7979,3.70891 0.047,1.06075 0.055,2.8299 0.019,3.93145 l -0.066,2.0028 -14.1681,-0.0132 c -13.9789,-0.0131 -14.1963,-0.0225 -16.2856,-0.69927 z"
       id="path4924-22"
       inkscape:connector-curvature="0" />
    <path
       style="fill:none;stroke:#000000;stroke-width:9.50314961;stroke-linecap:butt;stroke-linejoin:miter;stroke-opacity:1;stroke-miterlimit:4;stroke-dasharray:none"
       d="m 474,362.09448 72,0"
       id="path4984"
       inkscape:connector-curvature="0" />
    <path
       style="fill:none;stroke:#000000;stroke-width:9.50314999;stroke-linecap:butt;stroke-linejoin:miter;stroke-miterlimit:4;stroke-opacity:1;stroke-dasharray:none"
       d="m 844,374.09448 134,-2"
       id="path4988"
       inkscape:connector-curvature="0" />
    <path
       style="fill:none;stroke:#000000;stroke-width:9.50314999;stroke-linecap:butt;stroke-linejoin:miter;stroke-miterlimit:4;stroke-opacity:1;stroke-dasharray:none"
       d="m 826,444.09448 c 0,0 118,106 136,106"
       id="path4990"
       inkscape:connector-curvature="0" />
    <path
       style="fill:none;stroke:#000000;stroke-width:9.50314999;stroke-linecap:butt;stroke-linejoin:miter;stroke-miterlimit:4;stroke-opacity:1;stroke-dasharray:none"
       d="m 834,290.09448 c 0,0 116,-80 142,-84"
       id="path4992"
       inkscape:connector-curvature="0" />
    <path
       sodipodi:type="star"
       style="stroke-width:9.50314999;stroke-linecap:butt;stroke-miterlimit:4;stroke-dasharray:none"
       id="path4796-2-7"
       sodipodi:sides="3"
       sodipodi:cx="258"
       sodipodi:cy="151.09448"
       sodipodi:r1="24.207438"
       sodipodi:r2="12.103718"
       sodipodi:arg1="0.78539816"
       sodipodi:arg2="1.8325957"
       inkscape:flatsided="false"
       inkscape:rounded="0"
       inkscape:randomized="0"
       d="m 275.11724,168.21173 -20.24991,-5.42595 -20.24992,-5.42595 14.82397,-14.82397 14.82397,-14.82397 5.42594,20.24992 z"
       inkscape:transform-center-x="-10.547143"
       transform="matrix(0.67272217,-0.73989518,0.73989518,0.67272217,251.09646,450.76792)" />
    <path
       sodipodi:type="star"
       style="stroke-width:9.50314999;stroke-linecap:butt;stroke-miterlimit:4;stroke-dasharray:none"
       id="path4796-2-5"
       sodipodi:sides="3"
       sodipodi:cx="258"
       sodipodi:cy="151.09448"
       sodipodi:r1="24.207438"
       sodipodi:r2="12.103718"
       sodipodi:arg1="0.78539816"
       sodipodi:arg2="1.8325957"
       inkscape:flatsided="false"
       inkscape:rounded="0"
       inkscape:randomized="0"
       d="m 275.11724,168.21173 -20.24991,-5.42595 -20.24992,-5.42595 14.82397,-14.82397 14.82397,-14.82397 5.42594,20.24992 z"
       inkscape:transform-center-x="-10.547143"
       transform="matrix(0.67272217,-0.73989518,0.73989518,0.67272217,679.09646,462.76792)" />
    <path
       sodipodi:type="star"
       style="stroke-width:9.50314999;stroke-linecap:butt;stroke-miterlimit:4;stroke-dasharray:none"
       id="path4796-2-3"
       sodipodi:sides="3"
       sodipodi:cx="258"
       sodipodi:cy="151.09448"
       sodipodi:r1="24.207438"
       sodipodi:r2="12.103718"
       sodipodi:arg1="0.78539816"
       sodipodi:arg2="1.8325957"
       inkscape:flatsided="false"
       inkscape:rounded="0"
       inkscape:randomized="0"
       d="m 275.11724,168.21173 -20.24991,-5.42595 -20.24992,-5.42595 14.82397,-14.82397 14.82397,-14.82397 5.42594,20.24992 z"
       transform="matrix(0.20058968,-0.97967534,0.97967534,0.20058968,765.68261,433.49525)"
       inkscape:transform-center-y="2.3666815"
       inkscape:transform-center-x="-3.2815769" />
    <path
       sodipodi:type="star"
       style="stroke-width:9.50314999;stroke-linecap:butt;stroke-miterlimit:4;stroke-dasharray:none"
       id="path4796-2-30"
       sodipodi:sides="3"
       sodipodi:cx="258"
       sodipodi:cy="151.09448"
       sodipodi:r1="24.207438"
       sodipodi:r2="12.103718"
       sodipodi:arg1="0.78539816"
       sodipodi:arg2="1.8325957"
       inkscape:flatsided="false"
       inkscape:rounded="0"
       inkscape:randomized="0"
       d="m 275.11724,168.21173 -20.24991,-5.42595 -20.24992,-5.42595 14.82397,-14.82397 14.82397,-14.82397 5.42594,20.24992 z"
       inkscape:transform-center-x="-7.1964755"
       transform="matrix(0.89781936,-0.44036393,0.44036393,0.89781936,656.13953,525.35852)"
       inkscape:transform-center-y="-2.6094904" />
  </g>
</svg>
