<?xml version="1.0" encoding="UTF-8" standalone="no"?>
<!-- Created with Inkscape (http://www.inkscape.org/) -->

<svg
   xmlns:dc="http://purl.org/dc/elements/1.1/"
   xmlns:cc="http://creativecommons.org/ns#"
   xmlns:rdf="http://www.w3.org/1999/02/22-rdf-syntax-ns#"
   xmlns:svg="http://www.w3.org/2000/svg"
   xmlns="http://www.w3.org/2000/svg"
   xmlns:sodipodi="http://sodipodi.sourceforge.net/DTD/sodipodi-0.dtd"
   xmlns:inkscape="http://www.inkscape.org/namespaces/inkscape"
   id="svg1316"
   version="1.1"
   inkscape:version="0.48.4 r9939"
   width="100%"
   height="100%"
   sodipodi:docname="SAP_Logo_by_SPA.svg"
   inkscape:export-filename="H:\Abschlusspraesi\SAP_Logo_by_SPA.png"
   inkscape:export-xdpi="12.856271"
   inkscape:export-ydpi="12.856271">
  <metadata
     id="metadata1322">
    <rdf:RDF>
      <cc:Work
         rdf:about="">
        <dc:format>image/svg+xml</dc:format>
        <dc:type
           rdf:resource="http://purl.org/dc/dcmitype/StillImage" />
        <dc:title></dc:title>
      </cc:Work>
    </rdf:RDF>
  </metadata>
  <defs
     id="defs1320" />
  <sodipodi:namedview
     pagecolor="#ffffff"
     bordercolor="#666666"
     borderopacity="1"
     objecttolerance="10"
     gridtolerance="10"
     guidetolerance="10"
     inkscape:pageopacity="0"
     inkscape:pageshadow="2"
     inkscape:window-width="1074"
     inkscape:window-height="480"
     id="namedview1318"
     showgrid="false"
     showguides="true"
     inkscape:guide-bbox="true"
     inkscape:zoom="0.22425739"
     inkscape:cx="-40.384409"
     inkscape:cy="596.75515"
     inkscape:window-x="227"
     inkscape:window-y="473"
     inkscape:window-maximized="0"
     inkscape:current-layer="svg1316" />
  <rect
     style="color:#000000;fill:#034185;fill-opacity:1;fill-rule:nonzero;stroke:none;stroke-width:1px;marker:none;visibility:visible;display:inline;overflow:visible;enable-background:accumulate"
     id="rect1439"
     width="896.06079"
     height="896.06079"
     x="-111.99747"
     y="82.478531"
     ry="0" />
  <g
     id="g1462"
     transform="translate(-416.93164,113.70862)">
    <path
       id="path25030"
       style="fill:#ffffff;fill-opacity:1;fill-rule:nonzero;stroke:none"
       d="m 416.47357,618.14564 375.32034,0 368.04669,-367.88667 -743.36703,0 0,367.88667"
       inkscape:connector-curvature="0" />
    <path
       id="path25034"
       style="fill:#ffffff;fill-opacity:1;fill-rule:nonzero;stroke:none"
       d="m 883.4419,594.6372 c 0,-11.24506 8.72838,-19.81342 18.91149,-19.81342 10.18311,0 18.91149,8.56836 18.91149,19.81342 0,11.66693 -8.72838,20.07527 -18.91149,20.07527 -10.18311,0 -18.91149,-8.40834 -18.91149,-20.07527 z m 18.91149,24.06123 c 13.09257,0 24.73041,-10.19765 24.73041,-24.06123 0,-13.65992 -11.63784,-23.69755 -24.73041,-23.69755 -13.09257,0 -24.73041,10.03763 -24.73041,23.69755 0,13.86358 11.63784,24.06123 24.73041,24.06123 z m -4.36419,-22.06825 4.36419,0 7.27365,11.8706 4.36419,0 -7.27365,-12.10336 c 2.90946,-0.49461 7.27365,-2.63306 7.27365,-7.52095 0,-5.48433 -4.36419,-7.89919 -10.18311,-7.89919 l -10.18311,0 0,27.5235 4.36419,0 0,-11.8706 z m 0,-3.54954 0,-8.59746 5.81892,0 c 1.45473,0 5.81892,0.66918 5.81892,4.14598 0,4.17508 -4.36419,4.45148 -7.27365,4.45148 l -4.36419,0"
       inkscape:connector-curvature="0" />
    <path
       id="path25032"
       style="fill:#034185;fill-opacity:1;fill-rule:evenodd;stroke:none"
       d="m 857.25676,319.40228 -72.7365,-0.0145 0,174.0148 -64.00812,-174.0148 -62.55339,0 -55.27974,145.53119 c -5.81892,-36.6592 -43.6419,-49.3299 -74.19123,-58.81474 -18.91149,-6.37172 -40.73244,-15.74018 -39.27771,-25.98148 0,-8.49562 10.18311,-16.29297 32.00406,-15.12919 14.5473,0.74191 27.63987,1.94934 53.82501,14.43092 l 26.18514,-44.32562 c -24.73041,-11.98697 -56.73447,-19.56612 -82.91961,-19.59521 l 0,0 c -32.00406,0 -58.1892,10.06673 -74.19123,26.75248 -10.18311,11.60875 -17.45676,26.34516 -17.45676,42.68178 0,22.47558 8.72838,38.41942 24.73041,51.11921 16.00203,10.69227 33.45879,17.66042 50.91555,22.76653 20.36622,6.29898 36.36825,11.75422 36.36825,23.45024 0,4.32055 -1.45473,8.24832 -4.36419,11.40509 -5.81892,5.22248 -13.09257,7.20091 -24.73041,7.44822 -20.36622,0.37822 -34.91352,-2.86582 -59.64393,-17.31129 l -23.27568,44.87842 c 24.73041,13.90722 53.82501,22.0828 82.91961,22.0828 l 4.36419,-0.0291 c 24.73041,-0.46552 46.55136,-7.8119 62.55339,-21.16633 1.45473,-0.78555 1.45473,-1.51292 2.90946,-2.24028 l -7.27365,19.53702 66.91758,0 10.18311,-33.86611 c 11.63784,3.89868 24.73041,6.16805 39.27771,6.16805 14.5473,0 26.18514,-2.19664 37.82298,-5.89165 l 11.63784,33.58971 107.65002,0 0,-70.24891 24.73041,0 c 56.73447,0 90.19326,-29.10915 90.19326,-77.92988 0,-54.34872 -32.00406,-79.29734 -103.28583,-79.29734 z m -168.74868,148.9789 c -8.72838,0 -16.00203,-1.51292 -23.27568,-4.16052 l 23.27568,-73.20202 0,0 23.27568,73.43477 c -7.27365,2.50214 -14.5473,3.92777 -23.27568,3.92777 z m 173.11287,-42.09988 -16.00203,0 0,-59.0184 16.00203,0 c 21.82095,0 39.27771,7.14272 39.27771,29.21098 0,22.69379 -17.45676,29.80742 -39.27771,29.80742"
       inkscape:connector-curvature="0" />
  </g>
</svg>
