<?xml version="1.0" encoding="UTF-8" standalone="no"?>
<!-- Created with Inkscape (http://www.inkscape.org/) -->

<svg
   xmlns:dc="http://purl.org/dc/elements/1.1/"
   xmlns:cc="http://creativecommons.org/ns#"
   xmlns:rdf="http://www.w3.org/1999/02/22-rdf-syntax-ns#"
   xmlns:svg="http://www.w3.org/2000/svg"
   xmlns="http://www.w3.org/2000/svg"
   xmlns:sodipodi="http://sodipodi.sourceforge.net/DTD/sodipodi-0.dtd"
   xmlns:inkscape="http://www.inkscape.org/namespaces/inkscape"
   width="210mm"
   height="297mm"
   id="svg3005"
   version="1.1"
   inkscape:version="0.48.4 r9939"
   sodipodi:docname="Neues Dokument 4">
  <defs
     id="defs3" />
  <sodipodi:namedview
     inkscape:document-units="mm"
     id="base"
     pagecolor="#ffffff"
     bordercolor="#666666"
     borderopacity="1.0"
     inkscape:pageopacity="0.0"
     inkscape:pageshadow="2"
     inkscape:zoom="1"
     inkscape:cx="383.73866"
     inkscape:cy="650.30717"
     inkscape:current-layer="layer1"
     showgrid="false"
     inkscape:window-width="1366"
     inkscape:window-height="741"
     inkscape:window-x="0"
     inkscape:window-y="0"
     inkscape:window-maximized="1" />
  <metadata
     id="metadata4">
    <rdf:RDF>
      <cc:Work
         rdf:about="">
        <dc:format>image/svg+xml</dc:format>
        <dc:type
           rdf:resource="http://purl.org/dc/dcmitype/StillImage" />
        <dc:title></dc:title>
      </cc:Work>
    </rdf:RDF>
  </metadata>
  <g
     inkscape:label="Layer 1"
     inkscape:groupmode="layer"
     id="layer1">
    <path
       style="fill:#000000;fill-opacity:1"
       d="M 68 143.375 L 68 507.375 L 477 507.375 L 477 143.375 L 68 143.375 z M 80 214.375 L 201 214.375 L 201 262.375 L 80 262.375 L 80 214.375 z M 211.5 214.375 L 332.5 214.375 L 332.5 262.375 L 211.5 262.375 L 211.5 214.375 z M 344.5 214.375 L 465.5 214.375 L 465.5 262.375 L 344.5 262.375 L 344.5 214.375 z M 80.25 272.875 L 201.25 272.875 L 201.25 320.875 L 80.25 320.875 L 80.25 272.875 z M 211.75 272.875 L 332.75 272.875 L 332.75 320.875 L 211.75 320.875 L 211.75 272.875 z M 344.75 272.875 L 465.75 272.875 L 465.75 320.875 L 344.75 320.875 L 344.75 272.875 z M 81.25 331.875 L 202.25 331.875 L 202.25 379.875 L 81.25 379.875 L 81.25 331.875 z M 212.75 331.875 L 333.75 331.875 L 333.75 379.875 L 212.75 379.875 L 212.75 331.875 z M 345.75 331.875 L 466.75 331.875 L 466.75 379.875 L 345.75 379.875 L 345.75 331.875 z M 80.25 391.875 L 201.25 391.875 L 201.25 439.875 L 80.25 439.875 L 80.25 391.875 z M 211.75 391.875 L 332.75 391.875 L 332.75 439.875 L 211.75 439.875 L 211.75 391.875 z M 344.75 391.875 L 465.75 391.875 L 465.75 439.875 L 344.75 439.875 L 344.75 391.875 z M 80.25 448.875 L 201.25 448.875 L 201.25 496.875 L 80.25 496.875 L 80.25 448.875 z M 211.75 448.875 L 332.75 448.875 L 332.75 496.875 L 211.75 496.875 L 211.75 448.875 z M 344.75 448.875 L 465.75 448.875 L 465.75 496.875 L 344.75 496.875 L 344.75 448.875 z "
       id="rect3797" />
  </g>
</svg>
