<?xml version="1.0" encoding="UTF-8" standalone="no"?>
<!-- Created with Inkscape (http://www.inkscape.org/) -->

<svg
   xmlns:osb="http://www.openswatchbook.org/uri/2009/osb"
   xmlns:dc="http://purl.org/dc/elements/1.1/"
   xmlns:cc="http://creativecommons.org/ns#"
   xmlns:rdf="http://www.w3.org/1999/02/22-rdf-syntax-ns#"
   xmlns:svg="http://www.w3.org/2000/svg"
   xmlns="http://www.w3.org/2000/svg"
   xmlns:xlink="http://www.w3.org/1999/xlink"
   xmlns:sodipodi="http://sodipodi.sourceforge.net/DTD/sodipodi-0.dtd"
   xmlns:inkscape="http://www.inkscape.org/namespaces/inkscape"
   id="svg2"
   version="1.1"
   inkscape:version="0.48.4 r9939"
   width="100%"
   height="100%"
   sodipodi:docname="Wareneingang.svg">
  <title
     id="title1314">Wareneingang</title>
  <metadata
     id="metadata8">
    <rdf:RDF>
      <cc:Work
         rdf:about="">
        <dc:format>image/svg+xml</dc:format>
        <dc:type
           rdf:resource="http://purl.org/dc/dcmitype/StillImage" />
        <dc:title>Wareneingang</dc:title>
      </cc:Work>
    </rdf:RDF>
  </metadata>
  <defs
     id="defs6">
    <pattern
       patternUnits="userSpaceOnUse"
       width="140.75"
       height="145.28125"
       patternTransform="translate(160.5625,579.75)"
       id="pattern87">
      <path
         id="rect103"
         d="M 0,0 0,3.15625 3.15625,0 0,0 z M 8.125,0 0,8.125 0,14.46875 14.46875,0 8.125,0 z M 19.4375,0 0,19.40625 0,25.78125 25.78125,0 19.4375,0 z M 30.75,0 0,30.71875 0,37.09375 37.09375,0 30.75,0 z M 42.0625,0 0,42.03125 0,48.40625 48.40625,0 42.0625,0 z M 53.375,0 0,53.34375 0,59.71875 59.71875,0 53.375,0 z M 64.6875,0 0,64.65625 0,71.03125 71.03125,0 64.6875,0 z M 76,0 0,75.96875 0,82.34375 82.375,0 76,0 z M 87.3125,0 0,87.28125 0,93.65625 93.6875,0 87.3125,0 z M 98.625,0 0,98.59375 0,104.96875 105,0 98.625,0 z M 109.9375,0 0,109.9375 0,116.28125 116.3125,0 109.9375,0 z M 121.25,0 0,121.25 0,127.59375 127.625,0 121.25,0 z M 132.5625,0 0,132.5625 0,138.90625 138.9375,0 132.5625,0 z M 140.75,3.125 0,143.875 l 0,1.40625 4.9375,0 L 140.75,9.5 l 0,-6.375 z m 0,11.3125 -130.84375,130.84375 6.34375,0 124.5,-124.46875 0,-6.375 z m 0,11.3125 -119.53125,119.53125 6.34375,0 L 140.75,32.125 l 0,-6.375 z m 0,11.3125 -108.21875,108.21875 6.34375,0 101.875,-101.84375 0,-6.375 z m 0,11.3125 -96.90625,96.90625 6.34375,0 L 140.75,54.75 l 0,-6.375 z m 0,11.3125 -85.59375,85.59375 6.34375,0 79.25,-79.21875 0,-6.375 z m 0,11.3125 -74.28125,74.28125 6.375,0 L 140.75,77.375 140.75,71 z m 0,11.3125 -62.96875,62.96875 6.375,0 56.59375,-56.59375 0,-6.375 z m 0,11.3125 -51.65625,51.65625 6.375,0 L 140.75,100 l 0,-6.375 z m 0,11.3125 -40.34375,40.34375 6.375,0 33.96875,-33.96875 0,-6.375 z m 0,11.3125 -29.03125,29.03125 6.375,0 22.65625,-22.65625 0,-6.375 z m 0,11.3125 -17.71875,17.71875 6.375,0 11.34375,-11.34375 0,-6.375 z m 0,11.3125 -6.40625,6.40625 6.375,0 0.0312,-0.0312 0,-6.375 z"
         style="color:#000000;fill:#000000;fill-opacity:1;fill-rule:nonzero;stroke:none;stroke-width:1px;marker:none;visibility:visible;display:inline;overflow:visible;enable-background:accumulate"
         inkscape:connector-curvature="0" />
    </pattern>
  </defs>
  <sodipodi:namedview
     pagecolor="#ffffff"
     bordercolor="#666666"
     borderopacity="1"
     objecttolerance="10"
     gridtolerance="10"
     guidetolerance="10"
     inkscape:pageopacity="0"
     inkscape:pageshadow="2"
     inkscape:window-width="1366"
     inkscape:window-height="741"
     id="namedview4"
     showgrid="false"
     inkscape:zoom="2"
     inkscape:cx="184.28372"
     inkscape:cy="750.42395"
     inkscape:window-x="0"
     inkscape:window-y="0"
     inkscape:window-maximized="1"
     inkscape:current-layer="svg2"
     inkscape:snap-bbox="true"
     inkscape:snap-global="true" />
  <g
     id="g48"
     transform="matrix(2.0201414,23.686113,23.85838,-2.0348337,2666.9209,740.23394)" />
  <g
     id="g50"
     transform="matrix(2.0201414,23.686113,23.85838,-2.0348337,2666.9209,740.23394)" />
  <g
     id="g52"
     transform="matrix(2.0201414,23.686113,23.85838,-2.0348337,2666.9209,740.23394)" />
  <g
     id="g54"
     transform="matrix(2.0201414,23.686113,23.85838,-2.0348337,2666.9209,740.23394)" />
  <g
     id="g56"
     transform="matrix(2.0201414,23.686113,23.85838,-2.0348337,2666.9209,740.23394)" />
  <g
     id="g58"
     transform="matrix(2.0201414,23.686113,23.85838,-2.0348337,2666.9209,740.23394)" />
  <g
     id="g60"
     transform="matrix(2.0201414,23.686113,23.85838,-2.0348337,2666.9209,740.23394)" />
  <g
     id="g62"
     transform="matrix(2.0201414,23.686113,23.85838,-2.0348337,2666.9209,740.23394)" />
  <g
     id="g64"
     transform="matrix(2.0201414,23.686113,23.85838,-2.0348337,2666.9209,740.23394)" />
  <g
     id="g66"
     transform="matrix(2.0201414,23.686113,23.85838,-2.0348337,2666.9209,740.23394)" />
  <g
     id="g68"
     transform="matrix(2.0201414,23.686113,23.85838,-2.0348337,2666.9209,740.23394)" />
  <g
     id="g70"
     transform="matrix(2.0201414,23.686113,23.85838,-2.0348337,2666.9209,740.23394)" />
  <g
     id="g72"
     transform="matrix(2.0201414,23.686113,23.85838,-2.0348337,2666.9209,740.23394)" />
  <g
     id="g74"
     transform="matrix(2.0201414,23.686113,23.85838,-2.0348337,2666.9209,740.23394)" />
  <g
     id="g76"
     transform="matrix(2.0201414,23.686113,23.85838,-2.0348337,2666.9209,740.23394)" />
  <flowRoot
     xml:space="preserve"
     id="flowRoot1053"
     style="fill:black;stroke:none;stroke-opacity:1;stroke-width:1px;stroke-linejoin:miter;stroke-linecap:butt;fill-opacity:1;font-family:URW Gothic L;font-style:normal;font-weight:normal;font-size:160px;line-height:125%;letter-spacing:0px;word-spacing:0px;-inkscape-font-specification:URW Gothic L;font-stretch:normal;font-variant:normal;text-anchor:start;text-align:start;writing-mode:lr"><flowRegion
       id="flowRegion1055"><rect
         id="rect1057"
         width="845.03174"
         height="365.76001"
         x="176.57379"
         y="737.05182"
         style="font-size:160px" /></flowRegion><flowPara
       id="flowPara1059" /></flowRoot>  <path
     style="fill:#000000"
     d="m 630.91184,218.67904 c -0.79852,-0.24043 -1.48225,-0.77369 -1.87788,-1.46462 l -0.39172,-0.68409 0,-38.42592 0,-38.42591 0.42196,-0.71772 c 0.25994,-0.44214 0.6876,-0.86981 1.11379,-1.1138 0.67253,-0.38502 0.79241,-0.39748 4.29508,-0.44645 4.21235,-0.0589 4.68661,0.0236 5.64166,0.98139 0.8808,0.88332 1.01792,1.6056 1.01792,5.3618 l 0,3.01533 10.97883,0 10.97884,0 0.004,-3.46072 c 0.004,-3.85858 0.1059,-4.34141 1.0926,-5.17166 0.78161,-0.65768 1.4316,-0.75355 5.10933,-0.75355 3.67773,0 4.32772,0.0959 5.10933,0.75355 0.9867,0.83025 1.08871,1.31308 1.0926,5.17166 l 0.003,3.46072 10.97883,0 10.97884,0 0,-3.01533 c 0,-3.7562 0.13712,-4.47848 1.01792,-5.3618 0.95505,-0.95779 1.4293,-1.04029 5.64166,-0.98139 3.56999,0.0499 3.60986,0.0543 4.32096,0.47234 0.44214,0.25994 0.8698,0.6876 1.11379,1.11379 l 0.39608,0.69184 0,38.42591 0,38.42592 -0.42196,0.71772 c -0.25994,0.44214 -0.68761,0.8698 -1.1138,1.11379 -0.67252,0.38502 -0.79241,0.39748 -4.29507,0.44646 -4.21236,0.0589 -4.68661,-0.0236 -5.64166,-0.98139 -0.8808,-0.88333 -1.01792,-1.6056 -1.01792,-5.36181 l 0,-3.01532 -10.97884,0 -10.97883,0 -0.004,3.46072 c -0.004,3.85858 -0.1059,4.3414 -1.0926,5.17165 -0.78161,0.65769 -1.4316,0.75355 -5.10933,0.75355 -3.67774,0 -4.32772,-0.0959 -5.10934,-0.75355 -0.9867,-0.83025 -1.0887,-1.31307 -1.0926,-5.17165 l -0.003,-3.46072 -10.97884,0 -10.97883,0 0,3.01532 c 0,3.75378 -0.13739,4.47875 -1.01572,5.3596 -0.38564,0.38675 -0.91812,0.73068 -1.29195,0.83446 -0.73825,0.20494 -7.24423,0.22129 -7.91314,0.0199 z m 32.17848,-21.71967 0,-6.28499 -10.97884,0 -10.97883,0 0,6.28499 0,6.28498 10.97883,0 10.97884,0 0,-6.28498 z m 34.36852,0 0,-6.28499 -10.97884,0 -10.97883,0 0,6.28499 0,6.28498 10.97883,0 10.97884,0 0,-6.28498 z m -34.44808,-18.85496 0,-6.28498 -10.93906,-0.0409 -10.93905,-0.0409 0,6.36673 0,6.36674 10.93905,-0.0409 10.93906,-0.0409 0,-6.28499 z m 34.44808,-0.001 0,-6.36564 -10.93906,0.0409 -10.93905,0.0409 -0.0417,6.12543 c -0.0229,3.36899 -0.007,6.21513 0.0348,6.32476 0.0602,0.15704 2.39126,0.19935 10.98076,0.19935 l 10.90427,0 0,-6.36563 z m -34.36852,-18.85384 0,-6.28498 -10.97884,0 -10.97883,0 0,6.28498 0,6.28498 10.97883,0 10.97884,0 0,-6.28498 z m 34.36852,0 0,-6.28498 -10.97884,0 -10.97883,0 0,6.28498 0,6.28498 10.97883,0 10.97884,0 0,-6.28498 z"
     id="path3050"
     inkscape:connector-curvature="0" />
  <rect
     style="color:#000000;fill:#000000;fill-opacity:1;fill-rule:nonzero;stroke:none;stroke-width:1px;marker:none;visibility:visible;display:inline;overflow:visible;enable-background:accumulate"
     id="rect142"
     width="169.73271"
     height="7.937943"
     x="304.84854"
     y="357.18652"
     ry="1.2686914" />
  <path
     sodipodi:type="arc"
     style="fill:#000000;fill-opacity:1;stroke:none"
     id="path160"
     sodipodi:cx="3821.5615"
     sodipodi:cy="516.33459"
     sodipodi:rx="69.368279"
     sodipodi:ry="69.368279"
     d="m 3890.9298,516.33459 a 69.368279,69.368279 0 1 1 -138.7366,0 69.368279,69.368279 0 1 1 138.7366,0 z"
     transform="matrix(0.11380537,0,0,0.11380537,-78.833915,315.6492)" />
  <path
     sodipodi:type="arc"
     style="fill:#000000;fill-opacity:1;stroke:none"
     id="path160-1"
     sodipodi:cx="3821.5615"
     sodipodi:cy="516.33459"
     sodipodi:rx="69.368279"
     sodipodi:ry="69.368279"
     d="m 3890.9298,516.33459 a 69.368279,69.368279 0 1 1 -138.7366,0 69.368279,69.368279 0 1 1 138.7366,0 z"
     transform="matrix(0.11380537,0,0,0.11380537,-44.692304,315.6492)" />
  <path
     sodipodi:type="arc"
     style="fill:#000000;fill-opacity:1;stroke:none"
     id="path160-1-7"
     sodipodi:cx="3821.5615"
     sodipodi:cy="516.33459"
     sodipodi:rx="69.368279"
     sodipodi:ry="69.368279"
     d="m 3890.9298,516.33459 a 69.368279,69.368279 0 1 1 -138.7366,0 69.368279,69.368279 0 1 1 138.7366,0 z"
     transform="matrix(0.11380537,0,0,0.11380537,-10.550693,315.6492)" />
  <path
     sodipodi:type="arc"
     style="fill:#000000;fill-opacity:1;stroke:none"
     id="path160-1-0"
     sodipodi:cx="3821.5615"
     sodipodi:cy="516.33459"
     sodipodi:rx="69.368279"
     sodipodi:ry="69.368279"
     d="m 3890.9298,516.33459 a 69.368279,69.368279 0 1 1 -138.7366,0 69.368279,69.368279 0 1 1 138.7366,0 z"
     transform="matrix(0.11380537,0,0,0.11380537,-112.97553,315.64918)" />
  <rect
     style="color:#000000;fill:url(#pattern87);fill-opacity:1;fill-rule:nonzero;stroke:none;stroke-width:1px;marker:none;visibility:visible;display:inline;overflow:visible;enable-background:accumulate"
     id="rect245"
     width="30.142561"
     height="29.424887"
     x="342.92883"
     y="321.71188"
     ry="3.2295611" />
  <rect
     style="color:#000000;fill:#000000;fill-opacity:1;fill-rule:nonzero;stroke:none;stroke-width:1px;marker:none;visibility:visible;display:inline;overflow:visible;enable-background:accumulate"
     id="rect245-9"
     width="30.142561"
     height="29.424887"
     x="406.41245"
     y="321.71188"
     ry="3.2295611" />
  <path
     style="fill:#000000;fill-opacity:1;fill-rule:evenodd;stroke:none"
     d="m 367.34375,260.53125 c -2.55496,0 -4.625,2.07005 -4.625,4.625 l 0,43.625 c 0,2.55496 2.07004,4.59375 4.625,4.59375 l 34.40625,0 c 2.55494,0 4.59375,-2.03879 4.59375,-4.59375 l 0,-28.65625 -18.65625,-19.59375 -20.34375,0 z m 3.9375,10 c 1.45469,0 2.625,1.20157 2.625,2.65625 0,1.45468 -1.17031,2.625 -2.625,2.625 -1.45468,0 -2.625,-1.17032 -2.625,-2.625 0,-1.45468 1.17032,-2.65625 2.625,-2.65625 z m 0,27.46875 c 1.45469,0 2.625,1.20157 2.625,2.65625 0,1.45468 -1.17031,2.625 -2.625,2.625 -1.45468,0 -2.625,-1.17032 -2.625,-2.625 0,-1.45468 1.17032,-2.65625 2.625,-2.65625 z"
     id="path411-1"
     inkscape:connector-curvature="0" />
  <g
     id="g616"
     transform="matrix(0.15301337,0,0,0.15495827,114.92564,407.07732)">
    <path
       id="path44"
       d="m 3136.7355,411.89985 c -66.7142,-55.256 -75.481,-153.7841 -19.6066,-219.9584 52.7397,-62.4521 144.2169,-73.8292 210.4266,-28.3833 l 0.6258,0.4923 c 12.7153,9.2497 17.4287,12.8822 24.5618,21.0202 53.9664,56.7548 57.7428,145.8713 5.9082,207.2049 -55.8728,66.1907 -155.2567,75.0173 -221.9158,19.6243 z m 191.7252,-44.6454 c 41.975,-49.649 35.3472,-123.5282 -14.645,-164.9987 -50.0281,-41.5005 -124.5529,-34.9229 -166.51,14.7411 -41.931,49.5791 -35.2492,123.5033 14.7098,164.9766 50.0144,41.5347 124.5709,34.938 166.4452,-14.719 z"
       style="fill:#000000"
       inkscape:connector-curvature="0" />
    <polygon
       transform="matrix(1.4020084,16.412612,16.558073,-1.4099796,3053.38,-16.818616)"
       id="polygon46"
       points="2.389,29.524 12.718,18.325 10.996,16.599 0,26.937 "
       style="fill:#000000" />
  </g>
  <rect
     style="color:#000000;fill:#000000;fill-opacity:1;fill-rule:nonzero;stroke:none;stroke-width:1px;marker:none;visibility:visible;display:inline;overflow:visible;enable-background:accumulate"
     id="rect142-6"
     width="133.50142"
     height="7.937943"
     x="531.71948"
     y="491.61264"
     ry="1.2686914" />
  <path
     sodipodi:type="arc"
     style="fill:#000000;fill-opacity:1;stroke:none"
     id="path160-8"
     sodipodi:cx="3821.5615"
     sodipodi:cy="516.33459"
     sodipodi:rx="69.368279"
     sodipodi:ry="69.368279"
     d="m 3890.9298,516.33459 a 69.368279,69.368279 0 1 1 -138.7366,0 69.368279,69.368279 0 1 1 138.7366,0 z"
     transform="matrix(0.11380537,0,0,0.11380537,142.02662,450.07532)" />
  <path
     sodipodi:type="arc"
     style="fill:#000000;fill-opacity:1;stroke:none"
     id="path160-1-5"
     sodipodi:cx="3821.5615"
     sodipodi:cy="516.33459"
     sodipodi:rx="69.368279"
     sodipodi:ry="69.368279"
     d="m 3890.9298,516.33459 a 69.368279,69.368279 0 1 1 -138.7366,0 69.368279,69.368279 0 1 1 138.7366,0 z"
     transform="matrix(0.11380537,0,0,0.11380537,176.16823,450.07532)" />
  <path
     sodipodi:type="arc"
     style="fill:#000000;fill-opacity:1;stroke:none"
     id="path160-1-7-7"
     sodipodi:cx="3821.5615"
     sodipodi:cy="516.33459"
     sodipodi:rx="69.368279"
     sodipodi:ry="69.368279"
     d="m 3890.9298,516.33459 a 69.368279,69.368279 0 1 1 -138.7366,0 69.368279,69.368279 0 1 1 138.7366,0 z"
     transform="matrix(0.11380537,0,0,0.11380537,210.30984,450.07532)" />
  <path
     sodipodi:type="arc"
     style="fill:#000000;fill-opacity:1;stroke:none"
     id="path160-1-0-6"
     sodipodi:cx="3821.5615"
     sodipodi:cy="516.33459"
     sodipodi:rx="69.368279"
     sodipodi:ry="69.368279"
     d="m 3890.9298,516.33459 a 69.368279,69.368279 0 1 1 -138.7366,0 69.368279,69.368279 0 1 1 138.7366,0 z"
     transform="matrix(0.11380537,0,0,0.11380537,107.88501,450.0753)" />
  <rect
     style="color:#000000;fill:url(#pattern87);fill-opacity:1;fill-rule:nonzero;stroke:none;stroke-width:1px;marker:none;visibility:visible;display:inline;overflow:visible;enable-background:accumulate"
     id="rect245-1"
     width="30.142561"
     height="29.424887"
     x="553.02448"
     y="456.13803"
     ry="3.2295611" />
  <rect
     style="color:#000000;fill:url(#pattern87);fill-opacity:1;fill-rule:nonzero;stroke:none;stroke-width:1px;marker:none;visibility:visible;display:inline;overflow:visible;enable-background:accumulate"
     id="rect245-9-8"
     width="30.142561"
     height="29.424887"
     x="616.50806"
     y="456.13803"
     ry="3.2295611" />
  <path
     style="color:#000000;fill:#010101;fill-opacity:1;fill-rule:nonzero;stroke:none;stroke-width:1px;marker:none;visibility:visible;display:inline;overflow:visible;enable-background:accumulate"
     d="m 550.55796,650.51278 c -6.47635,0 -11.68902,5.21268 -11.68902,11.68905 l 0,56.26945 c 0,6.47636 5.21267,11.68903 11.68902,11.68903 l 97.67533,0 c 6.47637,0 11.69246,-5.21267 11.69246,-11.68903 l 0,-56.26945 c 0,-6.47637 -5.21609,-11.68905 -11.69246,-11.68905 l -97.67533,0 z m -1.07072,10.9433 6.91351,0 22.20129,52.23629 22.28337,-52.23629 6.83141,0 -26.12838,59.66636 -6.14727,0 -25.95393,-59.66636 z m 65.50231,0 34.49579,0 0,5.41177 -28.17749,0 0,21.39396 27.23675,0 0,5.41178 -27.23675,0 0,22.0405 28.17749,0 0,5.40835 -34.49579,0 0,-59.66636 z"
     id="rect676"
     inkscape:connector-curvature="0" />
  <path
     style="fill:#000000"
     d="m 51.118576,363.00607 c -5.039862,-0.78399 -8.99767,-4.74938 -9.761747,-9.78045 -0.934421,-6.1527 3.069797,-11.89731 9.218184,-13.22478 1.001085,-0.21614 3.656352,-0.21362 4.674456,0.004 3.461315,0.74133 6.416555,2.96386 8.021337,6.03255 0.889197,1.70034 1.294814,3.40313 1.294814,5.43567 0,3.24681 -1.131979,5.98262 -3.412633,8.24778 -1.832957,1.82051 -3.998608,2.91057 -6.528927,3.28629 -1.072159,0.1592 -2.476309,0.1586 -3.505484,-0.001 z m 2.83109,-6.23622 c 3.496269,-0.69495 5.366995,-4.48126 3.811713,-7.71482 -0.380137,-0.79034 -1.299002,-1.77994 -2.079814,-2.23991 -0.946939,-0.55784 -1.594637,-0.72626 -2.782501,-0.72353 -0.893,0.002 -1.111603,0.0324 -1.690448,0.2351 -1.825979,0.63927 -3.225541,2.20443 -3.608703,4.03571 -0.433319,2.071 0.420486,4.23632 2.163138,5.4859 1.259999,0.90349 2.69184,1.21867 4.186615,0.92155 z m 67.623964,6.31792 c -5.19213,-0.64154 -9.24482,-4.43225 -10.22391,-9.56301 -0.19884,-1.04195 -0.19999,-3.05575 -0.002,-4.14192 0.86117,-4.73332 4.56929,-8.47572 9.32886,-9.41508 0.92618,-0.1828 3.65301,-0.15721 4.5726,0.0429 3.47754,0.75676 6.50356,3.08233 8.07751,6.20779 0.38708,0.76863 0.83938,2.09996 1.03039,3.03285 0.21695,1.05964 0.22043,3.28479 0.007,4.35583 -0.94111,4.71859 -4.39699,8.25539 -9.07199,9.28443 -0.75136,0.16538 -3.00487,0.28431 -3.71791,0.19621 z m 2.95655,-6.48603 c 2.09625,-0.70369 3.45563,-2.41161 3.75261,-4.71475 0.19376,-1.50274 -0.65606,-3.49768 -1.94796,-4.57281 -2.18164,-1.81558 -5.31357,-1.65931 -7.32963,0.36572 -1.00806,1.01254 -1.55256,2.34822 -1.54631,3.79319 0.006,1.50277 0.50422,2.68671 1.58539,3.77115 0.88615,0.88883 1.91074,1.42109 3.0849,1.60256 0.60666,0.0938 1.73461,-0.0214 2.401,-0.24506 z m 13.41811,-8.77755 c -0.67429,-2.23918 -1.42326,-3.87485 -2.41874,-5.28223 -0.82599,-1.16777 -2.74205,-3.05494 -3.87055,-3.81217 -1.19684,-0.8031 -1.85477,-1.15831 -2.9918,-1.61528 -2.04606,-0.8223 -3.52734,-1.10357 -5.81153,-1.10352 -1.36703,3e-5 -1.84953,0.0345 -2.68392,0.19166 -1.44827,0.2728 -2.98644,0.79904 -4.32299,1.47897 -1.36371,0.69374 -2.39831,1.41435 -3.48445,2.42694 l -0.79059,0.73705 0,-17.31537 0,-17.31537 10.44862,0.0227 10.44862,0.0227 0.50262,0.18976 c 0.59236,0.22364 1.43829,0.73993 2.03916,1.24453 0.66961,0.56233 2.66278,3.44914 4.53686,6.57097 2.93189,4.88392 4.67212,9.07949 5.0124,12.08454 0.0674,0.59501 0.0887,3.76164 0.0709,10.55093 l -0.0253,9.70076 -0.23732,0.40371 c -0.15389,0.26179 -0.37922,0.48713 -0.64102,0.64102 l -0.4037,0.23731 -2.67187,0.0259 c -2.1384,0.0207 -2.67856,0.004 -2.7054,-0.0855 z m 0.29932,-27.99569 c -1.16582,-2.29617 -2.95941,-5.26764 -4.73333,-7.8418 -0.93237,-1.35299 -1.08817,-1.52435 -1.63224,-1.79548 l -0.42754,-0.21305 -6.86349,0 -6.8635,0 0,5.51277 0,5.51276 10.55839,0 10.55839,0 -0.59668,-1.1752 z M 31.617214,347.57597 c -0.307348,-0.0439 -0.798957,-0.21444 -1.226985,-0.42555 -2.759702,-1.36114 -3.34593,-4.96585 -1.162651,-7.14913 0.648317,-0.64832 1.547383,-1.10972 2.434546,-1.24942 l 0.59611,-0.0939 0,-24.98157 0,-24.98156 34.679158,0.0228 34.679158,0.0228 0.7159,0.19283 c 1.76191,0.47459 3.15027,1.58355 3.88923,3.10656 0.21392,0.44089 0.47619,1.12855 0.58281,1.52812 l 0.19386,0.72649 0.0241,26.68796 0.0241,26.68797 -19.54382,-0.0216 -19.543823,-0.0215 -0.288672,-0.89742 c -0.366382,-1.13902 -1.222932,-2.90743 -1.862911,-3.84612 -2.60198,-3.81647 -6.466365,-6.20009 -11.010885,-6.7917 -7.247592,-0.94352 -14.34068,3.57059 -16.614017,10.57331 l -0.325889,1.00386 -2.863221,-0.01 c -1.574772,-0.006 -3.093988,-0.043 -3.376037,-0.0833 z"
     id="path3052"
     inkscape:connector-curvature="0" />
  <path
     style="fill:none;stroke:#000000;stroke-width:11.50399971;stroke-linecap:butt;stroke-linejoin:miter;stroke-miterlimit:4;stroke-opacity:1;stroke-dasharray:none;marker-start:none;marker-mid:none"
     d="m 144.23675,301.11124 c 0,0 67.22799,-110.37431 140.47639,1.0034"
     id="path843"
     inkscape:connector-curvature="0" />
  <path
     sodipodi:type="star"
     style="fill:#010101;fill-opacity:1;fill-rule:evenodd;stroke:none"
     id="path893"
     sodipodi:sides="3"
     sodipodi:cx="1783.6647"
     sodipodi:cy="820.48578"
     sodipodi:r1="189.1862"
     sodipodi:r2="94.593109"
     sodipodi:arg1="0.78539816"
     sodipodi:arg2="1.8325957"
     inkscape:flatsided="false"
     inkscape:rounded="0"
     inkscape:randomized="0"
     d="m 1917.4395,954.26063 -158.2573,-42.40492 -158.2574,-42.40494 115.8524,-115.85242 115.8525,-115.85241 42.4049,158.25734 z"
     inkscape:transform-center-x="24.482497"
     inkscape:transform-center-y="-24.482497"
     transform="matrix(0.15911352,0,0,0.15911352,-6.4234578,161.48636)" />
  <path
     style="fill:none;stroke:#000000;stroke-width:11.50399971;stroke-linecap:butt;stroke-linejoin:miter;stroke-miterlimit:4;stroke-opacity:1;stroke-dasharray:none"
     d="m 473.28951,307.43688 c 0,0 44.69552,-68.82578 119.18803,-92.22654"
     id="path879"
     inkscape:connector-curvature="0" />
  <path
     sodipodi:type="star"
     style="fill:#010101;fill-opacity:1;fill-rule:evenodd;stroke:none"
     id="path893-5"
     sodipodi:sides="3"
     sodipodi:cx="1783.6647"
     sodipodi:cy="820.48578"
     sodipodi:r1="189.1862"
     sodipodi:r2="94.593109"
     sodipodi:arg1="0.78539816"
     sodipodi:arg2="1.8325957"
     inkscape:flatsided="false"
     inkscape:rounded="0"
     inkscape:randomized="0"
     d="m 1917.4395,954.26063 -158.2573,-42.40492 -158.2574,-42.40494 115.8524,-115.85242 115.8525,-115.85241 42.4049,158.25734 z"
     inkscape:transform-center-y="95.764029"
     transform="matrix(0.10542286,0.1191769,-0.1191769,0.10542286,505.02147,-87.948202)"
     inkscape:transform-center-x="-3.8396418" />
  <g
     id="g973"
     transform="matrix(0.15911352,0,0,0.15911352,131.2798,480.45438)">
    <path
       inkscape:connector-curvature="0"
       id="path891"
       d="m 2925.2102,329.97797 c -8.9184,508.34444 -8.9184,517.26277 -8.9184,517.26277"
       style="fill:none;stroke:#000000;stroke-width:72.30000305;stroke-linecap:butt;stroke-linejoin:miter;stroke-miterlimit:4;stroke-opacity:1;stroke-dasharray:none" />
    <path
       transform="matrix(0.26356271,-0.96464226,0.96464226,0.26356271,1662.8966,2267.7089)"
       inkscape:transform-center-y="46.893379"
       inkscape:transform-center-x="-0.46484003"
       d="m 1917.4395,954.26063 -158.2573,-42.40492 -158.2574,-42.40494 115.8524,-115.85242 115.8525,-115.85241 42.4049,158.25734 z"
       inkscape:randomized="0"
       inkscape:rounded="0"
       inkscape:flatsided="false"
       sodipodi:arg2="1.8325957"
       sodipodi:arg1="0.78539816"
       sodipodi:r2="94.593109"
       sodipodi:r1="189.1862"
       sodipodi:cy="820.48578"
       sodipodi:cx="1783.6647"
       sodipodi:sides="3"
       id="path893-4-1"
       style="fill:#010101;fill-opacity:1;fill-rule:evenodd;stroke:none"
       sodipodi:type="star" />
  </g>
  <g
     id="g1007"
     transform="matrix(0.15911352,0,0,0.15911352,145.92641,463.19804)">
    <path
       transform="matrix(0.84372237,-0.53677979,0.53677979,0.84372237,397.90871,129.12558)"
       inkscape:transform-center-y="-20.530659"
       inkscape:transform-center-x="-28.389103"
       d="m 1917.4395,954.26063 -158.2573,-42.40492 -158.2574,-42.40494 115.8524,-115.85242 115.8525,-115.85241 42.4049,158.25734 z"
       inkscape:randomized="0"
       inkscape:rounded="0"
       inkscape:flatsided="false"
       sodipodi:arg2="1.8325957"
       sodipodi:arg1="0.78539816"
       sodipodi:r2="94.593109"
       sodipodi:r1="189.1862"
       sodipodi:cy="820.48578"
       sodipodi:cx="1783.6647"
       sodipodi:sides="3"
       id="path893-4"
       style="fill:#010101;fill-opacity:1;fill-rule:evenodd;stroke:none"
       sodipodi:type="star" />
    <path
       inkscape:connector-curvature="0"
       id="path983"
       d="m 1783.6648,-401.32457 c 0,0 205.1214,258.63139 651.0376,285.38636"
       style="fill:none;stroke:#000000;stroke-width:72.30000305;stroke-linecap:butt;stroke-linejoin:miter;stroke-miterlimit:4;stroke-opacity:1;stroke-dasharray:none" />
  </g>
  <rect
     style="color:#000000;fill:#000000;fill-opacity:1;fill-rule:nonzero;stroke:none;stroke-width:1px;marker:none;visibility:visible;display:inline;overflow:visible;enable-background:accumulate"
     id="rect245-9-0"
     width="30.142561"
     height="29.424887"
     x="374.67087"
     y="321.71198"
     ry="3.2295611" />
  <path
     sodipodi:type="arc"
     style="fill:#000000;fill-opacity:1;stroke:none"
     id="path160-1-7-71"
     sodipodi:cx="3821.5615"
     sodipodi:cy="516.33459"
     sodipodi:rx="69.368279"
     sodipodi:ry="69.368279"
     d="m 3890.9298,516.33459 a 69.368279,69.368279 0 1 1 -138.7366,0 69.368279,69.368279 0 1 1 138.7366,0 z"
     transform="matrix(0.11380537,0,0,0.11380537,23.573201,315.6487)" />
  <g
     id="g1740">
    <rect
       y="413.48907"
       x="429.68359"
       height="16.8125"
       width="0"
       id="rect1720-3"
       style="color:#000000;fill:#000000;fill-opacity:0;fill-rule:nonzero;stroke:none;stroke-width:1px;marker:none;visibility:visible;display:inline;overflow:visible;enable-background:accumulate" />
  </g>
  <rect
     style="color:#000000;fill:#000000;fill-opacity:1;fill-rule:nonzero;stroke:none;stroke-width:1px;marker:none;visibility:visible;display:inline;overflow:visible;enable-background:accumulate"
     id="rect245-9-02"
     width="30.142561"
     height="29.424887"
     x="438.15485"
     y="321.71198"
     ry="3.2295611" />
  <rect
     style="color:#000000;fill:url(#pattern87);fill-opacity:1;fill-rule:nonzero;stroke:none;stroke-width:1px;marker:none;visibility:visible;display:inline;overflow:visible;enable-background:accumulate"
     id="rect245-9-02-6"
     width="30.142561"
     height="29.424887"
     x="311.18701"
     y="321.71198"
     ry="3.2295611" />
  <rect
     style="color:#000000;fill:#000000;fill-opacity:1;fill-rule:nonzero;stroke:none;stroke-width:1px;marker:none;visibility:visible;display:inline;overflow:visible;enable-background:accumulate"
     id="rect245-9-2"
     width="30.142561"
     height="29.424887"
     x="230.61154"
     y="481.61011"
     ry="3.2295611"
     transform="matrix(0.77664871,-0.62993395,0.62993395,0.77664871,0,0)"
     inkscape:transform-center-x="66.468427"
     inkscape:transform-center-y="-70.71048" />
  <rect
     style="color:#000000;fill:#000000;fill-opacity:1;fill-rule:nonzero;stroke:none;stroke-width:1px;marker:none;visibility:visible;display:inline;overflow:visible;enable-background:accumulate"
     id="rect245-9-0-4"
     width="30.142561"
     height="29.424887"
     x="198.86996"
     y="481.61023"
     ry="3.2295611"
     transform="matrix(0.77664871,-0.62993395,0.62993395,0.77664871,0,0)"
     inkscape:transform-center-x="91.120424"
     inkscape:transform-center-y="-50.715312" />
  <rect
     style="color:#000000;fill:#000000;fill-opacity:1;fill-rule:nonzero;stroke:none;stroke-width:1px;marker:none;visibility:visible;display:inline;overflow:visible;enable-background:accumulate"
     id="rect245-9-02-5"
     width="30.142561"
     height="29.424887"
     x="262.35397"
     y="481.61023"
     ry="3.2295611"
     transform="matrix(0.77664871,-0.62993395,0.62993395,0.77664871,0,0)"
     inkscape:transform-center-x="41.815651"
     inkscape:transform-center-y="-90.706044" />
</svg>
