<?xml version="1.0" encoding="UTF-8" standalone="no"?>
<!-- Created with Inkscape (http://www.inkscape.org/) -->

<svg
   xmlns:dc="http://purl.org/dc/elements/1.1/"
   xmlns:cc="http://creativecommons.org/ns#"
   xmlns:rdf="http://www.w3.org/1999/02/22-rdf-syntax-ns#"
   xmlns:svg="http://www.w3.org/2000/svg"
   xmlns="http://www.w3.org/2000/svg"
   xmlns:xlink="http://www.w3.org/1999/xlink"
   xmlns:sodipodi="http://sodipodi.sourceforge.net/DTD/sodipodi-0.dtd"
   xmlns:inkscape="http://www.inkscape.org/namespaces/inkscape"
   id="svg2"
   version="1.1"
   inkscape:version="0.48.4 r9939"
   width="100%"
   height="100%"
   sodipodi:docname="Wareneingang.svg">
  <title
     id="title1314">Wareneingang</title>
  <metadata
     id="metadata8">
    <rdf:RDF>
      <cc:Work
         rdf:about="">
        <dc:format>image/svg+xml</dc:format>
        <dc:type
           rdf:resource="http://purl.org/dc/dcmitype/StillImage" />
        <dc:title>Wareneingang</dc:title>
      </cc:Work>
    </rdf:RDF>
  </metadata>
  <defs
     id="defs6">
    <pattern
       inkscape:collect="always"
       xlink:href="#pattern87"
       id="pattern3875"
       patternTransform="translate(179.5625,582.75)" />
    <pattern
       inkscape:collect="always"
       xlink:href="#pattern87"
       id="pattern3873"
       patternTransform="translate(179.5625,582.75)" />
    <pattern
       patternUnits="userSpaceOnUse"
       width="140.75"
       height="145.28125"
       patternTransform="translate(160.5625,579.75)"
       id="pattern87">
      <path
         id="rect103"
         d="M 0,0 0,3.15625 3.15625,0 0,0 z M 8.125,0 0,8.125 0,14.46875 14.46875,0 8.125,0 z M 19.4375,0 0,19.40625 0,25.78125 25.78125,0 19.4375,0 z M 30.75,0 0,30.71875 0,37.09375 37.09375,0 30.75,0 z M 42.0625,0 0,42.03125 0,48.40625 48.40625,0 42.0625,0 z M 53.375,0 0,53.34375 0,59.71875 59.71875,0 53.375,0 z M 64.6875,0 0,64.65625 0,71.03125 71.03125,0 64.6875,0 z M 76,0 0,75.96875 0,82.34375 82.375,0 76,0 z M 87.3125,0 0,87.28125 0,93.65625 93.6875,0 87.3125,0 z M 98.625,0 0,98.59375 0,104.96875 105,0 98.625,0 z M 109.9375,0 0,109.9375 0,116.28125 116.3125,0 109.9375,0 z M 121.25,0 0,121.25 0,127.59375 127.625,0 121.25,0 z M 132.5625,0 0,132.5625 0,138.90625 138.9375,0 132.5625,0 z M 140.75,3.125 0,143.875 l 0,1.40625 4.9375,0 L 140.75,9.5 l 0,-6.375 z m 0,11.3125 -130.84375,130.84375 6.34375,0 124.5,-124.46875 0,-6.375 z m 0,11.3125 -119.53125,119.53125 6.34375,0 L 140.75,32.125 l 0,-6.375 z m 0,11.3125 -108.21875,108.21875 6.34375,0 101.875,-101.84375 0,-6.375 z m 0,11.3125 -96.90625,96.90625 6.34375,0 L 140.75,54.75 l 0,-6.375 z m 0,11.3125 -85.59375,85.59375 6.34375,0 79.25,-79.21875 0,-6.375 z m 0,11.3125 -74.28125,74.28125 6.375,0 L 140.75,77.375 140.75,71 z m 0,11.3125 -62.96875,62.96875 6.375,0 56.59375,-56.59375 0,-6.375 z m 0,11.3125 -51.65625,51.65625 6.375,0 L 140.75,100 l 0,-6.375 z m 0,11.3125 -40.34375,40.34375 6.375,0 33.96875,-33.96875 0,-6.375 z m 0,11.3125 -29.03125,29.03125 6.375,0 22.65625,-22.65625 0,-6.375 z m 0,11.3125 -17.71875,17.71875 6.375,0 11.34375,-11.34375 0,-6.375 z m 0,11.3125 -6.40625,6.40625 6.375,0 0.0312,-0.0312 0,-6.375 z"
         style="color:#000000;fill:#000000;fill-opacity:1;fill-rule:nonzero;stroke:none;stroke-width:1px;marker:none;visibility:visible;display:inline;overflow:visible;enable-background:accumulate"
         inkscape:connector-curvature="0" />
    </pattern>
  </defs>
  <sodipodi:namedview
     pagecolor="#ffffff"
     bordercolor="#666666"
     borderopacity="1"
     objecttolerance="10"
     gridtolerance="10"
     guidetolerance="10"
     inkscape:pageopacity="0"
     inkscape:pageshadow="2"
     inkscape:window-width="1366"
     inkscape:window-height="741"
     id="namedview4"
     showgrid="false"
     inkscape:zoom="0.5"
     inkscape:cx="546.27344"
     inkscape:cy="553.63702"
     inkscape:window-x="0"
     inkscape:window-y="0"
     inkscape:window-maximized="1"
     inkscape:current-layer="svg2"
     inkscape:snap-bbox="true"
     inkscape:snap-global="true"
     showguides="true"
     inkscape:guide-bbox="true" />
  <g
     id="g48"
     transform="matrix(2.0201414,23.686113,23.85838,-2.0348337,2666.9209,740.23394)" />
  <g
     id="g50"
     transform="matrix(2.0201414,23.686113,23.85838,-2.0348337,2666.9209,740.23394)" />
  <g
     id="g52"
     transform="matrix(2.0201414,23.686113,23.85838,-2.0348337,2666.9209,740.23394)" />
  <g
     id="g54"
     transform="matrix(2.0201414,23.686113,23.85838,-2.0348337,2666.9209,740.23394)" />
  <g
     id="g56"
     transform="matrix(2.0201414,23.686113,23.85838,-2.0348337,2666.9209,740.23394)" />
  <g
     id="g58"
     transform="matrix(2.0201414,23.686113,23.85838,-2.0348337,2666.9209,740.23394)" />
  <g
     id="g60"
     transform="matrix(2.0201414,23.686113,23.85838,-2.0348337,2666.9209,740.23394)" />
  <g
     id="g62"
     transform="matrix(2.0201414,23.686113,23.85838,-2.0348337,2666.9209,740.23394)" />
  <g
     id="g64"
     transform="matrix(2.0201414,23.686113,23.85838,-2.0348337,2666.9209,740.23394)" />
  <g
     id="g66"
     transform="matrix(2.0201414,23.686113,23.85838,-2.0348337,2666.9209,740.23394)" />
  <g
     id="g68"
     transform="matrix(2.0201414,23.686113,23.85838,-2.0348337,2666.9209,740.23394)" />
  <g
     id="g70"
     transform="matrix(2.0201414,23.686113,23.85838,-2.0348337,2666.9209,740.23394)" />
  <g
     id="g72"
     transform="matrix(2.0201414,23.686113,23.85838,-2.0348337,2666.9209,740.23394)" />
  <g
     id="g74"
     transform="matrix(2.0201414,23.686113,23.85838,-2.0348337,2666.9209,740.23394)" />
  <g
     id="g76"
     transform="matrix(2.0201414,23.686113,23.85838,-2.0348337,2666.9209,740.23394)" />
  <flowRoot
     xml:space="preserve"
     id="flowRoot1053"
     style="fill:black;stroke:none;stroke-opacity:1;stroke-width:1px;stroke-linejoin:miter;stroke-linecap:butt;fill-opacity:1;font-family:URW Gothic L;font-style:normal;font-weight:normal;font-size:160px;line-height:125%;letter-spacing:0px;word-spacing:0px;-inkscape-font-specification:URW Gothic L;font-stretch:normal;font-variant:normal;text-anchor:start;text-align:start;writing-mode:lr"><flowRegion
       id="flowRegion1055"><rect
         id="rect1057"
         width="845.03174"
         height="365.76001"
         x="176.57379"
         y="737.05182"
         style="font-size:160px" /></flowRegion><flowPara
       id="flowPara1059" /></flowRoot>  <path
     style="fill:#000000"
     d="m 646.91184,256.67904 c -0.79852,-0.24043 -1.48225,-0.77369 -1.87788,-1.46462 l -0.39172,-0.68409 0,-38.42592 0,-38.42591 0.42196,-0.71772 c 0.25994,-0.44214 0.6876,-0.86981 1.11379,-1.1138 0.67253,-0.38502 0.79241,-0.39748 4.29508,-0.44645 4.21235,-0.0589 4.68661,0.0236 5.64166,0.98139 0.8808,0.88332 1.01792,1.6056 1.01792,5.3618 l 0,3.01533 10.97883,0 10.97884,0 0.004,-3.46072 c 0.004,-3.85858 0.1059,-4.34141 1.0926,-5.17166 0.78161,-0.65768 1.4316,-0.75355 5.10933,-0.75355 3.67773,0 4.32772,0.0959 5.10933,0.75355 0.9867,0.83025 1.08871,1.31308 1.0926,5.17166 l 0.003,3.46072 10.97883,0 10.97884,0 0,-3.01533 c 0,-3.7562 0.13712,-4.47848 1.01792,-5.3618 0.95505,-0.95779 1.4293,-1.04029 5.64166,-0.98139 3.56999,0.0499 3.60986,0.0543 4.32096,0.47234 0.44214,0.25994 0.8698,0.6876 1.11379,1.11379 l 0.39608,0.69184 0,38.42591 0,38.42592 -0.42196,0.71772 c -0.25994,0.44214 -0.68761,0.8698 -1.1138,1.11379 -0.67252,0.38502 -0.79241,0.39748 -4.29507,0.44646 -4.21236,0.0589 -4.68661,-0.0236 -5.64166,-0.98139 -0.8808,-0.88333 -1.01792,-1.6056 -1.01792,-5.36181 l 0,-3.01532 -10.97884,0 -10.97883,0 -0.004,3.46072 c -0.004,3.85858 -0.1059,4.3414 -1.0926,5.17165 -0.78161,0.65769 -1.4316,0.75355 -5.10933,0.75355 -3.67774,0 -4.32772,-0.0959 -5.10934,-0.75355 -0.9867,-0.83025 -1.0887,-1.31307 -1.0926,-5.17165 l -0.003,-3.46072 -10.97884,0 -10.97883,0 0,3.01532 c 0,3.75378 -0.13739,4.47875 -1.01572,5.3596 -0.38564,0.38675 -0.91812,0.73068 -1.29195,0.83446 -0.73825,0.20494 -7.24423,0.22129 -7.91314,0.0199 z m 32.17848,-21.71967 0,-6.28499 -10.97884,0 -10.97883,0 0,6.28499 0,6.28498 10.97883,0 10.97884,0 0,-6.28498 z m 34.36852,0 0,-6.28499 -10.97884,0 -10.97883,0 0,6.28499 0,6.28498 10.97883,0 10.97884,0 0,-6.28498 z m -34.44808,-18.85496 0,-6.28498 -10.93906,-0.0409 -10.93905,-0.0409 0,6.36673 0,6.36674 10.93905,-0.0409 10.93906,-0.0409 0,-6.28499 z m 34.44808,-0.001 0,-6.36564 -10.93906,0.0409 -10.93905,0.0409 -0.0417,6.12543 c -0.0229,3.36899 -0.007,6.21513 0.0348,6.32476 0.0602,0.15704 2.39126,0.19935 10.98076,0.19935 l 10.90427,0 0,-6.36563 z m -34.36852,-18.85384 0,-6.28498 -10.97884,0 -10.97883,0 0,6.28498 0,6.28498 10.97883,0 10.97884,0 0,-6.28498 z m 34.36852,0 0,-6.28498 -10.97884,0 -10.97883,0 0,6.28498 0,6.28498 10.97883,0 10.97884,0 0,-6.28498 z"
     id="path3050"
     inkscape:connector-curvature="0" />
  <rect
     style="color:#000000;fill:#000000;fill-opacity:1;fill-rule:nonzero;stroke:none;stroke-width:1px;marker:none;visibility:visible;display:inline;overflow:visible;enable-background:accumulate"
     id="rect142"
     width="169.73271"
     height="7.937943"
     x="304.84854"
     y="357.18652"
     ry="1.2686914" />
  <path
     sodipodi:type="arc"
     style="fill:#000000;fill-opacity:1;stroke:none"
     id="path160"
     sodipodi:cx="3821.5615"
     sodipodi:cy="516.33459"
     sodipodi:rx="69.368279"
     sodipodi:ry="69.368279"
     d="m 3890.9298,516.33459 a 69.368279,69.368279 0 1 1 -138.7366,0 69.368279,69.368279 0 1 1 138.7366,0 z"
     transform="matrix(0.11380537,0,0,0.11380537,-78.833915,315.6492)" />
  <path
     sodipodi:type="arc"
     style="fill:#000000;fill-opacity:1;stroke:none"
     id="path160-1"
     sodipodi:cx="3821.5615"
     sodipodi:cy="516.33459"
     sodipodi:rx="69.368279"
     sodipodi:ry="69.368279"
     d="m 3890.9298,516.33459 a 69.368279,69.368279 0 1 1 -138.7366,0 69.368279,69.368279 0 1 1 138.7366,0 z"
     transform="matrix(0.11380537,0,0,0.11380537,-44.692304,315.6492)" />
  <path
     sodipodi:type="arc"
     style="fill:#000000;fill-opacity:1;stroke:none"
     id="path160-1-7"
     sodipodi:cx="3821.5615"
     sodipodi:cy="516.33459"
     sodipodi:rx="69.368279"
     sodipodi:ry="69.368279"
     d="m 3890.9298,516.33459 a 69.368279,69.368279 0 1 1 -138.7366,0 69.368279,69.368279 0 1 1 138.7366,0 z"
     transform="matrix(0.11380537,0,0,0.11380537,-10.550693,315.6492)" />
  <path
     sodipodi:type="arc"
     style="fill:#000000;fill-opacity:1;stroke:none"
     id="path160-1-0"
     sodipodi:cx="3821.5615"
     sodipodi:cy="516.33459"
     sodipodi:rx="69.368279"
     sodipodi:ry="69.368279"
     d="m 3890.9298,516.33459 a 69.368279,69.368279 0 1 1 -138.7366,0 69.368279,69.368279 0 1 1 138.7366,0 z"
     transform="matrix(0.11380537,0,0,0.11380537,-112.97553,315.64918)" />
  <rect
     style="color:#000000;fill:url(#pattern87);fill-opacity:1;fill-rule:nonzero;stroke:none;stroke-width:1px;marker:none;visibility:visible;display:inline;overflow:visible;enable-background:accumulate"
     id="rect245"
     width="30.142561"
     height="29.424887"
     x="342.92883"
     y="321.71188"
     ry="3.2295611" />
  <rect
     style="color:#000000;fill:#000000;fill-opacity:1;fill-rule:nonzero;stroke:none;stroke-width:1px;marker:none;visibility:visible;display:inline;overflow:visible;enable-background:accumulate"
     id="rect245-9"
     width="30.142561"
     height="29.424887"
     x="406.41245"
     y="321.71188"
     ry="3.2295611" />
  <path
     style="fill:#000000;fill-opacity:1;fill-rule:evenodd;stroke:none"
     d="m 367.34375,260.53125 c -2.55496,0 -4.625,2.07005 -4.625,4.625 l 0,43.625 c 0,2.55496 2.07004,4.59375 4.625,4.59375 l 34.40625,0 c 2.55494,0 4.59375,-2.03879 4.59375,-4.59375 l 0,-28.65625 -18.65625,-19.59375 -20.34375,0 z m 3.9375,10 c 1.45469,0 2.625,1.20157 2.625,2.65625 0,1.45468 -1.17031,2.625 -2.625,2.625 -1.45468,0 -2.625,-1.17032 -2.625,-2.625 0,-1.45468 1.17032,-2.65625 2.625,-2.65625 z m 0,27.46875 c 1.45469,0 2.625,1.20157 2.625,2.65625 0,1.45468 -1.17031,2.625 -2.625,2.625 -1.45468,0 -2.625,-1.17032 -2.625,-2.625 0,-1.45468 1.17032,-2.65625 2.625,-2.65625 z"
     id="path411-1"
     inkscape:connector-curvature="0" />
  <g
     id="g616"
     transform="matrix(0.15301337,0,0,0.15495827,107.92564,412.07732)">
    <path
       id="path44"
       d="m 3136.7355,411.89985 c -66.7142,-55.256 -75.481,-153.7841 -19.6066,-219.9584 52.7397,-62.4521 144.2169,-73.8292 210.4266,-28.3833 l 0.6258,0.4923 c 12.7153,9.2497 17.4287,12.8822 24.5618,21.0202 53.9664,56.7548 57.7428,145.8713 5.9082,207.2049 -55.8728,66.1907 -155.2567,75.0173 -221.9158,19.6243 z m 191.7252,-44.6454 c 41.975,-49.649 35.3472,-123.5282 -14.645,-164.9987 -50.0281,-41.5005 -124.5529,-34.9229 -166.51,14.7411 -41.931,49.5791 -35.2492,123.5033 14.7098,164.9766 50.0144,41.5347 124.5709,34.938 166.4452,-14.719 z"
       style="fill:#000000"
       inkscape:connector-curvature="0" />
    <polygon
       transform="matrix(1.4020084,16.412612,16.558073,-1.4099796,3053.38,-16.818616)"
       id="polygon46"
       points="0,26.937 2.389,29.524 12.718,18.325 10.996,16.599 "
       style="fill:#000000" />
  </g>
  <rect
     style="color:#000000;fill:#000000;fill-opacity:1;fill-rule:nonzero;stroke:none;stroke-width:1px;marker:none;visibility:visible;display:inline;overflow:visible;enable-background:accumulate"
     id="rect142-6"
     width="133.50142"
     height="7.937943"
     x="550.71948"
     y="494.61264"
     ry="1.2686914" />
  <path
     sodipodi:type="arc"
     style="fill:#000000;fill-opacity:1;stroke:none"
     id="path160-8"
     sodipodi:cx="3821.5615"
     sodipodi:cy="516.33459"
     sodipodi:rx="69.368279"
     sodipodi:ry="69.368279"
     d="m 3890.9298,516.33459 a 69.368279,69.368279 0 1 1 -138.7366,0 69.368279,69.368279 0 1 1 138.7366,0 z"
     transform="matrix(0.11380537,0,0,0.11380537,161.02662,453.07532)" />
  <path
     sodipodi:type="arc"
     style="fill:#000000;fill-opacity:1;stroke:none"
     id="path160-1-5"
     sodipodi:cx="3821.5615"
     sodipodi:cy="516.33459"
     sodipodi:rx="69.368279"
     sodipodi:ry="69.368279"
     d="m 3890.9298,516.33459 a 69.368279,69.368279 0 1 1 -138.7366,0 69.368279,69.368279 0 1 1 138.7366,0 z"
     transform="matrix(0.11380537,0,0,0.11380537,195.16823,453.07532)" />
  <path
     sodipodi:type="arc"
     style="fill:#000000;fill-opacity:1;stroke:none"
     id="path160-1-7-7"
     sodipodi:cx="3821.5615"
     sodipodi:cy="516.33459"
     sodipodi:rx="69.368279"
     sodipodi:ry="69.368279"
     d="m 3890.9298,516.33459 a 69.368279,69.368279 0 1 1 -138.7366,0 69.368279,69.368279 0 1 1 138.7366,0 z"
     transform="matrix(0.11380537,0,0,0.11380537,229.30984,453.07532)" />
  <path
     sodipodi:type="arc"
     style="fill:#000000;fill-opacity:1;stroke:none"
     id="path160-1-0-6"
     sodipodi:cx="3821.5615"
     sodipodi:cy="516.33459"
     sodipodi:rx="69.368279"
     sodipodi:ry="69.368279"
     d="m 3890.9298,516.33459 a 69.368279,69.368279 0 1 1 -138.7366,0 69.368279,69.368279 0 1 1 138.7366,0 z"
     transform="matrix(0.11380537,0,0,0.11380537,126.88501,453.0753)" />
  <rect
     style="color:#000000;fill:url(#pattern3875);fill-opacity:1;fill-rule:nonzero;stroke:none;stroke-width:1px;marker:none;visibility:visible;display:inline;overflow:visible;enable-background:accumulate"
     id="rect245-1"
     width="30.142561"
     height="29.424887"
     x="572.02448"
     y="459.13803"
     ry="3.2295611" />
  <rect
     style="color:#000000;fill:url(#pattern3873);fill-opacity:1;fill-rule:nonzero;stroke:none;stroke-width:1px;marker:none;visibility:visible;display:inline;overflow:visible;enable-background:accumulate"
     id="rect245-9-8"
     width="30.142561"
     height="29.424887"
     x="635.50806"
     y="459.13803"
     ry="3.2295611" />
  <path
     style="color:#000000;fill:#010101;fill-opacity:1;fill-rule:nonzero;stroke:none;stroke-width:1px;marker:none;visibility:visible;display:inline;overflow:visible;enable-background:accumulate"
     d="m 852.55796,426.51278 c -6.47635,0 -11.68902,5.21268 -11.68902,11.68905 l 0,56.26945 c 0,6.47636 5.21267,11.68903 11.68902,11.68903 l 97.67533,0 c 6.47637,0 11.69246,-5.21267 11.69246,-11.68903 l 0,-56.26945 c 0,-6.47637 -5.21609,-11.68905 -11.69246,-11.68905 l -97.67533,0 z m -1.07072,10.9433 6.91351,0 22.20129,52.23629 22.28337,-52.23629 6.83141,0 -26.12838,59.66636 -6.14727,0 -25.95393,-59.66636 z m 65.50231,0 34.49579,0 0,5.41177 -28.17749,0 0,21.39396 27.23675,0 0,5.41178 -27.23675,0 0,22.0405 28.17749,0 0,5.40835 -34.49579,0 0,-59.66636 z"
     id="rect676"
     inkscape:connector-curvature="0" />
  <path
     style="fill:#000000"
     d="m 168.94984,372.17984 c 4.11244,-0.63973 7.34194,-3.87541 7.96541,-7.98068 0.76247,-5.02049 -2.5049,-9.708 -7.52187,-10.79119 -0.81687,-0.17636 -2.98352,-0.17431 -3.81428,0.003 -2.82437,0.60491 -5.23579,2.41845 -6.54527,4.92245 -0.72557,1.38745 -1.05654,2.7769 -1.05654,4.43541 0,2.64934 0.92367,4.88172 2.78465,6.73005 1.49566,1.4855 3.26279,2.37497 5.32749,2.68155 0.87486,0.12991 2.02062,0.12942 2.86041,-8.1e-4 z m -2.31012,-5.08865 c -2.85289,-0.56707 -4.37937,-3.65663 -3.11029,-6.29516 0.31018,-0.6449 1.05996,-1.4524 1.69709,-1.82772 0.77269,-0.45519 1.3012,-0.59262 2.27047,-0.59039 0.72867,0.002 0.90705,0.0264 1.37938,0.19183 1.48997,0.52164 2.63198,1.79878 2.94464,3.29307 0.35358,1.6899 -0.34311,3.45677 -1.76509,4.4764 -1.02813,0.73723 -2.19649,0.99441 -3.4162,0.75197 z m -55.17997,5.15531 c 4.23669,-0.52348 7.54361,-3.61664 8.34253,-7.80325 0.16225,-0.85021 0.16319,-2.49343 0.002,-3.37973 -0.7027,-3.86231 -3.72846,-6.91604 -7.61218,-7.68254 -0.75575,-0.14916 -2.9808,-0.12828 -3.73117,0.035 -2.83761,0.6175 -5.30679,2.51512 -6.5911,5.06544 -0.31585,0.62719 -0.68492,1.71353 -0.84078,2.47476 -0.17703,0.86464 -0.17987,2.68033 -0.006,3.55428 0.76793,3.85028 3.58786,6.73625 7.40258,7.57593 0.6131,0.13495 2.45192,0.23199 3.03375,0.1601 z m -2.41249,-5.29248 c -1.71051,-0.5742 -2.81974,-1.96784 -3.06207,-3.84716 -0.1581,-1.22621 0.53534,-2.85404 1.5895,-3.73133 1.78018,-1.48148 4.33578,-1.35397 5.98085,0.29842 0.82256,0.82622 1.26687,1.91611 1.26177,3.09518 -0.005,1.22623 -0.41144,2.19231 -1.29365,3.07719 -0.72309,0.72527 -1.55913,1.15958 -2.51723,1.30766 -0.49502,0.0765 -1.41541,-0.0175 -1.95917,-0.19996 z m -10.948944,-7.16233 c 0.550208,-1.82713 1.161355,-3.16181 1.973644,-4.31021 0.674,-0.95288 2.23747,-2.49278 3.15831,-3.11066 0.9766,-0.65532 1.51346,-0.94516 2.44125,-1.31804 1.66955,-0.67098 2.87825,-0.9005 4.74211,-0.90046 1.11547,3e-5 1.50918,0.0282 2.19003,0.1564 1.18176,0.2226 2.43688,0.652 3.52748,1.20681 1.11277,0.56608 1.95698,1.15408 2.84325,1.98034 l 0.64511,0.60142 0,-14.12904 0,-14.12904 -8.52589,0.0185 -8.52589,0.0185 -0.41013,0.15484 c -0.48335,0.18249 -1.17362,0.60377 -1.66392,1.01551 -0.546387,0.45886 -2.172779,2.81444 -3.701995,5.3618 -2.392371,3.98519 -3.812368,7.40871 -4.090031,9.86077 -0.055,0.48552 -0.07238,3.06944 -0.05785,8.60938 l 0.02064,7.91565 0.193649,0.32942 c 0.125572,0.21361 0.309437,0.39749 0.523062,0.52306 l 0.329412,0.19364 2.180199,0.0211 c 1.744897,0.0169 2.185658,0.003 2.207559,-0.0698 z m -0.24424,-22.84399 c 0.951288,-1.87364 2.414824,-4.29831 3.862314,-6.39877 0.7608,-1.10402 0.88793,-1.24385 1.33188,-1.46508 l 0.34886,-0.17385 5.60049,0 5.6005,0 0,4.49832 0,4.49832 -8.61546,0 -8.615465,0 0.486881,-0.95894 z m 87.008534,22.64145 c 0.25079,-0.0358 0.65193,-0.17498 1.0012,-0.34725 2.25187,-1.11066 2.73022,-4.05204 0.9487,-5.83356 -0.52902,-0.52902 -1.26264,-0.90551 -1.98655,-1.01951 l -0.48641,-0.0766 0,-20.38452 0,-20.38451 -28.29759,0.0186 -28.29758,0.0186 -0.58416,0.15735 c -1.43769,0.38726 -2.57057,1.29215 -3.17355,2.5349 -0.17455,0.35976 -0.38856,0.92088 -0.47556,1.24692 l -0.15819,0.5928 -0.0197,21.77691 -0.0197,21.77691 15.94742,-0.0176 15.94741,-0.0175 0.23556,-0.73228 c 0.29896,-0.92942 0.99789,-2.37242 1.5201,-3.13837 2.12317,-3.11417 5.27644,-5.05916 8.98469,-5.54191 5.91391,-0.76989 11.70174,2.91354 13.55674,8.62764 l 0.26592,0.81913 2.33634,-0.008 c 1.28499,-0.005 2.52464,-0.0351 2.75479,-0.068 z"
     id="path3052"
     inkscape:connector-curvature="0" />
  <path
     style="fill:#010101;fill-opacity:1;fill-rule:evenodd;stroke:none"
     d="m 293.91648,339.21098 c -15.05105,8.68973 -30.10209,17.37945 -45.15313,26.06917 -1e-5,-17.37944 0,-34.75889 1e-5,-52.13834 15.05103,8.68973 30.10208,17.37945 45.15312,26.06917 z"
     id="path893"
     inkscape:connector-curvature="0" />
  <g
     id="g973"
     transform="matrix(-0.00175838,-0.1591038,0.1591038,-0.00175838,678.66988,932.0772)">
    <path
       inkscape:connector-curvature="0"
       id="path891"
       d="m 2925.2102,329.97797 c -8.9184,508.34444 -8.9184,517.26277 -8.9184,517.26277"
       style="fill:none;stroke:#000000;stroke-width:72.30058304;stroke-linecap:butt;stroke-linejoin:miter;stroke-miterlimit:4;stroke-opacity:1;stroke-dasharray:none" />
    <path
       transform="matrix(0.26356271,-0.96464226,0.96464226,0.26356271,1662.8966,2267.7089)"
       inkscape:transform-center-y="46.893379"
       inkscape:transform-center-x="-0.46484003"
       d="m 1917.4395,954.26063 -158.2573,-42.40492 -158.2574,-42.40494 115.8524,-115.85242 115.8525,-115.85241 42.4049,158.25734 z"
       inkscape:randomized="0"
       inkscape:rounded="0"
       inkscape:flatsided="false"
       sodipodi:arg2="1.8325957"
       sodipodi:arg1="0.78539816"
       sodipodi:r2="94.593109"
       sodipodi:r1="189.1862"
       sodipodi:cy="820.48578"
       sodipodi:cx="1783.6647"
       sodipodi:sides="3"
       id="path893-4-1"
       style="fill:#010101;fill-opacity:1;fill-rule:evenodd;stroke:none"
       sodipodi:type="star" />
  </g>
  <rect
     style="color:#000000;fill:#000000;fill-opacity:1;fill-rule:nonzero;stroke:none;stroke-width:1px;marker:none;visibility:visible;display:inline;overflow:visible;enable-background:accumulate"
     id="rect245-9-0"
     width="30.142561"
     height="29.424887"
     x="374.67087"
     y="321.71198"
     ry="3.2295611" />
  <path
     sodipodi:type="arc"
     style="fill:#000000;fill-opacity:1;stroke:none"
     id="path160-1-7-71"
     sodipodi:cx="3821.5615"
     sodipodi:cy="516.33459"
     sodipodi:rx="69.368279"
     sodipodi:ry="69.368279"
     d="m 3890.9298,516.33459 a 69.368279,69.368279 0 1 1 -138.7366,0 69.368279,69.368279 0 1 1 138.7366,0 z"
     transform="matrix(0.11380537,0,0,0.11380537,23.573201,315.6487)" />
  <g
     id="g1740">
    <rect
       y="413.48907"
       x="429.68359"
       height="16.8125"
       width="0"
       id="rect1720-3"
       style="color:#000000;fill:#000000;fill-opacity:0;fill-rule:nonzero;stroke:none;stroke-width:1px;marker:none;visibility:visible;display:inline;overflow:visible;enable-background:accumulate" />
  </g>
  <rect
     style="color:#000000;fill:#000000;fill-opacity:1;fill-rule:nonzero;stroke:none;stroke-width:1px;marker:none;visibility:visible;display:inline;overflow:visible;enable-background:accumulate"
     id="rect245-9-02"
     width="30.142561"
     height="29.424887"
     x="438.15485"
     y="321.71198"
     ry="3.2295611" />
  <rect
     style="color:#000000;fill:url(#pattern87);fill-opacity:1;fill-rule:nonzero;stroke:none;stroke-width:1px;marker:none;visibility:visible;display:inline;overflow:visible;enable-background:accumulate"
     id="rect245-9-02-6"
     width="30.142561"
     height="29.424887"
     x="311.18701"
     y="321.71198"
     ry="3.2295611" />
  <path
     style="fill:none;stroke:#000000;stroke-width:11.504;stroke-linecap:butt;stroke-linejoin:miter;stroke-miterlimit:4;stroke-opacity:1;stroke-dasharray:none"
     d="m 200.15948,337.36218 51.68104,0"
     id="path3043"
     inkscape:connector-curvature="0" />
  <path
     inkscape:connector-curvature="0"
     style="fill:#000000;fill-opacity:1"
     d="m 690.99621,374.22156 c -18.30335,0 -33.13684,14.83349 -33.13684,33.13684 0,18.30337 14.83349,33.14441 33.13684,33.14441 18.30337,0 33.14441,-14.84104 33.14441,-33.14441 0,-18.30335 -14.84104,-33.13684 -33.14441,-33.13684 z m 0,6.90225 c 14.49018,0 26.23461,11.74443 26.23461,26.23459 0,14.49018 -11.74443,26.2346 -26.23461,26.2346 -14.49016,0 -26.23459,-11.74442 -26.23459,-26.2346 0,-14.49016 11.74443,-26.23459 26.23459,-26.23459 z m -2.0314,7.3629 c -0.38218,0 -0.76774,0.0988 -0.8911,0.29452 -0.10474,0.16614 -0.37301,4.92371 -0.59658,10.57238 -0.37887,9.57225 -0.37409,10.30582 0,10.82158 0.57423,0.79167 11.68585,9.71891 12.09782,9.71904 0.1889,6e-5 0.54231,-0.18028 0.78537,-0.40024 0.24307,-0.21997 0.44556,-0.56836 0.44556,-0.77028 0,-0.20192 -2.25735,-2.55792 -5.01433,-5.24087 l -5.01433,-4.8784 -0.36248,-9.76435 c -0.20026,-5.36816 -0.4513,-9.89272 -0.55883,-10.05886 -0.12667,-0.19572 -0.50891,-0.29452 -0.8911,-0.29452 z"
     id="path3000" />
  <g
     id="g3864">
    <g
       transform="matrix(0.99286762,0.11922203,-0.11922203,0.99286762,59.595887,-27.878065)"
       id="g3855">
      <rect
         style="color:#000000;fill:#000000;fill-opacity:1;fill-rule:nonzero;stroke:none;stroke-width:1px;marker:none;visibility:visible;display:inline;overflow:visible;enable-background:accumulate"
         id="rect245-9-2"
         width="30.142561"
         height="29.424887"
         x="230.61154"
         y="481.61011"
         ry="3.2295611"
         transform="matrix(0.77664871,-0.62993395,0.62993395,0.77664871,0,0)"
         inkscape:transform-center-x="66.468427"
         inkscape:transform-center-y="-70.71048" />
      <rect
         style="color:#000000;fill:#000000;fill-opacity:1;fill-rule:nonzero;stroke:none;stroke-width:1px;marker:none;visibility:visible;display:inline;overflow:visible;enable-background:accumulate"
         id="rect245-9-0-4"
         width="30.142561"
         height="29.424887"
         x="198.86996"
         y="481.61023"
         ry="3.2295611"
         transform="matrix(0.77664871,-0.62993395,0.62993395,0.77664871,0,0)"
         inkscape:transform-center-x="91.120424"
         inkscape:transform-center-y="-50.715312" />
      <rect
         style="color:#000000;fill:#000000;fill-opacity:1;fill-rule:nonzero;stroke:none;stroke-width:1px;marker:none;visibility:visible;display:inline;overflow:visible;enable-background:accumulate"
         id="rect245-9-02-5"
         width="30.142561"
         height="29.424887"
         x="262.35397"
         y="481.61023"
         ry="3.2295611"
         transform="matrix(0.77664871,-0.62993395,0.62993395,0.77664871,0,0)"
         inkscape:transform-center-x="41.815651"
         inkscape:transform-center-y="-90.706044" />
    </g>
    <g
       transform="translate(-4,2)"
       id="g3860">
      <path
         style="fill:none;stroke:#000000;stroke-width:11.504;stroke-linecap:butt;stroke-linejoin:miter;stroke-miterlimit:4;stroke-opacity:1;stroke-dasharray:none"
         d="m 498,318.36218 124,-80"
         id="path3820"
         inkscape:connector-curvature="0" />
      <path
         style="fill:#010101;fill-opacity:1;fill-rule:evenodd;stroke:none"
         d="m 639.36202,224.72682 c -7.18554,15.82446 -14.37108,31.6489 -21.55662,47.47335 -10.11161,-14.13508 -20.22321,-28.27017 -30.33481,-42.40526 17.29714,-1.68936 34.59429,-3.37873 51.89143,-5.06809 z"
         id="path893-3"
         inkscape:connector-curvature="0" />
    </g>
  </g>
  <g
     id="g3851"
     transform="translate(55,-52)">
    <path
       inkscape:connector-curvature="0"
       id="path3822"
       d="m 439,398.36218 84,62"
       style="fill:none;stroke:#000000;stroke-width:11.504;stroke-linecap:butt;stroke-linejoin:miter;stroke-miterlimit:4;stroke-opacity:1;stroke-dasharray:none" />
    <path
       inkscape:connector-curvature="0"
       id="path893-2"
       d="m 534.77774,471.39425 c -17.1119,-3.03784 -34.22378,-6.07569 -51.33566,-9.11353 11.18678,-13.30041 22.37358,-26.60081 33.56039,-39.90121 5.92508,16.33824 11.85018,32.6765 17.77527,49.01474 z"
       style="fill:#010101;fill-opacity:1;fill-rule:evenodd;stroke:none" />
  </g>
</svg>
