<?xml version="1.0" encoding="iso-8859-1"?>
<!-- Generator: Adobe Illustrator 17.0.0, SVG Export Plug-In . SVG Version: 6.00 Build 0)  -->
<!DOCTYPE svg PUBLIC "-//W3C//DTD SVG 1.1//EN" "http://www.w3.org/Graphics/SVG/1.1/DTD/svg11.dtd">
<svg version="1.1" id="Capa_1" xmlns="http://www.w3.org/2000/svg" xmlns:xlink="http://www.w3.org/1999/xlink" x="0px" y="0px"
	 width="64px" height="64px" viewBox="0 0 64 64" style="enable-background:new 0 0 64 64;" xml:space="preserve">
<path d="M61.425,14.506l-11-10c-0.009-0.008-0.021-0.01-0.03-0.018c-0.14-0.121-0.295-0.213-0.459-0.274
	c-0.02-0.007-0.041-0.012-0.061-0.019c-0.136-0.044-0.278-0.068-0.419-0.072c-0.014,0-0.026-0.007-0.04-0.007H8.5H7v1.5v28.877h3
	V9.237l2.256,2.256v1.019v14.675l3.446,2.762v-15.01L18,17.237v17.256h3V18.116h37.917v37.917H28.29v3h33.626V15.116H61.81
	C61.73,14.891,61.614,14.678,61.425,14.506z M13.725,8.721l-1.604-1.604h36.715l1.765,1.604H13.725z M20.121,15.116l-2.604-2.604
	h37.255l2.865,2.604H20.121z"/>
<path d="M37.097,44.744h5.14c1.419,0,2.57-1.151,2.57-2.57v-7.71h3.799c1.419,0,1.756-0.814,0.753-1.817l-7.875-7.874
	c-1.004-1.004-2.631-1.004-3.634,0l-7.875,7.874c-1.004,1.004-0.667,1.817,0.753,1.817h3.799v7.71
	C34.527,43.594,35.677,44.744,37.097,44.744z"/>
<path d="M28.583,49.449c0,1.104,0.896,2,2,2h17.333c1.104,0,2-0.896,2-2s-0.896-2-2-2H30.583
	C29.479,47.449,28.583,48.345,28.583,49.449z"/>
<path d="M16.322,49.961c0.598,0,1.164-0.133,1.678-0.361c1.454-0.646,2.474-2.099,2.474-3.79s-1.02-3.144-2.474-3.79
	c-0.514-0.229-1.08-0.361-1.678-0.361c-2.288,0-4.15,1.862-4.15,4.151S14.034,49.961,16.322,49.961z"/>
<path d="M26.29,59.093v-0.06v-3v-17.85c0-0.932-0.758-1.69-1.69-1.69H21h-3h-8H7H3.69c-0.932,0-1.69,0.758-1.69,1.69v20.91
	c0,0.932,0.758,1.69,1.69,1.69H24.6C25.532,60.783,26.29,60.025,26.29,59.093z M9.143,56.63c-0.489,0.501-1.139,0.752-1.787,0.752
	c-0.631,0-1.262-0.237-1.748-0.713c-0.987-0.966-1.005-2.549-0.039-3.535l3.594-3.674l0.403-0.412
	c0.086-0.088,0.182-0.16,0.278-0.232C9.417,47.9,9.172,46.884,9.172,45.81c0-1.203,0.302-2.335,0.828-3.331
	c1.2-2.269,3.582-3.82,6.322-3.82c0.579,0,1.139,0.077,1.678,0.207c1.128,0.273,2.151,0.81,3,1.547
	c1.512,1.312,2.474,3.242,2.474,5.397S22.512,49.894,21,51.207c-0.849,0.737-1.872,1.275-3,1.547c-0.491,0.119-1,0.188-1.524,0.199
	c-0.052,0.001-0.102,0.008-0.154,0.008c-1.067,0-2.076-0.241-2.987-0.662c-0.063,0.083-0.121,0.169-0.196,0.245l-0.58,0.593
	L9.143,56.63z"/>
</svg>
