<?xml version="1.0" encoding="iso-8859-1"?>
<!-- Generator: Adobe Illustrator 16.0.0, SVG Export Plug-In . SVG Version: 6.00 Build 0)  -->
<!DOCTYPE svg PUBLIC "-//W3C//DTD SVG 1.1//EN" "http://www.w3.org/Graphics/SVG/1.1/DTD/svg11.dtd">
<svg version="1.1" id="Capa_1" xmlns="http://www.w3.org/2000/svg" xmlns:xlink="http://www.w3.org/1999/xlink" x="0px" y="0px"
	 width="29.119px" height="29.524px" viewBox="0 0 29.119 29.524" style="enable-background:new 0 0 29.119 29.524;"
	 xml:space="preserve">
<path style="fill:#000000;" d="M26.362,2.802c-3.686-3.717-9.691-3.738-13.406-0.049c-3.506,3.482-3.723,9.025-0.633,12.762
	l0.033,0.035c0.625,0.715,0.869,0.979,1.398,1.365c3.711,2.945,9.121,2.715,12.564-0.707C30.034,12.519,30.056,6.515,26.362,2.802z
	 M24.649,14.526c-2.787,2.771-7.29,2.752-10.056-0.033c-2.768-2.787-2.754-7.289,0.034-10.059c2.783-2.768,7.289-2.746,10.055,0.037
	C27.452,7.257,27.437,11.761,24.649,14.526z"/>
<polygon style="fill:#000000;" points="0,26.937 2.389,29.524 12.718,18.325 10.996,16.599 "/>
<g>
</g>
<g>
</g>
<g>
</g>
<g>
</g>
<g>
</g>
<g>
</g>
<g>
</g>
<g>
</g>
<g>
</g>
<g>
</g>
<g>
</g>
<g>
</g>
<g>
</g>
<g>
</g>
<g>
</g>
</svg>
