<?xml version="1.0" encoding="iso-8859-1"?>
<!-- Generator: Adobe Illustrator 16.0.4, SVG Export Plug-In . SVG Version: 6.00 Build 0)  -->
<!DOCTYPE svg PUBLIC "-//W3C//DTD SVG 1.1//EN" "http://www.w3.org/Graphics/SVG/1.1/DTD/svg11.dtd">
<svg version="1.1" id="Capa_1" xmlns="http://www.w3.org/2000/svg" xmlns:xlink="http://www.w3.org/1999/xlink" x="0px" y="0px"
	 width="15px" height="12.506px" viewBox="0 0 15 12.506" style="enable-background:new 0 0 15 12.506;" xml:space="preserve">
<path style="fill:#010002;" d="M12.553,4.118L15,2.759l-0.54-0.292L9.993,0.033L7.532,1.376L5.004,0L0,2.722l0.532,0.3l1.951,1.084
	L2.46,4.117H2.458v0.002L0.043,5.435l2.415,1.298v3.263l5.041,2.511l5.042-2.511V6.742l2.435-1.308L12.553,4.118z M9.993,0.802
	l3.605,1.962l-1.745,0.971L8.207,1.776L9.993,0.802z M1.398,2.729l3.605-1.962l1.787,0.973l-3.648,1.96L1.398,2.729z M1.459,5.432
	l1.786-0.976l3.642,1.97L5.105,7.389L1.459,5.432z M3.134,9.576V7.097l1.978,1.062l2.051-1.139v4.562L3.134,9.576z M11.867,9.576
	l-4.028,2.005V7.013l2.062,1.146l1.966-1.055V9.576z M13.556,5.43L9.908,7.389L8.157,6.426l3.609-1.97L13.556,5.43z"/>
<g>
</g>
<g>
</g>
<g>
</g>
<g>
</g>
<g>
</g>
<g>
</g>
<g>
</g>
<g>
</g>
<g>
</g>
<g>
</g>
<g>
</g>
<g>
</g>
<g>
</g>
<g>
</g>
<g>
</g>
</svg>
