<?xml version="1.0" encoding="utf-8"?>
<!-- Generator: Adobe Illustrator 16.0.4, SVG Export Plug-In . SVG Version: 6.00 Build 0)  -->
<!DOCTYPE svg PUBLIC "-//W3C//DTD SVG 1.1//EN" "http://www.w3.org/Graphics/SVG/1.1/DTD/svg11.dtd">
<svg version="1.1" id="Capa_1" xmlns="http://www.w3.org/2000/svg" xmlns:xlink="http://www.w3.org/1999/xlink" x="0px" y="0px"
	 width="52px" height="52px" viewBox="0 0 52 52" enable-background="new 0 0 52 52" xml:space="preserve">
<g>
	<path fill="#000100" d="M43,27H9v14.982C9,45.467,13.44,45,13.44,45h26.332C43.389,45,43,42.7,43,42.7V27z M23,37v6h-2v-6h-2.093
		h-0.083l3.066-3.125L24.956,37H23z M31,37v6h-2v-6h-1.714h-0.082l3.065-3.125L33.335,37H31z"/>
	<path fill="#000100" d="M49.704,16.873v-3.087c0.005-1.997-1.306-2.831-1.306-2.831l-5.586-3.94V6.999H9.132v0.056l-5.529,3.9
		c0,0-1.311,0.834-1.307,2.831v3.087c0,0-0.168,2.18,1.408,1.151l4.885-3.1l-2.546,8.519C5.94,24.979,8.092,24.98,8.092,24.98H43.45
		c2.268,0,2.034-0.923,2.034-0.923l-1.932-9.043l4.742,3.01C49.873,19.053,49.704,16.873,49.704,16.873z M9.035,14.53l0.152-6.531
		h33.627l0.151,6.531H9.035z"/>
</g>
</svg>
