<?xml version="1.0" encoding="utf-8"?>
<!-- Generator: Adobe Illustrator 16.0.0, SVG Export Plug-In . SVG Version: 6.00 Build 0)  -->
<!DOCTYPE svg PUBLIC "-//W3C//DTD SVG 1.1//EN" "http://www.w3.org/Graphics/SVG/1.1/DTD/svg11.dtd">
<svg version="1.1" id="Layer_9" xmlns="http://www.w3.org/2000/svg" xmlns:xlink="http://www.w3.org/1999/xlink" x="0px" y="0px"
	 width="100px" height="100px" viewBox="0 0 100 100" enable-background="new 0 0 100 100" xml:space="preserve">
<path d="M64.617,75.6c0,4.577-3.725,8.3-8.301,8.3s-8.299-3.723-8.299-8.3s3.723-8.3,8.299-8.3S64.617,71.023,64.617,75.6z
	 M91.672,16.1h-6.033c-0.995,0-1.896,0.59-2.293,1.503L64,62.1H8.328c-1.381,0-2.5,1.119-2.5,2.5s1.119,2.5,2.5,2.5h57.311
	c0.995,0,1.896-0.59,2.293-1.503L87.277,21.1h4.395c1.381,0,2.5-1.119,2.5-2.5S93.053,16.1,91.672,16.1z M26.258,67.3
	c-4.576,0-8.299,3.723-8.299,8.3s3.723,8.3,8.299,8.3s8.301-3.723,8.301-8.3S30.834,67.3,26.258,67.3z M58.326,58.866H17.959V18.5
	h40.367V58.866z M27.609,23.393l10.533,10.533l10.533-10.533H27.609z M22.853,49.216l10.533-10.533L22.853,28.15V49.216z
	 M48.676,53.973L38.143,43.44L27.609,53.973H48.676z M53.433,28.15L42.899,38.683l10.533,10.533V28.15z M53.433,24.133l-0.739-0.74
	h-2.287L38.143,35.656L25.879,23.393h-2.286l-0.74,0.74v2.288l12.263,12.263L22.853,50.946v2.288l0.739,0.74h2.287L38.143,41.71
	l12.264,12.263h2.286l0.74-0.74v-2.288L41.17,38.683L53.433,26.42V24.133z M24.688,24.412c-0.507,0-0.918,0.411-0.918,0.917
	c0,0.507,0.411,0.917,0.918,0.917c0.506,0,0.917-0.41,0.917-0.917C25.604,24.822,25.193,24.412,24.688,24.412z M51.394,24.412
	c-0.507,0-0.917,0.411-0.917,0.917c0,0.507,0.41,0.917,0.917,0.917s0.918-0.41,0.918-0.917C52.312,24.822,51.9,24.412,51.394,24.412
	z M24.688,50.813c-0.507,0-0.918,0.411-0.918,0.917c0,0.506,0.411,0.917,0.918,0.917c0.506,0,0.917-0.411,0.917-0.917
	C25.604,51.224,25.193,50.813,24.688,50.813z M51.394,52.648c0.507,0,0.918-0.411,0.918-0.917c0-0.507-0.411-0.917-0.918-0.917
	s-0.917,0.411-0.917,0.917C50.477,52.237,50.887,52.648,51.394,52.648z"/>
</svg>
