<?xml version="1.0" encoding="UTF-8" standalone="no"?>
<!-- Created with Inkscape (http://www.inkscape.org/) -->

<svg
   xmlns:dc="http://purl.org/dc/elements/1.1/"
   xmlns:cc="http://creativecommons.org/ns#"
   xmlns:rdf="http://www.w3.org/1999/02/22-rdf-syntax-ns#"
   xmlns:svg="http://www.w3.org/2000/svg"
   xmlns="http://www.w3.org/2000/svg"
   xmlns:sodipodi="http://sodipodi.sourceforge.net/DTD/sodipodi-0.dtd"
   xmlns:inkscape="http://www.inkscape.org/namespaces/inkscape"
   id="svg2"
   version="1.1"
   inkscape:version="0.48.4 r9939"
   width="256"
   height="256"
   sodipodi:docname="Excel2013FileIcon.png">
  <metadata
     id="metadata8">
    <rdf:RDF>
      <cc:Work
         rdf:about="">
        <dc:format>image/svg+xml</dc:format>
        <dc:type
           rdf:resource="http://purl.org/dc/dcmitype/StillImage" />
        <dc:title></dc:title>
      </cc:Work>
    </rdf:RDF>
  </metadata>
  <defs
     id="defs6" />
  <sodipodi:namedview
     pagecolor="#ffffff"
     bordercolor="#666666"
     borderopacity="1"
     objecttolerance="10"
     gridtolerance="10"
     guidetolerance="10"
     inkscape:pageopacity="0"
     inkscape:pageshadow="2"
     inkscape:window-width="1329"
     inkscape:window-height="752"
     id="namedview4"
     showgrid="false"
     inkscape:snap-bbox="true"
     inkscape:zoom="1.3037281"
     inkscape:cx="59.200079"
     inkscape:cy="126.09371"
     inkscape:window-x="0"
     inkscape:window-y="0"
     inkscape:window-maximized="0"
     inkscape:current-layer="g18" />
  <g
     id="g18">
    <path
       style="fill:#000000;fill-opacity:1"
       d="m 53.902603,238.61848 c -0.369811,-0.3698 -0.672381,-7.09582 -0.672381,-14.94669 0,-7.85087 -0.41813,-14.53273 -0.92917,-14.84858 -0.51105,-0.31584 -5.99718,-1.2427 -12.191389,-2.05967 -6.40262,-0.84446 -11.60452,-2.0245 -12.05551,-2.73476 -1.03651,-1.63237 -1.03651,-103.86631 0,-105.49868 0.45196,-0.71178 5.69565,-1.89594 12.18675,-2.75207 6.2664,-0.82649 11.74688,-1.85614 12.17885,-2.28811 0.43197,-0.43197 0.90354,-17.418542 1.047929,-37.747939 l 0.26254,-36.962538 59.014888,-0.257835 59.0149,-0.257834 24.74064,24.740645 24.74065,24.740646 -0.25554,85.517185 -0.25554,85.51719 -83.07762,0.25571 c -45.692685,0.14064 -83.380187,-0.0469 -83.749997,-0.41667 z m 163.827617,-85.33904 0,-82.499998 -8.5,0 -8.5,0 -0.5,7 -0.5,6.999998 -17.5,0 -17.5,0 -0.29059,-8.259315 c -0.28291,-8.040998 -0.22344,-8.284851 2.25,-9.22525 2.06219,-0.784045 2.54059,-1.634307 2.54059,-4.515433 0,-2.866002 -0.48141,-3.732532 -2.5,-4.5 -2.38089,-0.905214 -2.5,-1.333998 -2.5,-9 0,-7.699038 0.11055,-8.091532 2.53908,-9.014857 2.48536,-0.944932 2.53296,-1.150682 2.25,-9.725249 l -0.28908,-8.759894 -56,0 -55.999997,0 -0.26263,35.75 -0.26263,35.749998 2.26263,-0.008 c 1.24445,-0.004 14.604752,-1.56816 29.689552,-3.47562 20.173375,-2.55089 27.776825,-3.17769 28.749995,-2.37003 0.72769,0.60393 1.32266,2.50546 1.32214,4.22562 l -9.5e-4,3.12755 18.25095,0 18.25094,0 0,8.5 0,8.5 -18.25094,0 -18.25095,0 0,5 0,5 18.25095,0 18.25094,0 0,8.5 0,8.5 -18.25094,0 -18.25095,0 0,5 0,5 18.25095,0 18.25094,0 0,8.5 0,8.5 -18.25094,0 -18.25095,0 0,5 0,5 18.25095,0 18.25094,0 0,8.5 0,8.5 -18.25094,0 -18.25095,0 0,5 0,5 18.25095,0 18.25094,0 0,8.5 0,8.5 -17.5,0 -17.5,0 -0.33202,-2.34518 c -0.26387,-1.86378 -0.77706,-2.22581 -2.5,-1.76366 -1.19239,0.31984 -3.128,0.58768 -4.30135,0.59519 -1.2937,0.008 -2.34169,0.81027 -2.66265,2.03764 -0.50927,1.94744 -1.18496,2.01363 -17.866625,1.75 l -17.33735,-0.27401 -0.30582,-3.67389 c -0.16821,-2.02064 -0.84321,-4.11319 -1.5,-4.65012 -0.6568,-0.53693 -4.68168,-1.29905 -8.944182,-1.6936 l -7.75,-0.71737 0,12.95083 c 0,7.12295 0.30266,13.25348 0.67258,13.62339 0.36992,0.36992 36.707422,0.55742 80.749997,0.41667 l 80.07742,-0.25591 0,-82.5 z m -53.06925,65.68012 c -0.28858,-0.75201 -0.39105,-4.70018 -0.22772,-8.7737 l 0.29697,-7.40642 17.5,0 17.5,0 0,8.5 0,8.5 -17.27229,0.27371 c -13.87471,0.21987 -17.37549,0.005 -17.79696,-1.09359 z m 0,-27 c -0.28858,-0.75201 -0.39105,-4.70018 -0.22772,-8.7737 l 0.29697,-7.40642 17.5,0 17.5,0 0,8.5 0,8.5 -17.27229,0.27371 c -13.87471,0.21987 -17.37549,0.005 -17.79696,-1.09359 z m 0,-27 c -0.28858,-0.75201 -0.39105,-4.70018 -0.22772,-8.7737 l 0.29697,-7.40642 17.5,0 17.5,0 0,8.5 0,8.5 -17.27229,0.27371 c -13.87471,0.21987 -17.37549,0.005 -17.79696,-1.09359 z m 0,-27 c -0.28858,-0.75201 -0.39105,-4.70018 -0.22772,-8.7737 l 0.29697,-7.40642 17.5,0 17.5,0 0,8.5 0,8.5 -17.27229,0.27371 c -13.87471,0.21987 -17.37549,0.005 -17.79696,-1.09359 z m 0,-27 c -0.28858,-0.75201 -0.39105,-4.70018 -0.22772,-8.7737 l 0.29697,-7.40642 17.5,0 17.5,0 0,8.5 0,8.5 -17.27229,0.27371 c -13.87471,0.21987 -17.37549,0.005 -17.79696,-1.09359 z M 74.660976,83.95957 c -0.28857,-0.75202 -0.39104,-4.700184 -0.22771,-8.773713 l 0.29696,-7.406415 17.5,0 17.499994,0 0,8.5 0,8.499998 -17.272274,0.27371 c -13.87472,0.21987 -17.3755,0.005 -17.79697,-1.09358 z m 44.999994,0 c -0.28858,-0.75202 -0.39105,-4.700184 -0.22772,-8.773713 l 0.29697,-7.406415 17.5,0 17.5,0 0,8.5 0,8.499998 -17.27229,0.27371 c -13.87471,0.21987 -17.37549,0.005 -17.79696,-1.09358 z M 74.660976,56.959567 c -0.28857,-0.752012 -0.39104,-4.700181 -0.22771,-8.77371 l 0.29696,-7.406415 17.5,0 17.499994,0 0,8.5 0,8.5 -17.272274,0.27371 c -13.87472,0.219869 -17.3755,0.0048 -17.79697,-1.093585 z m 44.999994,0 c -0.28858,-0.752012 -0.39105,-4.700181 -0.22772,-8.77371 l 0.29697,-7.406415 17.5,0 17.5,0 0,8.5 0,8.5 -17.27229,0.27371 c -13.87471,0.219869 -17.37549,0.0048 -17.79696,-1.093585 z M 68.767725,164.77944 c 1.519401,-3.575 3.319401,-6.5 4,-6.5 0.680611,0 2.48061,2.925 4,6.5 2.616641,6.1567 2.93947,6.5 6.112521,6.5 1.84249,0 3.34998,-0.18489 3.34998,-0.41087 0,-0.22598 -2.08767,-4.72908 -4.63927,-10.00689 l -4.63928,-9.59602 4.13928,-9.03584 c 2.2766,-4.96972 4.13927,-9.46662 4.13927,-9.99312 0,-0.52649 -1.27904,-0.95726 -2.84232,-0.95726 -2.55866,0 -3.086781,0.62376 -5.29169,6.25 -1.391711,3.55123 -3.057861,6.25 -3.85857,6.25 -0.80742,0 -2.428421,-2.66907 -3.7958,-6.25 -2.283262,-5.97943 -2.534312,-6.25 -5.799103,-6.25 -1.87688,0 -3.41252,0.18019 -3.41252,0.40043 0,0.22024 1.8,4.31505 4,9.09957 2.2,4.78452 4.000002,9.28452 4.000002,10 0,0.71548 -1.800002,5.21548 -4.000002,10 -2.2,4.78452 -4,9.10433 -4,9.59957 0,0.49524 1.29937,0.90043 2.88749,0.90043 2.60381,0 3.15886,-0.63855 5.650012,-6.5 z M 215.23022,66.038375 c 0,-1.577999 -40.07957,-41.758933 -41.65359,-41.758933 -0.86376,0 -1.12909,5.514349 -1.00914,20.973038 l 0.16273,20.973038 13.5,0.307616 c 7.425,0.169189 16.9875,0.406322 21.25,0.526962 5.62141,0.159101 7.75,-0.121522 7.75,-1.021721 z"
       id="path42"
       inkscape:connector-curvature="0" />
  </g>
</svg>
